<svg width="951" height="671.5" xmlns="http://www.w3.org/2000/svg" xmlns:xlink="http://www.w3.org/1999/xlink" fill="#ffffff"><defs><style>
  text {
    fill: #212529;
    font-family: Helvetica Neue, Helvetica, Arial, sans-serif;
    font-size: 16px;
  }

  marker, text {
    fill-opacity: 1;
  }

  * {
    overflow: visible;
  }
</style></defs><svg x="305" y="125" width="160" height="70" class="Project" fill="#ffffff"><g><rect width="100%" height="40" stroke="none" fill="white" class="sc-fqkvVR eDtKfR"/><rect y="40" width="100%" height="30" stroke="none" fill="white" class="sc-fqkvVR eDtKfR"/><svg height="40"><text x="50%" y="50%" dominant-baseline="middle" text-anchor="middle" font-weight="bold" pointer-events="none">Project</text></svg><svg x="0" y="40.5" width="159" height="30" class="+ name: str" fill="#ffffff"><g><rect width="100%" height="100%" stroke="none" fill="white" class="sc-fqkvVR eDtKfR"/><text x="10" y="50%" dominant-baseline="middle" text-anchor="start" font-weight="normal" pointer-events="none">+ name: str</text></g></svg><rect width="100%" height="100%" stroke="black" fill="none" class="sc-fqkvVR jAaomD"/><path d="M 0 40 H 160" stroke="black" fill="white" class="sc-gEvEer fkqzOi"/></g></svg><svg x="575" y="475" width="160" height="70" class="Majority" fill="#ffffff"><g><rect width="100%" height="40" stroke="none" fill="white" class="sc-fqkvVR eDtKfR"/><rect y="40" width="100%" height="30" stroke="none" fill="white" class="sc-fqkvVR eDtKfR"/><svg height="40"><text x="50%" y="50%" dominant-baseline="middle" text-anchor="middle" font-weight="bold" pointer-events="none">Majority</text></svg><svg x="0" y="40.5" width="159" height="30" class="+ minVotes: int" fill="#ffffff"><g><rect width="100%" height="100%" stroke="none" fill="white" class="sc-fqkvVR eDtKfR"/><text x="10" y="50%" dominant-baseline="middle" text-anchor="start" font-weight="normal" pointer-events="none">+ minVotes: int</text></g></svg><rect width="100%" height="100%" stroke="black" fill="none" class="sc-fqkvVR jAaomD"/><path d="M 0 40 H 160" stroke="black" fill="white" class="sc-gEvEer fkqzOi"/></g></svg><svg x="575" y="295" width="160" height="100" class="Rule" fill="#ffffff"><g><rect width="100%" height="40" stroke="none" fill="white" class="sc-fqkvVR eDtKfR"/><rect y="40" width="100%" height="60" stroke="none" fill="white" class="sc-fqkvVR eDtKfR"/><svg height="40"><text x="50%" y="50%" dominant-baseline="middle" text-anchor="middle" font-weight="bold" pointer-events="none">Rule</text></svg><svg x="0" y="40.5" width="159" height="30" class="+ task: TaskType" fill="#ffffff"><g><rect width="100%" height="100%" stroke="none" fill="white" class="sc-fqkvVR eDtKfR"/><text x="10" y="50%" dominant-baseline="middle" text-anchor="start" font-weight="normal" pointer-events="none">+ task: TaskType</text></g></svg><svg x="0" y="70.5" width="159" height="30" class="+ name: str" fill="#ffffff"><g><rect width="100%" height="100%" stroke="none" fill="white" class="sc-fqkvVR eDtKfR"/><text x="10" y="50%" dominant-baseline="middle" text-anchor="start" font-weight="normal" pointer-events="none">+ name: str</text></g></svg><rect width="100%" height="100%" stroke="black" fill="none" class="sc-fqkvVR jAaomD"/><path d="M 0 40 H 160" stroke="black" fill="white" class="sc-gEvEer fkqzOi"/></g></svg><svg x="775" y="15" width="160" height="140" class="TaskType" fill="#ffffff"><g><rect width="100%" height="50" stroke="none" fill="white" class="sc-fqkvVR eDtKfR"/><rect y="50" width="100%" height="90" stroke="none" fill="white" class="sc-fqkvVR eDtKfR"/><svg height="50"><text x="50%" y="50%" dominant-baseline="middle" text-anchor="middle" font-weight="bold" pointer-events="none"><tspan x="50%" dy="-8" text-anchor="middle" font-size="85%">«enumeration»</tspan><tspan x="50%" dy="18" text-anchor="middle">TaskType</tspan></text></svg><svg x="0" y="50.5" width="159" height="30" class="ISSUE" fill="#ffffff"><g><rect width="100%" height="100%" stroke="none" fill="white" class="sc-fqkvVR eDtKfR"/><text x="10" y="50%" dominant-baseline="middle" text-anchor="start" font-weight="normal" pointer-events="none">ISSUE</text></g></svg><svg x="0" y="80.5" width="159" height="30" class="PULL_REQUEST" fill="#ffffff"><g><rect width="100%" height="100%" stroke="none" fill="white" class="sc-fqkvVR eDtKfR"/><text x="10" y="50%" dominant-baseline="middle" text-anchor="start" font-weight="normal" pointer-events="none">PULL_REQUEST</text></g></svg><svg x="0" y="110.5" width="159" height="30" class="ALL" fill="#ffffff"><g><rect width="100%" height="100%" stroke="none" fill="white" class="sc-fqkvVR eDtKfR"/><text x="10" y="50%" dominant-baseline="middle" text-anchor="start" font-weight="normal" pointer-events="none">ALL</text></g></svg><rect width="100%" height="100%" stroke="black" fill="none" class="sc-fqkvVR jAaomD"/><path d="M 0 50 H 160" stroke="black" fill="white" class="sc-gEvEer fkqzOi"/></g></svg><svg x="565" y="135" width="160" height="70" class="Role" fill="#ffffff"><g><rect width="100%" height="40" stroke="none" fill="white" class="sc-fqkvVR eDtKfR"/><rect y="40" width="100%" height="30" stroke="none" fill="white" class="sc-fqkvVR eDtKfR"/><svg height="40"><text x="50%" y="50%" dominant-baseline="middle" text-anchor="middle" font-weight="bold" pointer-events="none">Role</text></svg><svg x="0" y="40.5" width="159" height="30" class="+ name: str" fill="#ffffff"><g><rect width="100%" height="100%" stroke="none" fill="white" class="sc-fqkvVR eDtKfR"/><text x="10" y="50%" dominant-baseline="middle" text-anchor="start" font-weight="normal" pointer-events="none">+ name: str</text></g></svg><rect width="100%" height="100%" stroke="black" fill="none" class="sc-fqkvVR jAaomD"/><path d="M 0 40 H 160" stroke="black" fill="white" class="sc-gEvEer fkqzOi"/></g></svg><svg x="755" y="475" width="160" height="40" class="LeaderDriven" fill="#ffffff"><g><rect width="100%" height="40" stroke="none" fill="white" class="sc-fqkvVR eDtKfR"/><rect y="40" width="100%" height="0" stroke="none" fill="white" class="sc-fqkvVR eDtKfR"/><svg height="40"><text x="50%" y="50%" dominant-baseline="middle" text-anchor="middle" font-weight="bold" pointer-events="none">LeaderDriven</text></svg><rect width="100%" height="100%" stroke="black" fill="none" class="sc-fqkvVR jAaomD"/></g></svg><svg x="15" y="315" width="190" height="100" class="Deadline" fill="#ffffff"><g><rect width="100%" height="40" stroke="none" fill="white" class="sc-fqkvVR eDtKfR"/><rect y="40" width="100%" height="60" stroke="none" fill="white" class="sc-fqkvVR eDtKfR"/><svg height="40"><text x="50%" y="50%" dominant-baseline="middle" text-anchor="middle" font-weight="bold" pointer-events="none">Deadline</text></svg><svg x="0" y="40.5" width="189" height="30" class="+ name: str" fill="#ffffff"><g><rect width="100%" height="100%" stroke="none" fill="white" class="sc-fqkvVR eDtKfR"/><text x="10" y="50%" dominant-baseline="middle" text-anchor="start" font-weight="normal" pointer-events="none">+ name: str</text></g></svg><svg x="0" y="70.5" width="189" height="30" class="+ timeStamp: timeDelta" fill="#ffffff"><g><rect width="100%" height="100%" stroke="none" fill="white" class="sc-fqkvVR eDtKfR"/><text x="10" y="50%" dominant-baseline="middle" text-anchor="start" font-weight="normal" pointer-events="none">+ timeStamp: timeDelta</text></g></svg><rect width="100%" height="100%" stroke="black" fill="none" class="sc-fqkvVR jAaomD"/><path d="M 0 40 H 190" stroke="black" fill="white" class="sc-gEvEer fkqzOi"/></g></svg><svg x="575" y="585" width="160" height="70" class="RatioMajority" fill="#ffffff"><g><rect width="100%" height="40" stroke="none" fill="white" class="sc-fqkvVR eDtKfR"/><rect y="40" width="100%" height="30" stroke="none" fill="white" class="sc-fqkvVR eDtKfR"/><svg height="40"><text x="50%" y="50%" dominant-baseline="middle" text-anchor="middle" font-weight="bold" pointer-events="none">RatioMajority</text></svg><svg x="0" y="40.5" width="159" height="30" class="+ ratio: float" fill="#ffffff"><g><rect width="100%" height="100%" stroke="none" fill="white" class="sc-fqkvVR eDtKfR"/><text x="10" y="50%" dominant-baseline="middle" text-anchor="start" font-weight="normal" pointer-events="none">+ ratio: float</text></g></svg><rect width="100%" height="100%" stroke="black" fill="none" class="sc-fqkvVR jAaomD"/><path d="M 0 40 H 160" stroke="black" fill="white" class="sc-gEvEer fkqzOi"/></g></svg><svg x="355" y="485" width="160" height="40" class="Phased" fill="#ffffff"><g><rect width="100%" height="40" stroke="none" fill="white" class="sc-fqkvVR eDtKfR"/><rect y="40" width="100%" height="0" stroke="none" fill="white" class="sc-fqkvVR eDtKfR"/><svg height="40"><text x="50%" y="50%" dominant-baseline="middle" text-anchor="middle" font-weight="bold" pointer-events="none">Phased</text></svg><rect width="100%" height="100%" stroke="black" fill="none" class="sc-fqkvVR jAaomD"/></g></svg><svg x="650" y="395" width="10" height="80" class="" fill="#ffffff"><g><marker id="marker-96936c30-e80c-441f-ac3d-20e1afd50870" viewBox="0 0 30 30" markerWidth="22" markerHeight="30" refX="30" refY="15" orient="auto" markerUnits="strokeWidth"><path d="M0,1 L0,29 L30,15 z" stroke="black" fill="white" class="sc-gEvEer fkqzOi"/></marker><polyline points="5 80,5 0" stroke-width="1" marker-end="url(#marker-96936c30-e80c-441f-ac3d-20e1afd50870)" stroke="black" fill="none" class="sc-aXZVg eMElBf"/><text x="5" y="72" dx="5" text-anchor="start" pointer-events="none"/><text x="5" y="31" dx="5" dy="10" text-anchor="start" pointer-events="none"/><text x="5" y="72" dx="-5" text-anchor="end" pointer-events="none"/><text x="5" y="31" dx="-5" dy="10" text-anchor="end" pointer-events="none"/></g></svg><svg x="465" y="155" width="100" height="48.60000038146973" class="" fill="#ffffff"><g><marker id="marker-5ce59e81-fc20-47fa-871e-be73d563e997" viewBox="0 0 30 30" markerWidth="30" markerHeight="30" refX="30" refY="15" orient="auto" markerUnits="strokeWidth"><path d="M0,15 L15,22 L30,15 L15,8 z" stroke="white" fill="black" class="sc-eqUAAy dLsBSg"/></marker><polyline points="100 10,0 10" stroke-width="1" marker-end="url(#marker-5ce59e81-fc20-47fa-871e-be73d563e997)" stroke="black" fill="none" class="sc-aXZVg eMElBf"/><text x="92" y="10" dy="21" text-anchor="end" pointer-events="none">1..*</text><text x="31" y="10" dy="21" text-anchor="start" pointer-events="none"/><text x="92" y="10" dy="-10" text-anchor="end" pointer-events="none">roles</text><text x="31" y="10" dy="-10" text-anchor="start" pointer-events="none"/></g></svg><svg x="596.9500007629395" y="205" width="82.08333206176758" height="99.60000038146973" class="" fill="#ffffff"><g><polyline points="53.04999923706055 90,53.04999923706055 0" stroke-width="1" marker-end="url(#marker-ba6095c1-2e11-4edb-8b3f-392d67ac3cc2)" stroke="black" fill="none" class="sc-aXZVg eMElBf"/><text x="53.04999923706055" y="82" dx="5" text-anchor="start" pointer-events="none">0..*</text><text x="53.04999923706055" y="8" dx="5" dy="10" text-anchor="start" pointer-events="none">1..*</text><text x="53.04999923706055" y="82" dx="-5" text-anchor="end" pointer-events="none"/><text x="53.04999923706055" y="8" dx="-5" dy="10" text-anchor="end" pointer-events="none">people</text></g></svg><svg x="380" y="195" width="195" height="163.60000038146973" class="" fill="#ffffff"><g><marker id="marker-f2d722d5-a176-4800-b105-12e7e5da2631" viewBox="0 0 30 30" markerWidth="30" markerHeight="30" refX="30" refY="15" orient="auto" markerUnits="strokeWidth"><path d="M0,15 L15,22 L30,15 L15,8 z" stroke="white" fill="black" class="sc-eqUAAy dLsBSg"/></marker><polyline points="195 125,5 125,5 0" stroke-width="1" marker-end="url(#marker-f2d722d5-a176-4800-b105-12e7e5da2631)" stroke="black" fill="none" class="sc-aXZVg eMElBf"/><text x="187" y="125" dy="21" text-anchor="end" pointer-events="none">0..*</text><text x="5" y="31" dx="5" dy="10" text-anchor="start" pointer-events="none"/><text x="187" y="125" dy="-10" text-anchor="end" pointer-events="none">rules</text><text x="5" y="31" dx="-5" dy="10" text-anchor="end" pointer-events="none"/></g></svg><svg x="650" y="395" width="190" height="80" class="" fill="#ffffff"><g><marker id="marker-31e92823-a5e0-419f-91eb-080225b434f6" viewBox="0 0 30 30" markerWidth="22" markerHeight="30" refX="30" refY="15" orient="auto" markerUnits="strokeWidth"><path d="M0,1 L0,29 L30,15 z" stroke="black" fill="white" class="sc-gEvEer fkqzOi"/></marker><polyline points="185 80,185 40,5 40,5 0" stroke-width="1" marker-end="url(#marker-31e92823-a5e0-419f-91eb-080225b434f6)" stroke="black" fill="none" class="sc-aXZVg eMElBf"/><text x="185" y="72" dx="5" text-anchor="start" pointer-events="none"/><text x="5" y="31" dx="5" dy="10" text-anchor="start" pointer-events="none"/><text x="185" y="72" dx="-5" text-anchor="end" pointer-events="none"/><text x="5" y="31" dx="-5" dy="10" text-anchor="end" pointer-events="none"/></g></svg><svg x="735" y="360" width="169.03333282470703" height="124.60000038146973" class="" fill="#ffffff"><g><polyline points="140 115,140 10,0 10" stroke-width="1" marker-end="url(#marker-b6e0bf29-095d-489a-ab43-be902132ecd0)" stroke="black" fill="none" class="sc-aXZVg eMElBf"/><text x="140" y="107" dx="5" text-anchor="start" pointer-events="none">0..*</text><text x="8" y="10" dy="21" text-anchor="start" pointer-events="none">1..1</text><text x="140" y="107" dx="-5" text-anchor="end" pointer-events="none"/><text x="8" y="10" dy="-10" text-anchor="start" pointer-events="none">default</text></g></svg><svg x="36.5" y="150" width="268.5" height="174.60000038146973" class="" fill="#ffffff"><g><marker id="marker-6c2a95d2-0101-46d5-b56c-50fda14c82c6" viewBox="0 0 30 30" markerWidth="30" markerHeight="30" refX="30" refY="15" orient="auto" markerUnits="strokeWidth"><path d="M0,15 L15,22 L30,15 L15,8 z" stroke="white" fill="black" class="sc-eqUAAy dLsBSg"/></marker><polyline points="73.5 165,73.5 10,268.5 10" stroke-width="1" marker-end="url(#marker-6c2a95d2-0101-46d5-b56c-50fda14c82c6)" stroke="black" fill="none" class="sc-aXZVg eMElBf"/><text x="73.5" y="157" dx="5" text-anchor="start" pointer-events="none">0..*</text><text x="237.5" y="10" dy="21" text-anchor="end" pointer-events="none"/><text x="73.5" y="157" dx="-5" text-anchor="end" pointer-events="none">deadlines</text><text x="237.5" y="10" dy="-10" text-anchor="end" pointer-events="none"/></g></svg><svg x="205" y="345" width="370" height="48.60000038146973" class="" fill="#ffffff"><g><polyline points="370 10,0 10" stroke-width="1" marker-end="url(#marker-edc56f74-bf8c-40ba-b279-bf2f7f1fca5e)" stroke="black" fill="none" class="sc-aXZVg eMElBf"/><text x="362" y="10" dy="21" text-anchor="end" pointer-events="none">0..*</text><text x="8" y="10" dy="21" text-anchor="start" pointer-events="none">1..1</text><text x="362" y="10" dy="-10" text-anchor="end" pointer-events="none">rules</text><text x="8" y="10" dy="-10" text-anchor="start" pointer-events="none">deadline</text></g></svg><svg x="650" y="545" width="10" height="41" class="" fill="#ffffff"><g><marker id="marker-8b6e59de-fdec-4372-8936-a548234da8b6" viewBox="0 0 30 30" markerWidth="22" markerHeight="30" refX="30" refY="15" orient="auto" markerUnits="strokeWidth"><path d="M0,1 L0,29 L30,15 z" stroke="black" fill="white" class="sc-gEvEer fkqzOi"/></marker><polyline points="5 40,5 0" stroke-width="1" marker-end="url(#marker-8b6e59de-fdec-4372-8936-a548234da8b6)" stroke="black" fill="none" class="sc-aXZVg eMElBf"/><text x="5" y="32" dx="5" text-anchor="start" pointer-events="none"/><text x="5" y="31" dx="5" dy="10" text-anchor="start" pointer-events="none"/><text x="5" y="32" dx="-5" text-anchor="end" pointer-events="none"/><text x="5" y="31" dx="-5" dy="10" text-anchor="end" pointer-events="none"/></g></svg><svg x="430" y="395" width="230" height="90" class="" fill="#ffffff"><g><marker id="marker-422aeb3b-ae3f-4e48-8973-bce8db850da1" viewBox="0 0 30 30" markerWidth="22" markerHeight="30" refX="30" refY="15" orient="auto" markerUnits="strokeWidth"><path d="M0,1 L0,29 L30,15 z" stroke="black" fill="white" class="sc-gEvEer fkqzOi"/></marker><polyline points="5 90,5 45,225 45,225 0" stroke-width="1" marker-end="url(#marker-422aeb3b-ae3f-4e48-8973-bce8db850da1)" stroke="black" fill="none" class="sc-aXZVg eMElBf"/><text x="5" y="82" dx="5" text-anchor="start" pointer-events="none"/><text x="225" y="31" dx="5" dy="10" text-anchor="start" pointer-events="none"/><text x="5" y="82" dx="-5" text-anchor="end" pointer-events="none"/><text x="225" y="31" dx="-5" dy="10" text-anchor="end" pointer-events="none"/></g></svg><svg x="390" y="360" width="185" height="134.60000038146973" class="" fill="#ffffff"><g><polyline points="5 125,5 10,185 10" stroke-width="1" marker-end="url(#marker-2cdc6f04-4681-4143-a2da-04db61e2c292)" stroke="black" fill="none" class="sc-aXZVg eMElBf"/><text x="5" y="117" dx="5" text-anchor="start" pointer-events="none">0..*</text><text x="177" y="10" dy="21" text-anchor="end" pointer-events="none">1..*</text><text x="5" y="117" dx="-5" text-anchor="end" pointer-events="none"/><text x="177" y="10" dy="-10" text-anchor="end" pointer-events="none">phases</text></g></svg></svg>