<svg width="1341" height="1101.5" xmlns="http://www.w3.org/2000/svg" xmlns:xlink="http://www.w3.org/1999/xlink" fill="#ffffff"><defs><style>
  text {
    fill: #212529;
    font-family: Helvetica Neue, Helvetica, Arial, sans-serif;
    font-size: 16px;
  }

  marker, text {
    fill-opacity: 1;
  }

  * {
    overflow: visible;
  }
</style></defs><svg x="905" y="155" width="160" height="70" class="Task" fill="#ffffff"><g><rect width="100%" height="40" stroke="none" fill="white" class="sc-fqkvVR eDtKfR"/><rect y="40" width="100%" height="30" stroke="none" fill="white" class="sc-fqkvVR eDtKfR"/><svg height="40"><text x="50%" y="50%" dominant-baseline="middle" text-anchor="middle" font-weight="bold" pointer-events="none">Task</text></svg><svg x="0" y="40.5" width="159" height="30" class="+ attribute: str" fill="#ffffff"><g><rect width="100%" height="100%" stroke="none" fill="white" class="sc-fqkvVR eDtKfR"/><text x="10" y="50%" dominant-baseline="middle" text-anchor="start" font-weight="normal" pointer-events="none">+ attribute: str</text></g></svg><rect width="100%" height="100%" stroke="black" fill="none" class="sc-fqkvVR jAaomD"/><path d="M 0 40 H 160" stroke="black" fill="white" class="sc-gEvEer fkqzOi"/></g></svg><svg x="1165" y="835" width="160" height="100" class="Deadline" fill="#ffffff"><g><rect width="100%" height="40" stroke="none" fill="white" class="sc-fqkvVR eDtKfR"/><rect y="40" width="100%" height="60" stroke="none" fill="white" class="sc-fqkvVR eDtKfR"/><svg height="40"><text x="50%" y="50%" dominant-baseline="middle" text-anchor="middle" font-weight="bold" pointer-events="none">Deadline</text></svg><svg x="0" y="40.5" width="159" height="30" class="+ int: str" fill="#ffffff"><g><rect width="100%" height="100%" stroke="none" fill="white" class="sc-fqkvVR eDtKfR"/><text x="10" y="50%" dominant-baseline="middle" text-anchor="start" font-weight="normal" pointer-events="none">+ int: str</text></g></svg><svg x="0" y="70.5" width="159" height="30" class="+ maxDate: date" fill="#ffffff"><g><rect width="100%" height="100%" stroke="none" fill="white" class="sc-fqkvVR eDtKfR"/><text x="10" y="50%" dominant-baseline="middle" text-anchor="start" font-weight="normal" pointer-events="none">+ maxDate: date</text></g></svg><rect width="100%" height="100%" stroke="black" fill="none" class="sc-fqkvVR jAaomD"/><path d="M 0 40 H 160" stroke="black" fill="white" class="sc-gEvEer fkqzOi"/></g></svg><svg x="635" y="515" width="160" height="70" class="Policy" fill="#ffffff"><g><rect width="100%" height="40" stroke="none" fill="white" class="sc-fqkvVR eDtKfR"/><rect y="40" width="100%" height="30" stroke="none" fill="white" class="sc-fqkvVR eDtKfR"/><svg height="40"><text x="50%" y="50%" dominant-baseline="middle" text-anchor="middle" font-weight="bold" pointer-events="none">Policy</text></svg><svg x="0" y="40.5" width="159" height="30" class="+ attribute: str" fill="#ffffff"><g><rect width="100%" height="100%" stroke="none" fill="white" class="sc-fqkvVR eDtKfR"/><text x="10" y="50%" dominant-baseline="middle" text-anchor="start" font-weight="normal" pointer-events="none">+ attribute: str</text></g></svg><rect width="100%" height="100%" stroke="black" fill="none" class="sc-fqkvVR jAaomD"/><path d="M 0 40 H 160" stroke="black" fill="white" class="sc-gEvEer fkqzOi"/></g></svg><svg x="635" y="845" width="190" height="70" class="Majority" fill="#ffffff"><g><rect width="100%" height="40" stroke="none" fill="white" class="sc-fqkvVR eDtKfR"/><rect y="40" width="100%" height="30" stroke="none" fill="white" class="sc-fqkvVR eDtKfR"/><svg height="40"><text x="50%" y="50%" dominant-baseline="middle" text-anchor="middle" font-weight="bold" pointer-events="none">Majority</text></svg><svg x="0" y="40.5" width="189" height="30" class="+ minVotes: int" fill="#ffffff"><g><rect width="100%" height="100%" stroke="none" fill="white" class="sc-fqkvVR eDtKfR"/><text x="10" y="50%" dominant-baseline="middle" text-anchor="start" font-weight="normal" pointer-events="none">+ minVotes: int</text></g></svg><rect width="100%" height="100%" stroke="black" fill="none" class="sc-fqkvVR jAaomD"/><path d="M 0 40 H 190" stroke="black" fill="white" class="sc-gEvEer fkqzOi"/></g></svg><svg x="155" y="675" width="160" height="70" class="Participants" fill="#ffffff"><g><rect width="100%" height="40" stroke="none" fill="white" class="sc-fqkvVR eDtKfR"/><rect y="40" width="100%" height="30" stroke="none" fill="white" class="sc-fqkvVR eDtKfR"/><svg height="40"><text x="50%" y="50%" dominant-baseline="middle" text-anchor="middle" font-weight="bold" pointer-events="none">Participants</text></svg><svg x="0" y="40.5" width="159" height="30" class="+ attribute: str" fill="#ffffff"><g><rect width="100%" height="100%" stroke="none" fill="white" class="sc-fqkvVR eDtKfR"/><text x="10" y="50%" dominant-baseline="middle" text-anchor="start" font-weight="normal" pointer-events="none">+ attribute: str</text></g></svg><rect width="100%" height="100%" stroke="black" fill="none" class="sc-fqkvVR jAaomD"/><path d="M 0 40 H 160" stroke="black" fill="white" class="sc-gEvEer fkqzOi"/></g></svg><svg x="635" y="175" width="160" height="70" class="Activity" fill="#ffffff"><g><rect width="100%" height="40" stroke="none" fill="white" class="sc-fqkvVR eDtKfR"/><rect y="40" width="100%" height="30" stroke="none" fill="white" class="sc-fqkvVR eDtKfR"/><svg height="40"><text x="50%" y="50%" dominant-baseline="middle" text-anchor="middle" font-weight="bold" pointer-events="none">Activity</text></svg><svg x="0" y="40.5" width="159" height="30" class="+ attribute: str" fill="#ffffff"><g><rect width="100%" height="100%" stroke="none" fill="white" class="sc-fqkvVR eDtKfR"/><text x="10" y="50%" dominant-baseline="middle" text-anchor="start" font-weight="normal" pointer-events="none">+ attribute: str</text></g></svg><rect width="100%" height="100%" stroke="black" fill="none" class="sc-fqkvVR jAaomD"/><path d="M 0 40 H 160" stroke="black" fill="white" class="sc-gEvEer fkqzOi"/></g></svg><svg x="635" y="325" width="160" height="70" class="Scope" fill="#ffffff"><g><rect width="100%" height="40" stroke="none" fill="white" class="sc-fqkvVR eDtKfR"/><rect y="40" width="100%" height="30" stroke="none" fill="white" class="sc-fqkvVR eDtKfR"/><svg height="40"><text x="50%" y="50%" dominant-baseline="middle" text-anchor="middle" font-weight="bold" pointer-events="none">Scope</text></svg><svg x="0" y="40.5" width="159" height="30" class="+ attribute: str" fill="#ffffff"><g><rect width="100%" height="100%" stroke="none" fill="white" class="sc-fqkvVR eDtKfR"/><text x="10" y="50%" dominant-baseline="middle" text-anchor="start" font-weight="normal" pointer-events="none">+ attribute: str</text></g></svg><rect width="100%" height="100%" stroke="black" fill="none" class="sc-fqkvVR jAaomD"/><path d="M 0 40 H 160" stroke="black" fill="white" class="sc-gEvEer fkqzOi"/></g></svg><svg x="1145" y="695" width="160" height="70" class="Conditions" fill="#ffffff"><g><rect width="100%" height="40" stroke="none" fill="white" class="sc-fqkvVR eDtKfR"/><rect y="40" width="100%" height="30" stroke="none" fill="white" class="sc-fqkvVR eDtKfR"/><svg height="40"><text x="50%" y="50%" dominant-baseline="middle" text-anchor="middle" font-weight="bold" pointer-events="none">Conditions</text></svg><svg x="0" y="40.5" width="159" height="30" class="+ attribute: str" fill="#ffffff"><g><rect width="100%" height="100%" stroke="none" fill="white" class="sc-fqkvVR eDtKfR"/><text x="10" y="50%" dominant-baseline="middle" text-anchor="start" font-weight="normal" pointer-events="none">+ attribute: str</text></g></svg><rect width="100%" height="100%" stroke="black" fill="none" class="sc-fqkvVR jAaomD"/><path d="M 0 40 H 160" stroke="black" fill="white" class="sc-gEvEer fkqzOi"/></g></svg><svg x="375" y="155" width="160" height="70" class="Project" fill="#ffffff"><g><rect width="100%" height="40" stroke="none" fill="white" class="sc-fqkvVR eDtKfR"/><rect y="40" width="100%" height="30" stroke="none" fill="white" class="sc-fqkvVR eDtKfR"/><svg height="40"><text x="50%" y="50%" dominant-baseline="middle" text-anchor="middle" font-weight="bold" pointer-events="none">Project</text></svg><svg x="0" y="40.5" width="159" height="30" class="+ attribute: str" fill="#ffffff"><g><rect width="100%" height="100%" stroke="none" fill="white" class="sc-fqkvVR eDtKfR"/><text x="10" y="50%" dominant-baseline="middle" text-anchor="start" font-weight="normal" pointer-events="none">+ attribute: str</text></g></svg><rect width="100%" height="100%" stroke="black" fill="none" class="sc-fqkvVR jAaomD"/><path d="M 0 40 H 160" stroke="black" fill="white" class="sc-gEvEer fkqzOi"/></g></svg><svg x="65" y="395" width="160" height="140" class="VotingThreshold" fill="#ffffff"><g><rect width="100%" height="50" stroke="none" fill="white" class="sc-fqkvVR eDtKfR"/><rect y="50" width="100%" height="90" stroke="none" fill="white" class="sc-fqkvVR eDtKfR"/><svg height="50"><text x="50%" y="50%" dominant-baseline="middle" text-anchor="middle" font-weight="bold" pointer-events="none"><tspan x="50%" dy="-8" text-anchor="middle" font-size="85%">«enumeration»</tspan><tspan x="50%" dy="18" text-anchor="middle">VotingThreshold</tspan></text></svg><svg x="0" y="50.5" width="159" height="30" class="AbsoluteMajority" fill="#ffffff"><g><rect width="100%" height="100%" stroke="none" fill="white" class="sc-fqkvVR eDtKfR"/><text x="10" y="50%" dominant-baseline="middle" text-anchor="start" font-weight="normal" pointer-events="none">AbsoluteMajority</text></g></svg><svg x="0" y="80.5" width="159" height="30" class="Majority" fill="#ffffff"><g><rect width="100%" height="100%" stroke="none" fill="white" class="sc-fqkvVR eDtKfR"/><text x="10" y="50%" dominant-baseline="middle" text-anchor="start" font-weight="normal" pointer-events="none">Majority</text></g></svg><svg x="0" y="110.5" width="159" height="30" class="XXX%" fill="#ffffff"><g><rect width="100%" height="100%" stroke="none" fill="white" class="sc-fqkvVR eDtKfR"/><text x="10" y="50%" dominant-baseline="middle" text-anchor="start" font-weight="normal" pointer-events="none">XXX%</text></g></svg><rect width="100%" height="100%" stroke="black" fill="none" class="sc-fqkvVR jAaomD"/><path d="M 0 50 H 160" stroke="black" fill="white" class="sc-gEvEer fkqzOi"/></g></svg><svg x="645" y="45" width="160" height="70" class="Development" fill="#ffffff"><g><rect width="100%" height="40" stroke="none" fill="white" class="sc-fqkvVR eDtKfR"/><rect y="40" width="100%" height="30" stroke="none" fill="white" class="sc-fqkvVR eDtKfR"/><svg height="40"><text x="50%" y="50%" dominant-baseline="middle" text-anchor="middle" font-weight="bold" pointer-events="none">Development</text></svg><svg x="0" y="40.5" width="159" height="30" class="+ attribute: str" fill="#ffffff"><g><rect width="100%" height="100%" stroke="none" fill="white" class="sc-fqkvVR eDtKfR"/><text x="10" y="50%" dominant-baseline="middle" text-anchor="start" font-weight="normal" pointer-events="none">+ attribute: str</text></g></svg><rect width="100%" height="100%" stroke="black" fill="none" class="sc-fqkvVR jAaomD"/><path d="M 0 40 H 160" stroke="black" fill="white" class="sc-gEvEer fkqzOi"/></g></svg><svg x="645" y="685" width="160" height="70" class="Rule" fill="#ffffff"><g><rect width="100%" height="40" stroke="none" fill="white" class="sc-fqkvVR eDtKfR"/><rect y="40" width="100%" height="30" stroke="none" fill="white" class="sc-fqkvVR eDtKfR"/><svg height="40"><text x="50%" y="50%" dominant-baseline="middle" text-anchor="middle" font-weight="bold" pointer-events="none">Rule</text></svg><svg x="0" y="40.5" width="159" height="30" class="+ int: str" fill="#ffffff"><g><rect width="100%" height="100%" stroke="none" fill="white" class="sc-fqkvVR eDtKfR"/><text x="10" y="50%" dominant-baseline="middle" text-anchor="start" font-weight="normal" pointer-events="none">+ int: str</text></g></svg><rect width="100%" height="100%" stroke="black" fill="none" class="sc-fqkvVR jAaomD"/><path d="M 0 40 H 160" stroke="black" fill="white" class="sc-gEvEer fkqzOi"/></g></svg><svg x="285" y="835" width="160" height="70" class="Role" fill="#ffffff"><g><rect width="100%" height="40" stroke="none" fill="white" class="sc-fqkvVR eDtKfR"/><rect y="40" width="100%" height="30" stroke="none" fill="white" class="sc-fqkvVR eDtKfR"/><svg height="40"><text x="50%" y="50%" dominant-baseline="middle" text-anchor="middle" font-weight="bold" pointer-events="none">Role</text></svg><svg x="0" y="40.5" width="159" height="30" class="+ attribute: str" fill="#ffffff"><g><rect width="100%" height="100%" stroke="none" fill="white" class="sc-fqkvVR eDtKfR"/><text x="10" y="50%" dominant-baseline="middle" text-anchor="start" font-weight="normal" pointer-events="none">+ attribute: str</text></g></svg><rect width="100%" height="100%" stroke="black" fill="none" class="sc-fqkvVR jAaomD"/><path d="M 0 40 H 160" stroke="black" fill="white" class="sc-gEvEer fkqzOi"/></g></svg><svg x="15" y="835" width="160" height="70" class="Individual" fill="#ffffff"><g><rect width="100%" height="40" stroke="none" fill="white" class="sc-fqkvVR eDtKfR"/><rect y="40" width="100%" height="30" stroke="none" fill="white" class="sc-fqkvVR eDtKfR"/><svg height="40"><text x="50%" y="50%" dominant-baseline="middle" text-anchor="middle" font-weight="bold" pointer-events="none">Individual</text></svg><svg x="0" y="40.5" width="159" height="30" class="+ attribute: str" fill="#ffffff"><g><rect width="100%" height="100%" stroke="none" fill="white" class="sc-fqkvVR eDtKfR"/><text x="10" y="50%" dominant-baseline="middle" text-anchor="start" font-weight="normal" pointer-events="none">+ attribute: str</text></g></svg><rect width="100%" height="100%" stroke="black" fill="none" class="sc-fqkvVR jAaomD"/><path d="M 0 40 H 160" stroke="black" fill="white" class="sc-gEvEer fkqzOi"/></g></svg><svg x="905" y="15" width="170" height="70" class="PullRequestReview" fill="#ffffff"><g><rect width="100%" height="40" stroke="none" fill="white" class="sc-fqkvVR eDtKfR"/><rect y="40" width="100%" height="30" stroke="none" fill="white" class="sc-fqkvVR eDtKfR"/><svg height="40"><text x="50%" y="50%" dominant-baseline="middle" text-anchor="middle" font-weight="bold" pointer-events="none">PullRequestReview</text></svg><svg x="0" y="40.5" width="169" height="30" class="+ attribute: str" fill="#ffffff"><g><rect width="100%" height="100%" stroke="none" fill="white" class="sc-fqkvVR eDtKfR"/><text x="10" y="50%" dominant-baseline="middle" text-anchor="start" font-weight="normal" pointer-events="none">+ attribute: str</text></g></svg><rect width="100%" height="100%" stroke="black" fill="none" class="sc-fqkvVR jAaomD"/><path d="M 0 40 H 170" stroke="black" fill="white" class="sc-gEvEer fkqzOi"/></g></svg><svg x="625" y="1015" width="190" height="70" class="RatioMajority" fill="#ffffff"><g><rect width="100%" height="40" stroke="none" fill="white" class="sc-fqkvVR eDtKfR"/><rect y="40" width="100%" height="30" stroke="none" fill="white" class="sc-fqkvVR eDtKfR"/><svg height="40"><text x="50%" y="50%" dominant-baseline="middle" text-anchor="middle" font-weight="bold" pointer-events="none">RatioMajority</text></svg><svg x="0" y="40.5" width="189" height="30" class="+ ratio: float" fill="#ffffff"><g><rect width="100%" height="100%" stroke="none" fill="white" class="sc-fqkvVR eDtKfR"/><text x="10" y="50%" dominant-baseline="middle" text-anchor="start" font-weight="normal" pointer-events="none">+ ratio: float</text></g></svg><rect width="100%" height="100%" stroke="black" fill="none" class="sc-fqkvVR jAaomD"/><path d="M 0 40 H 190" stroke="black" fill="white" class="sc-gEvEer fkqzOi"/></g></svg><svg x="315" y="705" width="330" height="48.60000038146973" class="Rule_Participants" fill="#ffffff"><g><polyline points="330 10,0 10" stroke-width="1" marker-end="url(#marker-0dc1f690-e17d-4e7b-8474-5054b7c62ff3)" stroke="black" fill="none" class="sc-aXZVg eMElBf"/><text x="322" y="10" dy="21" text-anchor="end" pointer-events="none">1..1</text><text x="8" y="10" dy="21" text-anchor="start" pointer-events="none">0..*</text><text x="322" y="10" dy="-10" text-anchor="end" pointer-events="none"/><text x="8" y="10" dy="-10" text-anchor="start" pointer-events="none"/></g></svg><svg x="175" y="860" width="110" height="48.60000038146973" class="Has" fill="#ffffff"><g><polyline points="110 10,0 10" stroke-width="1" marker-end="url(#marker-4b093f86-2415-4478-a373-dc754cea8a83)" stroke="black" fill="none" class="sc-aXZVg eMElBf"/><text x="102" y="10" dy="21" text-anchor="end" pointer-events="none">0..*</text><text x="8" y="10" dy="21" text-anchor="start" pointer-events="none">1..1</text><text x="102" y="10" dy="-10" text-anchor="end" pointer-events="none"/><text x="8" y="10" dy="-10" text-anchor="start" pointer-events="none"/></g></svg><svg x="795" y="190" width="110" height="48.60000038146973" class="Activity_Task" fill="#ffffff"><g><polyline points="0 10,110 10" stroke-width="1" marker-end="url(#marker-084b2085-bbcb-44e1-976d-081b0c89e202)" stroke="black" fill="none" class="sc-aXZVg eMElBf"/><text x="8" y="10" dy="21" text-anchor="start" pointer-events="none">1..1</text><text x="102" y="10" dy="21" text-anchor="end" pointer-events="none">0..*</text><text x="8" y="10" dy="-10" text-anchor="start" pointer-events="none"/><text x="102" y="10" dy="-10" text-anchor="end" pointer-events="none"/></g></svg><svg x="535" y="190" width="100" height="48.60000038146973" class="Project_Activity" fill="#ffffff"><g><polyline points="100 10,0 10" stroke-width="1" marker-end="url(#marker-878241c5-bd9f-43e8-a331-a1930543a0e9)" stroke="black" fill="none" class="sc-aXZVg eMElBf"/><text x="92" y="10" dy="21" text-anchor="end" pointer-events="none">0..*</text><text x="8" y="10" dy="21" text-anchor="start" pointer-events="none">1..1</text><text x="92" y="10" dy="-10" text-anchor="end" pointer-events="none"/><text x="8" y="10" dy="-10" text-anchor="start" pointer-events="none"/></g></svg><svg x="586.3666687011719" y="395" width="160.33333206176758" height="129.60000038146973" class="Scope_Policy" fill="#ffffff"><g><polyline points="128.63333129882812 0,128.63333129882812 120" stroke-width="1" marker-end="url(#marker-3c1e77cf-e342-4c34-be27-6732a5c6dc1c)" stroke="black" fill="none" class="sc-aXZVg eMElBf"/><text x="128.63333129882812" y="8" dx="5" dy="10" text-anchor="start" pointer-events="none">0..*</text><text x="128.63333129882812" y="112" dx="5" text-anchor="start" pointer-events="none">0..1</text><text x="128.63333129882812" y="8" dx="-5" dy="10" text-anchor="end" pointer-events="none">impactedElement</text><text x="128.63333129882812" y="112" dx="-5" text-anchor="end" pointer-events="none"/></g></svg><svg x="715" y="585" width="36.70000076293945" height="109.60000038146973" class="Policy_Rule" fill="#ffffff"><g><polyline points="5 100,5 0" stroke-width="1" marker-end="url(#marker-fb953b64-8aeb-463c-8a5d-2f7104d53351)" stroke="black" fill="none" class="sc-aXZVg eMElBf"/><text x="5" y="92" dx="5" text-anchor="start" pointer-events="none">0..*</text><text x="5" y="8" dx="5" dy="10" text-anchor="start" pointer-events="none">1..1</text><text x="5" y="92" dx="-5" text-anchor="end" pointer-events="none"/><text x="5" y="8" dx="-5" dy="10" text-anchor="end" pointer-events="none"/></g></svg><svg x="805" y="715" width="340" height="48.60000038146973" class="Conditions_Rule" fill="#ffffff"><g><polyline points="0 10,340 10" stroke-width="1" marker-end="url(#marker-3c2ec739-b7d0-4574-b7fe-0ad209e1b0b2)" stroke="black" fill="none" class="sc-aXZVg eMElBf"/><text x="8" y="10" dy="21" text-anchor="start" pointer-events="none">0..*</text><text x="332" y="10" dy="21" text-anchor="end" pointer-events="none">0..*</text><text x="8" y="10" dy="-10" text-anchor="start" pointer-events="none"/><text x="332" y="10" dy="-10" text-anchor="end" pointer-events="none"/></g></svg><svg x="710" y="225" width="280" height="100" class="" fill="#ffffff"><g><marker id="marker-ca8a1afb-fc6c-4c89-b19f-bafd598ac8da" viewBox="0 0 30 30" markerWidth="22" markerHeight="30" refX="30" refY="15" orient="auto" markerUnits="strokeWidth"><path d="M0,1 L0,29 L30,15 z" stroke="black" fill="white" class="sc-gEvEer fkqzOi"/></marker><polyline points="275 0,275 50,5 50,5 100" stroke-width="1" marker-end="url(#marker-ca8a1afb-fc6c-4c89-b19f-bafd598ac8da)" stroke="black" fill="none" class="sc-aXZVg eMElBf"/><text x="275" y="8" dx="5" dy="10" text-anchor="start" pointer-events="none"/><text x="5" y="69" dx="5" text-anchor="start" pointer-events="none"/><text x="275" y="8" dx="-5" dy="10" text-anchor="end" pointer-events="none"/><text x="5" y="69" dx="-5" text-anchor="end" pointer-events="none"/></g></svg><svg x="980" y="85" width="10" height="70" class="" fill="#ffffff"><g><marker id="marker-9b407b24-455e-433f-a536-80a7f63ea297" viewBox="0 0 30 30" markerWidth="22" markerHeight="30" refX="30" refY="15" orient="auto" markerUnits="strokeWidth"><path d="M0,1 L0,29 L30,15 z" stroke="black" fill="white" class="sc-gEvEer fkqzOi"/></marker><polyline points="5 0,5 70" stroke-width="1" marker-end="url(#marker-9b407b24-455e-433f-a536-80a7f63ea297)" stroke="black" fill="none" class="sc-aXZVg eMElBf"/><text x="5" y="8" dx="5" dy="10" text-anchor="start" pointer-events="none"/><text x="5" y="39" dx="5" text-anchor="start" pointer-events="none"/><text x="5" y="8" dx="-5" dy="10" text-anchor="end" pointer-events="none"/><text x="5" y="39" dx="-5" text-anchor="end" pointer-events="none"/></g></svg><svg x="1230" y="765" width="10" height="70" class="" fill="#ffffff"><g><marker id="marker-884dc61e-9889-43ec-9e33-2b6f5c3f163b" viewBox="0 0 30 30" markerWidth="22" markerHeight="30" refX="30" refY="15" orient="auto" markerUnits="strokeWidth"><path d="M0,1 L0,29 L30,15 z" stroke="black" fill="white" class="sc-gEvEer fkqzOi"/></marker><polyline points="5 70,5 0" stroke-width="1" marker-end="url(#marker-884dc61e-9889-43ec-9e33-2b6f5c3f163b)" stroke="black" fill="none" class="sc-aXZVg eMElBf"/><text x="5" y="62" dx="5" text-anchor="start" pointer-events="none"/><text x="5" y="31" dx="5" dy="10" text-anchor="start" pointer-events="none"/><text x="5" y="62" dx="-5" text-anchor="end" pointer-events="none"/><text x="5" y="31" dx="-5" dy="10" text-anchor="end" pointer-events="none"/></g></svg><svg x="710" y="245" width="10" height="80" class="" fill="#ffffff"><g><marker id="marker-5242b34a-0b8f-4545-bd12-3f3a97356f9f" viewBox="0 0 30 30" markerWidth="22" markerHeight="30" refX="30" refY="15" orient="auto" markerUnits="strokeWidth"><path d="M0,1 L0,29 L30,15 z" stroke="black" fill="white" class="sc-gEvEer fkqzOi"/></marker><polyline points="5 0,5 80" stroke-width="1" marker-end="url(#marker-5242b34a-0b8f-4545-bd12-3f3a97356f9f)" stroke="black" fill="none" class="sc-aXZVg eMElBf"/><text x="5" y="8" dx="5" dy="10" text-anchor="start" pointer-events="none"/><text x="5" y="49" dx="5" text-anchor="start" pointer-events="none"/><text x="5" y="8" dx="-5" dy="10" text-anchor="end" pointer-events="none"/><text x="5" y="49" dx="-5" text-anchor="end" pointer-events="none"/></g></svg><svg x="720" y="755" width="10" height="90" class="" fill="#ffffff"><g><marker id="marker-35f8571c-498a-47e5-8516-ba91e8ed58ba" viewBox="0 0 30 30" markerWidth="22" markerHeight="30" refX="30" refY="15" orient="auto" markerUnits="strokeWidth"><path d="M0,1 L0,29 L30,15 z" stroke="black" fill="white" class="sc-gEvEer fkqzOi"/></marker><polyline points="5 90,5 0" stroke-width="1" marker-end="url(#marker-35f8571c-498a-47e5-8516-ba91e8ed58ba)" stroke="black" fill="none" class="sc-aXZVg eMElBf"/><text x="5" y="82" dx="5" text-anchor="start" pointer-events="none"/><text x="5" y="31" dx="5" dy="10" text-anchor="start" pointer-events="none"/><text x="5" y="82" dx="-5" text-anchor="end" pointer-events="none"/><text x="5" y="31" dx="-5" dy="10" text-anchor="end" pointer-events="none"/></g></svg><svg x="715" y="115" width="10" height="60" class="" fill="#ffffff"><g><marker id="marker-bf0e95f9-fea1-4807-aaf3-fe79a8703eaa" viewBox="0 0 30 30" markerWidth="22" markerHeight="30" refX="30" refY="15" orient="auto" markerUnits="strokeWidth"><path d="M0,1 L0,29 L30,15 z" stroke="black" fill="white" class="sc-gEvEer fkqzOi"/></marker><polyline points="5 0,5 60" stroke-width="1" marker-end="url(#marker-bf0e95f9-fea1-4807-aaf3-fe79a8703eaa)" stroke="black" fill="none" class="sc-aXZVg eMElBf"/><text x="5" y="8" dx="5" dy="10" text-anchor="start" pointer-events="none"/><text x="5" y="29" dx="5" text-anchor="start" pointer-events="none"/><text x="5" y="8" dx="-5" dy="10" text-anchor="end" pointer-events="none"/><text x="5" y="29" dx="-5" text-anchor="end" pointer-events="none"/></g></svg><svg x="450" y="225" width="270" height="100" class="" fill="#ffffff"><g><marker id="marker-bd50e6b7-2137-495f-abde-232a952852a8" viewBox="0 0 30 30" markerWidth="22" markerHeight="30" refX="30" refY="15" orient="auto" markerUnits="strokeWidth"><path d="M0,1 L0,29 L30,15 z" stroke="black" fill="white" class="sc-gEvEer fkqzOi"/></marker><polyline points="5 0,5 50,265 50,265 100" stroke-width="1" marker-end="url(#marker-bd50e6b7-2137-495f-abde-232a952852a8)" stroke="black" fill="none" class="sc-aXZVg eMElBf"/><text x="5" y="8" dx="5" dy="10" text-anchor="start" pointer-events="none"/><text x="265" y="69" dx="5" text-anchor="start" pointer-events="none"/><text x="5" y="8" dx="-5" dy="10" text-anchor="end" pointer-events="none"/><text x="265" y="69" dx="-5" text-anchor="end" pointer-events="none"/></g></svg><svg x="90" y="745" width="150" height="90" class="" fill="#ffffff"><g><marker id="marker-462d169a-3e9c-4177-b9cb-8a4968a2e31a" viewBox="0 0 30 30" markerWidth="22" markerHeight="30" refX="30" refY="15" orient="auto" markerUnits="strokeWidth"><path d="M0,1 L0,29 L30,15 z" stroke="black" fill="white" class="sc-gEvEer fkqzOi"/></marker><polyline points="5 90,5 45,145 45,145 0" stroke-width="1" marker-end="url(#marker-462d169a-3e9c-4177-b9cb-8a4968a2e31a)" stroke="black" fill="none" class="sc-aXZVg eMElBf"/><text x="5" y="82" dx="5" text-anchor="start" pointer-events="none"/><text x="145" y="31" dx="5" dy="10" text-anchor="start" pointer-events="none"/><text x="5" y="82" dx="-5" text-anchor="end" pointer-events="none"/><text x="145" y="31" dx="-5" dy="10" text-anchor="end" pointer-events="none"/></g></svg><svg x="230" y="745" width="140" height="90" class="" fill="#ffffff"><g><marker id="marker-6480dae8-4b2f-4511-9cea-0e716704745d" viewBox="0 0 30 30" markerWidth="22" markerHeight="30" refX="30" refY="15" orient="auto" markerUnits="strokeWidth"><path d="M0,1 L0,29 L30,15 z" stroke="black" fill="white" class="sc-gEvEer fkqzOi"/></marker><polyline points="135 90,135 45,5 45,5 0" stroke-width="1" marker-end="url(#marker-6480dae8-4b2f-4511-9cea-0e716704745d)" stroke="black" fill="none" class="sc-aXZVg eMElBf"/><text x="135" y="82" dx="5" text-anchor="start" pointer-events="none"/><text x="5" y="31" dx="5" dy="10" text-anchor="start" pointer-events="none"/><text x="135" y="82" dx="-5" text-anchor="end" pointer-events="none"/><text x="5" y="31" dx="-5" dy="10" text-anchor="end" pointer-events="none"/></g></svg><svg x="720" y="915" width="10" height="100" class="" fill="#ffffff"><g><marker id="marker-96093c57-c3f6-4269-b554-250ab1be54c1" viewBox="0 0 30 30" markerWidth="22" markerHeight="30" refX="30" refY="15" orient="auto" markerUnits="strokeWidth"><path d="M0,1 L0,29 L30,15 z" stroke="black" fill="white" class="sc-gEvEer fkqzOi"/></marker><polyline points="5 100,5 0" stroke-width="1" marker-end="url(#marker-96093c57-c3f6-4269-b554-250ab1be54c1)" stroke="black" fill="none" class="sc-aXZVg eMElBf"/><text x="5" y="92" dx="5" text-anchor="start" pointer-events="none"/><text x="5" y="31" dx="5" dy="10" text-anchor="start" pointer-events="none"/><text x="5" y="92" dx="-5" text-anchor="end" pointer-events="none"/><text x="5" y="31" dx="-5" dy="10" text-anchor="end" pointer-events="none"/></g></svg></svg>