<svg width="1371" height="1021.5" xmlns="http://www.w3.org/2000/svg" xmlns:xlink="http://www.w3.org/1999/xlink" fill="#ffffff"><defs><style>
  text {
    fill: #212529;
    font-family: Helvetica Neue, Helvetica, Arial, sans-serif;
    font-size: 16px;
  }

  marker, text {
    fill-opacity: 1;
  }

  * {
    overflow: visible;
  }
</style></defs><svg x="905" y="135" width="160" height="40" class="Task" fill="#ffffff"><g><rect width="100%" height="40" stroke="none" fill="white" class="sc-fqkvVR eDtKfR"/><rect y="40" width="100%" height="0" stroke="none" fill="white" class="sc-fqkvVR eDtKfR"/><svg height="40"><text x="50%" y="50%" dominant-baseline="middle" text-anchor="middle" font-weight="bold" pointer-events="none">Task</text></svg><rect width="100%" height="100%" stroke="black" fill="none" class="sc-fqkvVR jAaomD"/></g></svg><svg x="975" y="795" width="170" height="70" class="Deadline" fill="#ffffff"><g><rect width="100%" height="40" stroke="none" fill="white" class="sc-fqkvVR eDtKfR"/><rect y="40" width="100%" height="30" stroke="none" fill="white" class="sc-fqkvVR eDtKfR"/><svg height="40"><text x="50%" y="50%" dominant-baseline="middle" text-anchor="middle" font-weight="bold" pointer-events="none">Deadline</text></svg><svg x="0" y="40.5" width="169" height="30" class="+ deadline: timedelta" fill="#ffffff"><g><rect width="100%" height="100%" stroke="none" fill="white" class="sc-fqkvVR eDtKfR"/><text x="10" y="50%" dominant-baseline="middle" text-anchor="start" font-weight="normal" pointer-events="none">+ deadline: timedelta</text></g></svg><rect width="100%" height="100%" stroke="black" fill="none" class="sc-fqkvVR jAaomD"/><path d="M 0 40 H 170" stroke="black" fill="white" class="sc-gEvEer fkqzOi"/></g></svg><svg x="765" y="525" width="160" height="40" class="SinglePolicy" fill="#ffffff"><g><rect width="100%" height="40" stroke="none" fill="white" class="sc-fqkvVR eDtKfR"/><rect y="40" width="100%" height="0" stroke="none" fill="white" class="sc-fqkvVR eDtKfR"/><svg height="40"><text x="50%" y="50%" dominant-baseline="middle" text-anchor="middle" font-weight="bold" pointer-events="none">SinglePolicy</text></svg><rect width="100%" height="100%" stroke="black" fill="none" class="sc-fqkvVR jAaomD"/></g></svg><svg x="485" y="795" width="190" height="70" class="Majority" fill="#ffffff"><g><rect width="100%" height="40" stroke="none" fill="white" class="sc-fqkvVR eDtKfR"/><rect y="40" width="100%" height="30" stroke="none" fill="white" class="sc-fqkvVR eDtKfR"/><svg height="40"><text x="50%" y="50%" dominant-baseline="middle" text-anchor="middle" font-weight="bold" pointer-events="none">Majority</text></svg><svg x="0" y="40.5" width="189" height="30" class="+ minVotes: int" fill="#ffffff"><g><rect width="100%" height="100%" stroke="none" fill="white" class="sc-fqkvVR eDtKfR"/><text x="10" y="50%" dominant-baseline="middle" text-anchor="start" font-weight="normal" pointer-events="none">+ minVotes: int</text></g></svg><rect width="100%" height="100%" stroke="black" fill="none" class="sc-fqkvVR jAaomD"/><path d="M 0 40 H 190" stroke="black" fill="white" class="sc-gEvEer fkqzOi"/></g></svg><svg x="155" y="635" width="160" height="50" class="Participants" fill="#ffffff"><g><rect width="100%" height="50" stroke="none" fill="white" class="sc-fqkvVR eDtKfR"/><rect y="50" width="100%" height="0" stroke="none" fill="white" class="sc-fqkvVR eDtKfR"/><svg height="50"><text x="50%" y="50%" dominant-baseline="middle" text-anchor="middle" font-weight="bold" pointer-events="none"><tspan x="50%" dy="-8" text-anchor="middle" font-size="85%">«abstract»</tspan><tspan x="50%" dy="18" text-anchor="middle" font-style="italic">Participants</tspan></text></svg><rect width="100%" height="100%" stroke="black" fill="none" class="sc-fqkvVR jAaomD"/></g></svg><svg x="635" y="135" width="160" height="40" class="Activity" fill="#ffffff"><g><rect width="100%" height="40" stroke="none" fill="white" class="sc-fqkvVR eDtKfR"/><rect y="40" width="100%" height="0" stroke="none" fill="white" class="sc-fqkvVR eDtKfR"/><svg height="40"><text x="50%" y="50%" dominant-baseline="middle" text-anchor="middle" font-weight="bold" pointer-events="none">Activity</text></svg><rect width="100%" height="100%" stroke="black" fill="none" class="sc-fqkvVR jAaomD"/></g></svg><svg x="635" y="285" width="160" height="50" class="Scope" fill="#ffffff"><g><rect width="100%" height="50" stroke="none" fill="white" class="sc-fqkvVR eDtKfR"/><rect y="50" width="100%" height="0" stroke="none" fill="white" class="sc-fqkvVR eDtKfR"/><svg height="50"><text x="50%" y="50%" dominant-baseline="middle" text-anchor="middle" font-weight="bold" pointer-events="none"><tspan x="50%" dy="-8" text-anchor="middle" font-size="85%">«abstract»</tspan><tspan x="50%" dy="18" text-anchor="middle" font-style="italic">Scope</tspan></text></svg><rect width="100%" height="100%" stroke="black" fill="none" class="sc-fqkvVR jAaomD"/></g></svg><svg x="975" y="645" width="160" height="50" class="Conditions" fill="#ffffff"><g><rect width="100%" height="50" stroke="none" fill="white" class="sc-fqkvVR eDtKfR"/><rect y="50" width="100%" height="0" stroke="none" fill="white" class="sc-fqkvVR eDtKfR"/><svg height="50"><text x="50%" y="50%" dominant-baseline="middle" text-anchor="middle" font-weight="bold" pointer-events="none"><tspan x="50%" dy="-8" text-anchor="middle" font-size="85%">«abstract»</tspan><tspan x="50%" dy="18" text-anchor="middle" font-style="italic">Conditions</tspan></text></svg><rect width="100%" height="100%" stroke="black" fill="none" class="sc-fqkvVR jAaomD"/></g></svg><svg x="375" y="135" width="160" height="40" class="Project" fill="#ffffff"><g><rect width="100%" height="40" stroke="none" fill="white" class="sc-fqkvVR eDtKfR"/><rect y="40" width="100%" height="0" stroke="none" fill="white" class="sc-fqkvVR eDtKfR"/><svg height="40"><text x="50%" y="50%" dominant-baseline="middle" text-anchor="middle" font-weight="bold" pointer-events="none">Project</text></svg><rect width="100%" height="100%" stroke="black" fill="none" class="sc-fqkvVR jAaomD"/></g></svg><svg x="655" y="15" width="160" height="70" class="Development" fill="#fc5c65"><g><rect width="100%" height="40" stroke="none" fill="#fc5c65" class="sc-fqkvVR kjiHIt"/><rect y="40" width="100%" height="30" stroke="none" fill="white" class="sc-fqkvVR eDtKfR"/><svg height="40"><text x="50%" y="50%" dominant-baseline="middle" text-anchor="middle" font-weight="bold" pointer-events="none">Development</text></svg><svg x="0" y="40.5" width="159" height="30" class="+ attribute: str" fill="#ffffff"><g><rect width="100%" height="100%" stroke="none" fill="white" class="sc-fqkvVR eDtKfR"/><text x="10" y="50%" dominant-baseline="middle" text-anchor="start" font-weight="normal" pointer-events="none">+ attribute: str</text></g></svg><rect width="100%" height="100%" stroke="black" fill="none" class="sc-fqkvVR jAaomD"/><path d="M 0 40 H 160" stroke="black" fill="white" class="sc-gEvEer fkqzOi"/></g></svg><svg x="645" y="645" width="160" height="50" class="Rule" fill="#ffffff"><g><rect width="100%" height="50" stroke="none" fill="white" class="sc-fqkvVR eDtKfR"/><rect y="50" width="100%" height="0" stroke="none" fill="white" class="sc-fqkvVR eDtKfR"/><svg height="50"><text x="50%" y="50%" dominant-baseline="middle" text-anchor="middle" font-weight="bold" pointer-events="none"><tspan x="50%" dy="-8" text-anchor="middle" font-size="85%">«abstract»</tspan><tspan x="50%" dy="18" text-anchor="middle" font-style="italic">Rule</tspan></text></svg><rect width="100%" height="100%" stroke="black" fill="none" class="sc-fqkvVR jAaomD"/></g></svg><svg x="295" y="795" width="160" height="40" class="Role" fill="#ffffff"><g><rect width="100%" height="40" stroke="none" fill="white" class="sc-fqkvVR eDtKfR"/><rect y="40" width="100%" height="0" stroke="none" fill="white" class="sc-fqkvVR eDtKfR"/><svg height="40"><text x="50%" y="50%" dominant-baseline="middle" text-anchor="middle" font-weight="bold" pointer-events="none">Role</text></svg><rect width="100%" height="100%" stroke="black" fill="none" class="sc-fqkvVR jAaomD"/></g></svg><svg x="15" y="795" width="160" height="40" class="Individual" fill="#ffffff"><g><rect width="100%" height="40" stroke="none" fill="white" class="sc-fqkvVR eDtKfR"/><rect y="40" width="100%" height="0" stroke="none" fill="white" class="sc-fqkvVR eDtKfR"/><svg height="40"><text x="50%" y="50%" dominant-baseline="middle" text-anchor="middle" font-weight="bold" pointer-events="none">Individual</text></svg><rect width="100%" height="100%" stroke="black" fill="none" class="sc-fqkvVR jAaomD"/></g></svg><svg x="895" y="15" width="170" height="70" class="PullRequestReview" fill="#fc5c65"><g><rect width="100%" height="40" stroke="none" fill="#fc5c65" class="sc-fqkvVR kjiHIt"/><rect y="40" width="100%" height="30" stroke="none" fill="white" class="sc-fqkvVR eDtKfR"/><svg height="40"><text x="50%" y="50%" dominant-baseline="middle" text-anchor="middle" font-weight="bold" pointer-events="none">PullRequestReview</text></svg><svg x="0" y="40.5" width="169" height="30" class="+ attribute: str" fill="#ffffff"><g><rect width="100%" height="100%" stroke="none" fill="white" class="sc-fqkvVR eDtKfR"/><text x="10" y="50%" dominant-baseline="middle" text-anchor="start" font-weight="normal" pointer-events="none">+ attribute: str</text></g></svg><rect width="100%" height="100%" stroke="black" fill="none" class="sc-fqkvVR jAaomD"/><path d="M 0 40 H 170" stroke="black" fill="white" class="sc-gEvEer fkqzOi"/></g></svg><svg x="355" y="525" width="190" height="40" class="PhasedPolicy" fill="#ffffff"><g><rect width="100%" height="40" stroke="none" fill="white" class="sc-fqkvVR eDtKfR"/><rect y="40" width="100%" height="0" stroke="none" fill="white" class="sc-fqkvVR eDtKfR"/><svg height="40"><text x="50%" y="50%" dominant-baseline="middle" text-anchor="middle" font-weight="bold" pointer-events="none">PhasedPolicy</text></svg><rect width="100%" height="100%" stroke="black" fill="none" class="sc-fqkvVR jAaomD"/></g></svg><svg x="525" y="405" width="190" height="40" class="Policy" fill="#ffffff"><g><rect width="100%" height="40" stroke="none" fill="white" class="sc-fqkvVR eDtKfR"/><rect y="40" width="100%" height="0" stroke="none" fill="white" class="sc-fqkvVR eDtKfR"/><svg height="40"><text x="50%" y="50%" dominant-baseline="middle" text-anchor="middle" font-weight="bold" pointer-events="none">Policy</text></svg><rect width="100%" height="100%" stroke="black" fill="none" class="sc-fqkvVR jAaomD"/></g></svg><svg x="1195" y="665" width="160" height="100" class="" fill="#ffffff"><g><path d="M 0 0 L 145 0 L 160 15 L 160 100 L 0 100 L 0 0 Z" stroke-width="1.2" stroke-miterlimit="10" stroke="black" fill="white" class="sc-gEvEer fkqzOi"/><path d="M 145 0 L 145 15 L 160 15" stroke-width="1.2" stroke-miterlimit="10" stroke="black" fill="none" class="sc-gEvEer bFSwyf"/><clipPath id="clip-7ba5795e-4002-4a1e-8ce7-8543069ac3a8"><rect x="20" y="20" width="120" height="60"/></clipPath><g clip-path="url(#clip-7ba5795e-4002-4a1e-8ce7-8543069ac3a8)"><text x="20" y="25" style="font-size: 18px; dominant-baseline: hanging;"><tspan x="20" dy="0" text-anchor="start">event-based</tspan><tspan x="20" dy="16" text-anchor="start">conditions</tspan><tspan x="20" dy="16" text-anchor="start">Veto right...</tspan></text></g></g></svg><svg x="775" y="795" width="190" height="40" class="LeaderDriven" fill="#ffffff"><g><rect width="100%" height="40" stroke="none" fill="white" class="sc-fqkvVR eDtKfR"/><rect y="40" width="100%" height="0" stroke="none" fill="white" class="sc-fqkvVR eDtKfR"/><svg height="40"><text x="50%" y="50%" dominant-baseline="middle" text-anchor="middle" font-weight="bold" pointer-events="none">LeaderDriven</text></svg><rect width="100%" height="100%" stroke="black" fill="none" class="sc-fqkvVR jAaomD"/></g></svg><svg x="175" y="855" width="160" height="70" class="" fill="#ffffff"><g><path d="M 0 0 L 145 0 L 160 15 L 160 70 L 0 70 L 0 0 Z" stroke-width="1.2" stroke-miterlimit="10" stroke="black" fill="white" class="sc-gEvEer fkqzOi"/><path d="M 145 0 L 145 15 L 160 15" stroke-width="1.2" stroke-miterlimit="10" stroke="black" fill="none" class="sc-gEvEer bFSwyf"/><clipPath id="clip-f0781548-bc92-4851-b07b-b1838c56a672"><rect x="20" y="20" width="120" height="30"/></clipPath><g clip-path="url(#clip-f0781548-bc92-4851-b07b-b1838c56a672)"><text x="20" y="25" style="font-size: 18px; dominant-baseline: hanging;"><tspan x="20" dy="0" text-anchor="start">aggregation?</tspan></text></g></g></svg><svg x="485" y="935" width="190" height="70" class="RatioMajority" fill="#ffffff"><g><rect width="100%" height="40" stroke="none" fill="white" class="sc-fqkvVR eDtKfR"/><rect y="40" width="100%" height="30" stroke="none" fill="white" class="sc-fqkvVR eDtKfR"/><svg height="40"><text x="50%" y="50%" dominant-baseline="middle" text-anchor="middle" font-weight="bold" pointer-events="none">RatioMajority</text></svg><svg x="0" y="40.5" width="189" height="30" class="+ ratio: float" fill="#ffffff"><g><rect width="100%" height="100%" stroke="none" fill="white" class="sc-fqkvVR eDtKfR"/><text x="10" y="50%" dominant-baseline="middle" text-anchor="start" font-weight="normal" pointer-events="none">+ ratio: float</text></g></svg><rect width="100%" height="100%" stroke="black" fill="none" class="sc-fqkvVR jAaomD"/><path d="M 0 40 H 190" stroke="black" fill="white" class="sc-gEvEer fkqzOi"/></g></svg><svg x="315" y="655" width="330" height="48.60000038146973" class="Rule_Participants" fill="#ffffff"><g><polyline points="330 10,0 10" stroke-width="1" marker-end="url(#marker-0dc1f690-e17d-4e7b-8474-5054b7c62ff3)" stroke="black" fill="none" class="sc-aXZVg eMElBf"/><text x="322" y="10" dy="21" text-anchor="end" pointer-events="none">0..*</text><text x="8" y="10" dy="21" text-anchor="start" pointer-events="none">1..*</text><text x="322" y="10" dy="-10" text-anchor="end" pointer-events="none"/><text x="8" y="10" dy="-10" text-anchor="start" pointer-events="none"/></g></svg><svg x="175" y="805" width="120" height="48.60000038146973" class="Has" fill="#ffffff"><g><polyline points="0 10,120 10" stroke-width="1" marker-end="url(#marker-4b093f86-2415-4478-a373-dc754cea8a83)" stroke="#fc5c65" fill="none" class="sc-aXZVg fCytQF"/><text x="8" y="10" dy="21" text-anchor="start" pointer-events="none">0..*</text><text x="112" y="10" dy="21" text-anchor="end" pointer-events="none">0..1</text><text x="8" y="10" dy="-10" text-anchor="start" pointer-events="none">people</text><text x="112" y="10" dy="-10" text-anchor="end" pointer-events="none">role</text></g></svg><svg x="795" y="145" width="110" height="48.60000038146973" class="Activity_Task" fill="#ffffff"><g><polyline points="0 10,110 10" stroke-width="1" marker-end="url(#marker-084b2085-bbcb-44e1-976d-081b0c89e202)" stroke="black" fill="none" class="sc-aXZVg eMElBf"/><text x="8" y="10" dy="21" text-anchor="start" pointer-events="none">1..1</text><text x="102" y="10" dy="21" text-anchor="end" pointer-events="none">0..*</text><text x="8" y="10" dy="-10" text-anchor="start" pointer-events="none"/><text x="102" y="10" dy="-10" text-anchor="end" pointer-events="none"/></g></svg><svg x="535" y="145" width="100" height="48.60000038146973" class="Project_Activity" fill="#ffffff"><g><polyline points="100 10,0 10" stroke-width="1" marker-end="url(#marker-878241c5-bd9f-43e8-a331-a1930543a0e9)" stroke="black" fill="none" class="sc-aXZVg eMElBf"/><text x="92" y="10" dy="21" text-anchor="end" pointer-events="none">0..*</text><text x="8" y="10" dy="21" text-anchor="start" pointer-events="none">1..1</text><text x="92" y="10" dy="-10" text-anchor="end" pointer-events="none"/><text x="8" y="10" dy="-10" text-anchor="start" pointer-events="none"/></g></svg><svg x="546.3666687011719" y="335" width="157.66666412353516" height="79.60000038146973" class="Scope_Policy" fill="#ffffff"><g><polyline points="128.63333129882812 0,128.63333129882812 70" stroke-width="1" marker-end="url(#marker-3c1e77cf-e342-4c34-be27-6732a5c6dc1c)" stroke="black" fill="none" class="sc-aXZVg eMElBf"/><text x="128.63333129882812" y="8" dx="5" dy="10" text-anchor="start" pointer-events="none">1..*</text><text x="128.63333129882812" y="62" dx="5" text-anchor="start" pointer-events="none">0..*</text><text x="128.63333129882812" y="8" dx="-5" dy="10" text-anchor="end" pointer-events="none">impactedElement</text><text x="128.63333129882812" y="62" dx="-5" text-anchor="end" pointer-events="none"/></g></svg><svg x="780" y="565" width="34.03333282470703" height="89.60000038146973" class="Policy_Rule" fill="#ffffff"><g><polyline points="5 80,5 0" stroke-width="1" marker-end="url(#marker-fb953b64-8aeb-463c-8a5d-2f7104d53351)" stroke="black" fill="none" class="sc-aXZVg eMElBf"/><text x="5" y="72" dx="5" text-anchor="start" pointer-events="none">1..*</text><text x="5" y="8" dx="5" dy="10" text-anchor="start" pointer-events="none">0..*</text><text x="5" y="72" dx="-5" text-anchor="end" pointer-events="none"/><text x="5" y="8" dx="-5" dy="10" text-anchor="end" pointer-events="none"/></g></svg><svg x="805" y="660" width="170" height="48.60000038146973" class="Conditions_Rule" fill="#ffffff"><g><polyline points="0 10,170 10" stroke-width="1" marker-end="url(#marker-3c2ec739-b7d0-4574-b7fe-0ad209e1b0b2)" stroke="black" fill="none" class="sc-aXZVg eMElBf"/><text x="8" y="10" dy="21" text-anchor="start" pointer-events="none">0..*</text><text x="162" y="10" dy="21" text-anchor="end" pointer-events="none">0..*</text><text x="8" y="10" dy="-10" text-anchor="start" pointer-events="none"/><text x="162" y="10" dy="-10" text-anchor="end" pointer-events="none"/></g></svg><svg x="710" y="175" width="280" height="110" class="" fill="#ffffff"><g><marker id="marker-ca8a1afb-fc6c-4c89-b19f-bafd598ac8da" viewBox="0 0 30 30" markerWidth="22" markerHeight="30" refX="30" refY="15" orient="auto" markerUnits="strokeWidth"><path d="M0,1 L0,29 L30,15 z" stroke="black" fill="white" class="sc-gEvEer fkqzOi"/></marker><polyline points="275 0,275 55,5 55,5 110" stroke-width="1" marker-end="url(#marker-ca8a1afb-fc6c-4c89-b19f-bafd598ac8da)" stroke="black" fill="none" class="sc-aXZVg eMElBf"/><text x="275" y="8" dx="5" dy="10" text-anchor="start" pointer-events="none"/><text x="5" y="79" dx="5" text-anchor="start" pointer-events="none"/><text x="275" y="8" dx="-5" dy="10" text-anchor="end" pointer-events="none"/><text x="5" y="79" dx="-5" text-anchor="end" pointer-events="none"/></g></svg><svg x="980" y="85" width="10" height="50" class="" fill="#ffffff"><g><marker id="marker-9b407b24-455e-433f-a536-80a7f63ea297" viewBox="0 0 30 30" markerWidth="22" markerHeight="30" refX="30" refY="15" orient="auto" markerUnits="strokeWidth"><path d="M0,1 L0,29 L30,15 z" stroke="black" fill="white" class="sc-gEvEer fkqzOi"/></marker><polyline points="5 0,5 50" stroke-width="1" marker-end="url(#marker-9b407b24-455e-433f-a536-80a7f63ea297)" stroke="black" fill="none" class="sc-aXZVg eMElBf"/><text x="5" y="8" dx="5" dy="10" text-anchor="start" pointer-events="none"/><text x="5" y="19" dx="5" text-anchor="start" pointer-events="none"/><text x="5" y="8" dx="-5" dy="10" text-anchor="end" pointer-events="none"/><text x="5" y="19" dx="-5" text-anchor="end" pointer-events="none"/></g></svg><svg x="1050" y="695" width="10" height="100" class="" fill="#ffffff"><g><marker id="marker-884dc61e-9889-43ec-9e33-2b6f5c3f163b" viewBox="0 0 30 30" markerWidth="22" markerHeight="30" refX="30" refY="15" orient="auto" markerUnits="strokeWidth"><path d="M0,1 L0,29 L30,15 z" stroke="black" fill="white" class="sc-gEvEer fkqzOi"/></marker><polyline points="5 100,5 0" stroke-width="1" marker-end="url(#marker-884dc61e-9889-43ec-9e33-2b6f5c3f163b)" stroke="black" fill="none" class="sc-aXZVg eMElBf"/><text x="5" y="92" dx="5" text-anchor="start" pointer-events="none"/><text x="5" y="31" dx="5" dy="10" text-anchor="start" pointer-events="none"/><text x="5" y="92" dx="-5" text-anchor="end" pointer-events="none"/><text x="5" y="31" dx="-5" dy="10" text-anchor="end" pointer-events="none"/></g></svg><svg x="710" y="175" width="10" height="110" class="" fill="#ffffff"><g><marker id="marker-5242b34a-0b8f-4545-bd12-3f3a97356f9f" viewBox="0 0 30 30" markerWidth="22" markerHeight="30" refX="30" refY="15" orient="auto" markerUnits="strokeWidth"><path d="M0,1 L0,29 L30,15 z" stroke="black" fill="white" class="sc-gEvEer fkqzOi"/></marker><polyline points="5 0,5 110" stroke-width="1" marker-end="url(#marker-5242b34a-0b8f-4545-bd12-3f3a97356f9f)" stroke="black" fill="none" class="sc-aXZVg eMElBf"/><text x="5" y="8" dx="5" dy="10" text-anchor="start" pointer-events="none"/><text x="5" y="79" dx="5" text-anchor="start" pointer-events="none"/><text x="5" y="8" dx="-5" dy="10" text-anchor="end" pointer-events="none"/><text x="5" y="79" dx="-5" text-anchor="end" pointer-events="none"/></g></svg><svg x="575" y="695" width="155" height="100" class="" fill="#ffffff"><g><marker id="marker-35f8571c-498a-47e5-8516-ba91e8ed58ba" viewBox="0 0 30 30" markerWidth="22" markerHeight="30" refX="30" refY="15" orient="auto" markerUnits="strokeWidth"><path d="M0,1 L0,29 L30,15 z" stroke="black" fill="white" class="sc-gEvEer fkqzOi"/></marker><polyline points="5 100,5 50,150 50,150 0" stroke-width="1" marker-end="url(#marker-35f8571c-498a-47e5-8516-ba91e8ed58ba)" stroke="black" fill="none" class="sc-aXZVg eMElBf"/><text x="5" y="92" dx="5" text-anchor="start" pointer-events="none"/><text x="150" y="31" dx="5" dy="10" text-anchor="start" pointer-events="none"/><text x="5" y="92" dx="-5" text-anchor="end" pointer-events="none"/><text x="150" y="31" dx="-5" dy="10" text-anchor="end" pointer-events="none"/></g></svg><svg x="720" y="85" width="10" height="50" class="" fill="#ffffff"><g><marker id="marker-bf0e95f9-fea1-4807-aaf3-fe79a8703eaa" viewBox="0 0 30 30" markerWidth="22" markerHeight="30" refX="30" refY="15" orient="auto" markerUnits="strokeWidth"><path d="M0,1 L0,29 L30,15 z" stroke="black" fill="white" class="sc-gEvEer fkqzOi"/></marker><polyline points="5 0,5 50" stroke-width="1" marker-end="url(#marker-bf0e95f9-fea1-4807-aaf3-fe79a8703eaa)" stroke="black" fill="none" class="sc-aXZVg eMElBf"/><text x="5" y="8" dx="5" dy="10" text-anchor="start" pointer-events="none"/><text x="5" y="19" dx="5" text-anchor="start" pointer-events="none"/><text x="5" y="8" dx="-5" dy="10" text-anchor="end" pointer-events="none"/><text x="5" y="19" dx="-5" text-anchor="end" pointer-events="none"/></g></svg><svg x="450" y="175" width="270" height="110" class="" fill="#ffffff"><g><marker id="marker-bd50e6b7-2137-495f-abde-232a952852a8" viewBox="0 0 30 30" markerWidth="22" markerHeight="30" refX="30" refY="15" orient="auto" markerUnits="strokeWidth"><path d="M0,1 L0,29 L30,15 z" stroke="black" fill="white" class="sc-gEvEer fkqzOi"/></marker><polyline points="5 0,5 55,265 55,265 110" stroke-width="1" marker-end="url(#marker-bd50e6b7-2137-495f-abde-232a952852a8)" stroke="black" fill="none" class="sc-aXZVg eMElBf"/><text x="5" y="8" dx="5" dy="10" text-anchor="start" pointer-events="none"/><text x="265" y="79" dx="5" text-anchor="start" pointer-events="none"/><text x="5" y="8" dx="-5" dy="10" text-anchor="end" pointer-events="none"/><text x="265" y="79" dx="-5" text-anchor="end" pointer-events="none"/></g></svg><svg x="90" y="685" width="150" height="110" class="" fill="#ffffff"><g><marker id="marker-462d169a-3e9c-4177-b9cb-8a4968a2e31a" viewBox="0 0 30 30" markerWidth="22" markerHeight="30" refX="30" refY="15" orient="auto" markerUnits="strokeWidth"><path d="M0,1 L0,29 L30,15 z" stroke="black" fill="white" class="sc-gEvEer fkqzOi"/></marker><polyline points="5 110,5 55,145 55,145 0" stroke-width="1" marker-end="url(#marker-462d169a-3e9c-4177-b9cb-8a4968a2e31a)" stroke="black" fill="none" class="sc-aXZVg eMElBf"/><text x="5" y="102" dx="5" text-anchor="start" pointer-events="none"/><text x="145" y="31" dx="5" dy="10" text-anchor="start" pointer-events="none"/><text x="5" y="102" dx="-5" text-anchor="end" pointer-events="none"/><text x="145" y="31" dx="-5" dy="10" text-anchor="end" pointer-events="none"/></g></svg><svg x="230" y="685" width="150" height="110" class="" fill="#ffffff"><g><marker id="marker-6480dae8-4b2f-4511-9cea-0e716704745d" viewBox="0 0 30 30" markerWidth="22" markerHeight="30" refX="30" refY="15" orient="auto" markerUnits="strokeWidth"><path d="M0,1 L0,29 L30,15 z" stroke="black" fill="white" class="sc-gEvEer fkqzOi"/></marker><polyline points="145 110,145 55,5 55,5 0" stroke-width="1" marker-end="url(#marker-6480dae8-4b2f-4511-9cea-0e716704745d)" stroke="black" fill="none" class="sc-aXZVg eMElBf"/><text x="145" y="102" dx="5" text-anchor="start" pointer-events="none"/><text x="5" y="31" dx="5" dy="10" text-anchor="start" pointer-events="none"/><text x="145" y="102" dx="-5" text-anchor="end" pointer-events="none"/><text x="5" y="31" dx="-5" dy="10" text-anchor="end" pointer-events="none"/></g></svg><svg x="545" y="535" width="220" height="48.60000038146973" class="" fill="#ffffff"><g><polyline points="0 10,220 10" stroke-width="1" marker-end="url(#marker-a7674289-65fe-4c11-857a-57330f301109)" stroke="black" fill="none" class="sc-aXZVg eMElBf"/><text x="8" y="10" dy="21" text-anchor="start" pointer-events="none">0..*</text><text x="212" y="10" dy="21" text-anchor="end" pointer-events="none">1..*</text><text x="8" y="10" dy="-10" text-anchor="start" pointer-events="none"/><text x="212" y="10" dy="-10" text-anchor="end" pointer-events="none">phases</text></g></svg><svg x="445" y="445" width="180" height="80" class="" fill="#ffffff"><g><marker id="marker-860c51b9-7037-424f-9131-a13f286ecba0" viewBox="0 0 30 30" markerWidth="22" markerHeight="30" refX="30" refY="15" orient="auto" markerUnits="strokeWidth"><path d="M0,1 L0,29 L30,15 z" stroke="black" fill="white" class="sc-gEvEer fkqzOi"/></marker><polyline points="5 80,5 40,175 40,175 0" stroke-width="1" marker-end="url(#marker-860c51b9-7037-424f-9131-a13f286ecba0)" stroke="black" fill="none" class="sc-aXZVg eMElBf"/><text x="5" y="72" dx="5" text-anchor="start" pointer-events="none"/><text x="175" y="31" dx="5" dy="10" text-anchor="start" pointer-events="none"/><text x="5" y="72" dx="-5" text-anchor="end" pointer-events="none"/><text x="175" y="31" dx="-5" dy="10" text-anchor="end" pointer-events="none"/></g></svg><svg x="615" y="445" width="195" height="80" class="" fill="#ffffff"><g><marker id="marker-d29ac086-8a89-4dc1-80a2-9abd85689d13" viewBox="0 0 30 30" markerWidth="22" markerHeight="30" refX="30" refY="15" orient="auto" markerUnits="strokeWidth"><path d="M0,1 L0,29 L30,15 z" stroke="black" fill="white" class="sc-gEvEer fkqzOi"/></marker><polyline points="190 80,190 40,5 40,5 0" stroke-width="1" marker-end="url(#marker-d29ac086-8a89-4dc1-80a2-9abd85689d13)" stroke="black" fill="none" class="sc-aXZVg eMElBf"/><text x="190" y="72" dx="5" text-anchor="start" pointer-events="none"/><text x="5" y="31" dx="5" dy="10" text-anchor="start" pointer-events="none"/><text x="190" y="72" dx="-5" text-anchor="end" pointer-events="none"/><text x="5" y="31" dx="-5" dy="10" text-anchor="end" pointer-events="none"/></g></svg><svg x="720" y="695" width="155" height="100" class="" fill="#ffffff"><g><marker id="marker-06a3d6d7-ab36-440e-9384-7e5b1e7ecf5d" viewBox="0 0 30 30" markerWidth="22" markerHeight="30" refX="30" refY="15" orient="auto" markerUnits="strokeWidth"><path d="M0,1 L0,29 L30,15 z" stroke="black" fill="white" class="sc-gEvEer fkqzOi"/></marker><polyline points="150 100,150 50,5 50,5 0" stroke-width="1" marker-end="url(#marker-06a3d6d7-ab36-440e-9384-7e5b1e7ecf5d)" stroke="black" fill="none" class="sc-aXZVg eMElBf"/><text x="150" y="92" dx="5" text-anchor="start" pointer-events="none"/><text x="5" y="31" dx="5" dy="10" text-anchor="start" pointer-events="none"/><text x="150" y="92" dx="-5" text-anchor="end" pointer-events="none"/><text x="5" y="31" dx="-5" dy="10" text-anchor="end" pointer-events="none"/></g></svg><svg x="575" y="865" width="10" height="70" class="" fill="#ffffff"><g><marker id="marker-548b2709-18f3-4ac8-aa6a-3b336abdea43" viewBox="0 0 30 30" markerWidth="22" markerHeight="30" refX="30" refY="15" orient="auto" markerUnits="strokeWidth"><path d="M0,1 L0,29 L30,15 z" stroke="black" fill="white" class="sc-gEvEer fkqzOi"/></marker><polyline points="5 70,5 0" stroke-width="1" marker-end="url(#marker-548b2709-18f3-4ac8-aa6a-3b336abdea43)" stroke="black" fill="none" class="sc-aXZVg eMElBf"/><text x="5" y="62" dx="5" text-anchor="start" pointer-events="none"/><text x="5" y="31" dx="5" dy="10" text-anchor="start" pointer-events="none"/><text x="5" y="62" dx="-5" text-anchor="end" pointer-events="none"/><text x="5" y="31" dx="-5" dy="10" text-anchor="end" pointer-events="none"/></g></svg></svg>