<svg width="2081" height="1831" xmlns="http://www.w3.org/2000/svg" xmlns:xlink="http://www.w3.org/1999/xlink" fill="#ffffff"><defs><style>
  text {
    fill: #212529;
    font-family: Helvetica Neue, Helvetica, Arial, sans-serif;
    font-size: 16px;
  }

  marker, text {
    fill-opacity: 1;
  }

  * {
    overflow: visible;
  }
</style></defs><svg x="965" y="915" width="160" height="50" class="Policy" fill="#ffffff"><g><rect width="100%" height="50" stroke="none" fill="white" class="sc-fqkvVR eDtKfR"></rect><rect y="50" width="100%" height="0" stroke="none" fill="white" class="sc-fqkvVR eDtKfR"></rect><svg height="50"><text x="50%" y="50%" dominant-baseline="middle" text-anchor="middle" font-weight="bold" pointer-events="none"><tspan x="50%" dy="-8" text-anchor="middle" font-size="85%">«abstract»</tspan><tspan x="50%" dy="18" text-anchor="middle" font-style="italic">Policy</tspan></text></svg><rect width="100%" height="100%" stroke="black" fill="none" class="sc-fqkvVR jAaomD"></rect></g></svg><svg x="815" y="1085" width="160" height="40" class="PhasedPolicy" fill="#ffffff"><g><rect width="100%" height="40" stroke="none" fill="white" class="sc-fqkvVR eDtKfR"></rect><rect y="40" width="100%" height="0" stroke="none" fill="white" class="sc-fqkvVR eDtKfR"></rect><svg height="40"><text x="50%" y="50%" dominant-baseline="middle" text-anchor="middle" font-weight="bold" pointer-events="none">PhasedPolicy</text></svg><rect width="100%" height="100%" stroke="black" fill="none" class="sc-fqkvVR jAaomD"></rect></g></svg><svg x="1095" y="1085" width="160" height="40" class="SinglePolicy" fill="#ffffff"><g><rect width="100%" height="40" stroke="none" fill="white" class="sc-fqkvVR eDtKfR"></rect><rect y="40" width="100%" height="0" stroke="none" fill="white" class="sc-fqkvVR eDtKfR"></rect><svg height="40"><text x="50%" y="50%" dominant-baseline="middle" text-anchor="middle" font-weight="bold" pointer-events="none">SinglePolicy</text></svg><rect width="100%" height="100%" stroke="black" fill="none" class="sc-fqkvVR jAaomD"></rect></g></svg><svg x="995" y="755" width="160" height="50" class="Scope" fill="#ffffff"><g><rect width="100%" height="50" stroke="none" fill="white" class="sc-fqkvVR eDtKfR"></rect><rect y="50" width="100%" height="0" stroke="none" fill="white" class="sc-fqkvVR eDtKfR"></rect><svg height="50"><text x="50%" y="50%" dominant-baseline="middle" text-anchor="middle" font-weight="bold" pointer-events="none"><tspan x="50%" dy="-8" text-anchor="middle" font-size="85%">«abstract»</tspan><tspan x="50%" dy="18" text-anchor="middle" font-style="italic">Scope</tspan></text></svg><rect width="100%" height="100%" stroke="black" fill="none" class="sc-fqkvVR jAaomD"></rect></g></svg><svg x="725" y="635" width="160" height="40" class="Project" fill="#ffffff"><g><rect width="100%" height="40" stroke="none" fill="white" class="sc-fqkvVR eDtKfR"></rect><rect y="40" width="100%" height="0" stroke="none" fill="white" class="sc-fqkvVR eDtKfR"></rect><svg height="40"><text x="50%" y="50%" dominant-baseline="middle" text-anchor="middle" font-weight="bold" pointer-events="none">Project</text></svg><rect width="100%" height="100%" stroke="black" fill="none" class="sc-fqkvVR jAaomD"></rect></g></svg><svg x="995" y="635" width="160" height="40" class="Activity" fill="#ffffff"><g><rect width="100%" height="40" stroke="none" fill="white" class="sc-fqkvVR eDtKfR"></rect><rect y="40" width="100%" height="0" stroke="none" fill="white" class="sc-fqkvVR eDtKfR"></rect><svg height="40"><text x="50%" y="50%" dominant-baseline="middle" text-anchor="middle" font-weight="bold" pointer-events="none">Activity</text></svg><rect width="100%" height="100%" stroke="black" fill="none" class="sc-fqkvVR jAaomD"></rect></g></svg><svg x="1265" y="635" width="160" height="40" class="Task" fill="#ffffff"><g><rect width="100%" height="40" stroke="none" fill="white" class="sc-fqkvVR eDtKfR"></rect><rect y="40" width="100%" height="0" stroke="none" fill="white" class="sc-fqkvVR eDtKfR"></rect><svg height="40"><text x="50%" y="50%" dominant-baseline="middle" text-anchor="middle" font-weight="bold" pointer-events="none">Task</text></svg><rect width="100%" height="100%" stroke="black" fill="none" class="sc-fqkvVR jAaomD"></rect></g></svg><svg x="1085" y="1265" width="160" height="50" class="Rule" fill="#ffffff"><g><rect width="100%" height="50" stroke="none" fill="white" class="sc-fqkvVR eDtKfR"></rect><rect y="50" width="100%" height="0" stroke="none" fill="white" class="sc-fqkvVR eDtKfR"></rect><svg height="50"><text x="50%" y="50%" dominant-baseline="middle" text-anchor="middle" font-weight="bold" pointer-events="none"><tspan x="50%" dy="-8" text-anchor="middle" font-size="85%">«abstract»</tspan><tspan x="50%" dy="18" text-anchor="middle" font-style="italic">Rule</tspan></text></svg><rect width="100%" height="100%" stroke="black" fill="none" class="sc-fqkvVR jAaomD"></rect></g></svg><svg x="985" y="1375" width="160" height="40" class="VotingRule" fill="#ffffff"><g><rect width="100%" height="40" stroke="none" fill="white" class="sc-fqkvVR eDtKfR"></rect><rect y="40" width="100%" height="0" stroke="none" fill="white" class="sc-fqkvVR eDtKfR"></rect><svg height="40"><text x="50%" y="50%" dominant-baseline="middle" text-anchor="middle" font-weight="bold" pointer-events="none">VotingRule</text></svg><rect width="100%" height="100%" stroke="black" fill="none" class="sc-fqkvVR jAaomD"></rect></g></svg><svg x="885" y="1545" width="170" height="40" class="SimpleMajorityRule" fill="#ffffff"><g><rect width="100%" height="40" stroke="none" fill="white" class="sc-fqkvVR eDtKfR"></rect><rect y="40" width="100%" height="0" stroke="none" fill="white" class="sc-fqkvVR eDtKfR"></rect><svg height="40"><text x="50%" y="50%" dominant-baseline="middle" text-anchor="middle" font-weight="bold" pointer-events="none">SimpleMajorityRule</text></svg><rect width="100%" height="100%" stroke="black" fill="none" class="sc-fqkvVR jAaomD"></rect></g></svg><svg x="1175" y="1375" width="160" height="40" class="LeaderDrivenRule" fill="#ffffff"><g><rect width="100%" height="40" stroke="none" fill="white" class="sc-fqkvVR eDtKfR"></rect><rect y="40" width="100%" height="0" stroke="none" fill="white" class="sc-fqkvVR eDtKfR"></rect><svg height="40"><text x="50%" y="50%" dominant-baseline="middle" text-anchor="middle" font-weight="bold" pointer-events="none">LeaderDrivenRule</text></svg><rect width="100%" height="100%" stroke="black" fill="none" class="sc-fqkvVR jAaomD"></rect></g></svg><svg x="1485" y="1285" width="160" height="50" class="Condition" fill="#ffffff"><g><rect width="100%" height="50" stroke="none" fill="white" class="sc-fqkvVR eDtKfR"></rect><rect y="50" width="100%" height="0" stroke="none" fill="white" class="sc-fqkvVR eDtKfR"></rect><svg height="50"><text x="50%" y="50%" dominant-baseline="middle" text-anchor="middle" font-weight="bold" pointer-events="none"><tspan x="50%" dy="-8" text-anchor="middle" font-size="85%">«abstract»</tspan><tspan x="50%" dy="18" text-anchor="middle" font-style="italic">Condition</tspan></text></svg><rect width="100%" height="100%" stroke="black" fill="none" class="sc-fqkvVR jAaomD"></rect></g></svg><svg x="1625" y="1465" width="170" height="100" class="Deadline" fill="#ffffff"><g><rect width="100%" height="40" stroke="none" fill="white" class="sc-fqkvVR eDtKfR"></rect><rect y="40" width="100%" height="60" stroke="none" fill="white" class="sc-fqkvVR eDtKfR"></rect><svg height="40"><text x="50%" y="50%" dominant-baseline="middle" text-anchor="middle" font-weight="bold" pointer-events="none">Deadline</text></svg><svg x="0" y="40.5" width="169" height="30" class="+ offest: timedelta" fill="#ffffff"><g><rect width="100%" height="100%" stroke="none" fill="white" class="sc-fqkvVR eDtKfR"></rect><text x="10" y="50%" dominant-baseline="middle" text-anchor="start" font-weight="normal" pointer-events="none">+ offest: timedelta</text></g></svg><svg x="0" y="70.5" width="169" height="30" class="+ date: datetime" fill="#ffffff"><g><rect width="100%" height="100%" stroke="none" fill="white" class="sc-fqkvVR eDtKfR"></rect><text x="10" y="50%" dominant-baseline="middle" text-anchor="start" font-weight="normal" pointer-events="none">+ date: datetime</text></g></svg><rect width="100%" height="100%" stroke="black" fill="none" class="sc-fqkvVR jAaomD"></rect><path d="M 0 40 H 170" stroke="black" fill="white" class="sc-gEvEer fkqzOi"></path></g></svg><svg x="595" y="1275" width="160" height="50" class="Participant" fill="#ffffff"><g><rect width="100%" height="50" stroke="none" fill="white" class="sc-fqkvVR eDtKfR"></rect><rect y="50" width="100%" height="0" stroke="none" fill="white" class="sc-fqkvVR eDtKfR"></rect><svg height="50"><text x="50%" y="50%" dominant-baseline="middle" text-anchor="middle" font-weight="bold" pointer-events="none"><tspan x="50%" dy="-8" text-anchor="middle" font-size="85%">«abstract»</tspan><tspan x="50%" dy="18" text-anchor="middle" font-style="italic">Participant</tspan></text></svg><rect width="100%" height="100%" stroke="black" fill="none" class="sc-fqkvVR jAaomD"></rect></g></svg><svg x="455" y="1425" width="160" height="40" class="Individual" fill="#ffffff"><g><rect width="100%" height="40" stroke="none" fill="white" class="sc-fqkvVR eDtKfR"></rect><rect y="40" width="100%" height="0" stroke="none" fill="white" class="sc-fqkvVR eDtKfR"></rect><svg height="40"><text x="50%" y="50%" dominant-baseline="middle" text-anchor="middle" font-weight="bold" pointer-events="none">Individual</text></svg><rect width="100%" height="100%" stroke="black" fill="none" class="sc-fqkvVR jAaomD"></rect></g></svg><svg x="735" y="1425" width="160" height="40" class="Role" fill="#ffffff"><g><rect width="100%" height="40" stroke="none" fill="white" class="sc-fqkvVR eDtKfR"></rect><rect y="40" width="100%" height="0" stroke="none" fill="white" class="sc-fqkvVR eDtKfR"></rect><svg height="40"><text x="50%" y="50%" dominant-baseline="middle" text-anchor="middle" font-weight="bold" pointer-events="none">Role</text></svg><rect width="100%" height="100%" stroke="black" fill="none" class="sc-fqkvVR jAaomD"></rect></g></svg><svg x="1595" y="1195" width="160" height="100" class="" fill="#ffffff"><g><path d="M 0 0 L 145 0 L 160 15 L 160 100 L 0 100 L 0 0 Z" stroke-width="1.2" stroke-miterlimit="10" stroke="black" fill="white" class="sc-gEvEer fkqzOi"></path><path d="M 145 0 L 145 15 L 160 15" stroke-width="1.2" stroke-miterlimit="10" stroke="black" fill="none" class="sc-gEvEer bFSwyf"></path><clipPath id="clip-50c2182b-f5a2-467b-91e7-a60bcbe019ac"><rect x="20" y="20" width="120" height="60"></rect></clipPath><g clip-path="url(#clip-50c2182b-f5a2-467b-91e7-a60bcbe019ac)"><text x="20" y="25" style="font-size: 18px; dominant-baseline: hanging;"><tspan x="20" dy="0" text-anchor="start">event-based\</tspan><tspan x="20" dy="16" text-anchor="start">veto right</tspan></text></g></g></svg><svg x="515" y="945" width="280" height="120" class="" fill="#ffffff"><g><path d="M 0 0 L 265 0 L 280 15 L 280 120 L 0 120 L 0 0 Z" stroke-width="1.2" stroke-miterlimit="10" stroke="black" fill="white" class="sc-gEvEer fkqzOi"></path><path d="M 265 0 L 265 15 L 280 15" stroke-width="1.2" stroke-miterlimit="10" stroke="black" fill="none" class="sc-gEvEer bFSwyf"></path><clipPath id="clip-0d4f1db3-f7c3-4f2a-b155-dd6a018197d8"><rect x="20" y="20" width="240" height="80"></rect></clipPath><g clip-path="url(#clip-0d4f1db3-f7c3-4f2a-b155-dd6a018197d8)"><text x="20" y="25" style="font-size: 18px; dominant-baseline: hanging;"><tspan x="20" dy="0" text-anchor="start">context PhasedPolicy
inv</tspan><tspan x="20" dy="16" text-anchor="start">OverwriteScope:
   </tspan><tspan x="20" dy="16" text-anchor="start">self.phases-&gt;forAll(p |</tspan><tspan x="20" dy="16" text-anchor="start">p.scopes = self.scopes)...</tspan></text></g></g></svg><svg x="15" y="1025" width="200" height="110" class="" fill="#ffffff"><g><path d="M 0 0 L 185 0 L 200 15 L 200 110 L 0 110 L 0 0 Z" stroke-width="1.2" stroke-miterlimit="10" stroke="black" fill="white" class="sc-gEvEer fkqzOi"></path><path d="M 185 0 L 185 15 L 200 15" stroke-width="1.2" stroke-miterlimit="10" stroke="black" fill="none" class="sc-gEvEer bFSwyf"></path><clipPath id="clip-fe48afec-b1a9-4f9f-9b1b-6814c173aafe"><rect x="20" y="20" width="160" height="70"></rect></clipPath><g clip-path="url(#clip-fe48afec-b1a9-4f9f-9b1b-6814c173aafe)"><text x="20" y="25" style="font-size: 18px; dominant-baseline: hanging;"><tspan x="20" dy="0" text-anchor="start">Relació ternaria</tspan><tspan x="20" dy="16" text-anchor="start">Scope/Role/Indivua</tspan><tspan x="20" dy="16" text-anchor="start">l</tspan></text></g></g></svg><svg x="1835" y="1405" width="210" height="140" class="" fill="#ffffff"><g><path d="M 0 0 L 195 0 L 210 15 L 210 140 L 0 140 L 0 0 Z" stroke-width="1.2" stroke-miterlimit="10" stroke="black" fill="white" class="sc-gEvEer fkqzOi"></path><path d="M 195 0 L 195 15 L 210 15" stroke-width="1.2" stroke-miterlimit="10" stroke="black" fill="none" class="sc-gEvEer bFSwyf"></path><clipPath id="clip-d8fa917c-69b2-4867-8bae-d195b20ce8ec"><rect x="20" y="20" width="170" height="100"></rect></clipPath><g clip-path="url(#clip-d8fa917c-69b2-4867-8bae-d195b20ce8ec)"><text x="20" y="25" style="font-size: 18px; dominant-baseline: hanging;"><tspan x="20" dy="0" text-anchor="start">context Deadline
inv</tspan><tspan x="20" dy="16" text-anchor="start">AtLeastOneNonNull:
 </tspan><tspan x="20" dy="16" text-anchor="start">self.offset &lt;&gt; null</tspan><tspan x="20" dy="16" text-anchor="start">or self.date &lt;&gt; null</tspan></text></g></g></svg><svg x="1335" y="1465" width="170" height="100" class="VotingCondition" fill="#ffffff"><g><rect width="100%" height="40" stroke="none" fill="white" class="sc-fqkvVR eDtKfR"></rect><rect y="40" width="100%" height="60" stroke="none" fill="white" class="sc-fqkvVR eDtKfR"></rect><svg height="40"><text x="50%" y="50%" dominant-baseline="middle" text-anchor="middle" font-weight="bold" pointer-events="none">VotingCondition</text></svg><svg x="0" y="40.5" width="169" height="30" class="+ minVotes: int" fill="#ffffff"><g><rect width="100%" height="100%" stroke="none" fill="white" class="sc-fqkvVR eDtKfR"></rect><text x="10" y="50%" dominant-baseline="middle" text-anchor="start" font-weight="normal" pointer-events="none">+ minVotes: int</text></g></svg><svg x="0" y="70.5" width="169" height="30" class="+ ratio: float" fill="#ffffff"><g><rect width="100%" height="100%" stroke="none" fill="white" class="sc-fqkvVR eDtKfR"></rect><text x="10" y="50%" dominant-baseline="middle" text-anchor="start" font-weight="normal" pointer-events="none">+ ratio: float</text></g></svg><rect width="100%" height="100%" stroke="black" fill="none" class="sc-fqkvVR jAaomD"></rect><path d="M 0 40 H 170" stroke="black" fill="white" class="sc-gEvEer fkqzOi"></path></g></svg><svg x="1065" y="1545" width="180" height="40" class="AbsoluteMajorityRule" fill="#ffffff"><g><rect width="100%" height="40" stroke="none" fill="white" class="sc-fqkvVR eDtKfR"></rect><rect y="40" width="100%" height="0" stroke="none" fill="white" class="sc-fqkvVR eDtKfR"></rect><svg height="40"><text x="50%" y="50%" dominant-baseline="middle" text-anchor="middle" font-weight="bold" pointer-events="none">AbsoluteMajorityRule</text></svg><rect width="100%" height="100%" stroke="black" fill="none" class="sc-fqkvVR jAaomD"></rect></g></svg><svg x="1245" y="335" width="300" height="190" class="MergePR" fill="#ffffff"><g><rect width="100%" height="40" stroke="none" fill="white" class="sc-fqkvVR eDtKfR"></rect><rect y="40" width="100%" height="150" stroke="none" fill="white" class="sc-fqkvVR eDtKfR"></rect><svg height="40"><text x="50%" y="50%" dominant-baseline="middle" text-anchor="middle" font-weight="bold" pointer-events="none">MergePR</text></svg><svg x="0" y="40.5" width="299" height="30" class="+ author_association: AssociationEnum" fill="#ffffff"><g><rect width="100%" height="100%" stroke="none" fill="white" class="sc-fqkvVR eDtKfR"></rect><text x="10" y="50%" dominant-baseline="middle" text-anchor="start" font-weight="normal" pointer-events="none">+ author_association: AssociationEnum</text></g></svg><svg x="0" y="70.5" width="299" height="30" class="+ open_issues: bool" fill="#ffffff"><g><rect width="100%" height="100%" stroke="none" fill="white" class="sc-fqkvVR eDtKfR"></rect><text x="10" y="50%" dominant-baseline="middle" text-anchor="start" font-weight="normal" pointer-events="none">+ open_issues: bool</text></g></svg><svg x="0" y="100.5" width="299" height="30" class="+ mergeable: bool" fill="#ffffff"><g><rect width="100%" height="100%" stroke="none" fill="white" class="sc-fqkvVR eDtKfR"></rect><text x="10" y="50%" dominant-baseline="middle" text-anchor="start" font-weight="normal" pointer-events="none">+ mergeable: bool</text></g></svg><svg x="0" y="130.5" width="299" height="30" class="+ locked: bool" fill="#ffffff"><g><rect width="100%" height="100%" stroke="none" fill="white" class="sc-fqkvVR eDtKfR"></rect><text x="10" y="50%" dominant-baseline="middle" text-anchor="start" font-weight="normal" pointer-events="none">+ locked: bool</text></g></svg><svg x="0" y="160.5" width="299" height="30" class="+ assignee/reviewer: User" fill="#fd9644"><g><rect width="100%" height="100%" stroke="none" fill="#fd9644" class="sc-fqkvVR gCkmLY"></rect><text x="10" y="50%" dominant-baseline="middle" text-anchor="start" font-weight="normal" pointer-events="none">+ assignee/reviewer: User</text></g></svg><rect width="100%" height="100%" stroke="black" fill="none" class="sc-fqkvVR jAaomD"></rect><path d="M 0 40 H 300" stroke="black" fill="white" class="sc-gEvEer fkqzOi"></path></g></svg><svg x="265" y="1025" width="160" height="70" class="hasRole" fill="#ffffff"><g><rect width="100%" height="40" stroke="none" fill="white" class="sc-fqkvVR eDtKfR"></rect><rect y="40" width="100%" height="30" stroke="none" fill="white" class="sc-fqkvVR eDtKfR"></rect><svg height="40"><text x="50%" y="50%" dominant-baseline="middle" text-anchor="middle" font-weight="bold" pointer-events="none">hasRole</text></svg><svg x="0" y="40.5" width="159" height="30" class="+ attribute: Type" fill="#ffffff"><g><rect width="100%" height="100%" stroke="none" fill="white" class="sc-fqkvVR eDtKfR"></rect><text x="10" y="50%" dominant-baseline="middle" text-anchor="start" font-weight="normal" pointer-events="none">+ attribute: Type</text></g></svg><rect width="100%" height="100%" stroke="black" fill="none" class="sc-fqkvVR jAaomD"></rect><path d="M 0 40 H 160" stroke="black" fill="white" class="sc-gEvEer fkqzOi"></path></g></svg><svg x="1285" y="1675" width="210" height="140" class="" fill="#ffffff"><g><path d="M 0 0 L 195 0 L 210 15 L 210 140 L 0 140 L 0 0 Z" stroke-width="1.2" stroke-miterlimit="10" stroke="black" fill="white" class="sc-gEvEer fkqzOi"></path><path d="M 195 0 L 195 15 L 210 15" stroke-width="1.2" stroke-miterlimit="10" stroke="black" fill="none" class="sc-gEvEer bFSwyf"></path><clipPath id="clip-c1401b85-28e5-4621-b3cd-00598a736f5d"><rect x="20" y="20" width="170" height="100"></rect></clipPath><g clip-path="url(#clip-c1401b85-28e5-4621-b3cd-00598a736f5d)"><text x="20" y="25" style="font-size: 18px; dominant-baseline: hanging;"><tspan x="20" dy="0" text-anchor="start">context</tspan><tspan x="20" dy="16" text-anchor="start">VotingCondition
inv</tspan><tspan x="20" dy="16" text-anchor="start">minVotesPositive:
  </tspan><tspan x="20" dy="16" text-anchor="start">self.minVotes &gt;= 0 </tspan></text></g></g></svg><svg x="1515" y="1675" width="210" height="140" class="" fill="#ffffff"><g><path d="M 0 0 L 195 0 L 210 15 L 210 140 L 0 140 L 0 0 Z" stroke-width="1.2" stroke-miterlimit="10" stroke="black" fill="white" class="sc-gEvEer fkqzOi"></path><path d="M 195 0 L 195 15 L 210 15" stroke-width="1.2" stroke-miterlimit="10" stroke="black" fill="none" class="sc-gEvEer bFSwyf"></path><clipPath id="clip-de80e449-b4fa-4a47-adfd-445ebdfeff2d"><rect x="20" y="20" width="170" height="100"></rect></clipPath><g clip-path="url(#clip-de80e449-b4fa-4a47-adfd-445ebdfeff2d)"><text x="20" y="25" style="font-size: 18px; dominant-baseline: hanging;"><tspan x="20" dy="0" text-anchor="start">context</tspan><tspan x="20" dy="16" text-anchor="start">VotingCondition
inv</tspan><tspan x="20" dy="16" text-anchor="start">ratioDecimal:
   </tspan><tspan x="20" dy="16" text-anchor="start">self.ratio &gt;= 0 and</tspan><tspan x="20" dy="16" text-anchor="start">self.ratio &lt;= 1 </tspan></text></g></g></svg><svg x="1025" y="185" width="160" height="70" class="Label" fill="#ffffff"><g><rect width="100%" height="40" stroke="none" fill="white" class="sc-fqkvVR eDtKfR"></rect><rect y="40" width="100%" height="30" stroke="none" fill="white" class="sc-fqkvVR eDtKfR"></rect><svg height="40"><text x="50%" y="50%" dominant-baseline="middle" text-anchor="middle" font-weight="bold" pointer-events="none">Label</text></svg><svg x="0" y="40.5" width="159" height="30" class="+ name: str" fill="#ffffff"><g><rect width="100%" height="100%" stroke="none" fill="white" class="sc-fqkvVR eDtKfR"></rect><text x="10" y="50%" dominant-baseline="middle" text-anchor="start" font-weight="normal" pointer-events="none">+ name: str</text></g></svg><rect width="100%" height="100%" stroke="black" fill="none" class="sc-fqkvVR jAaomD"></rect><path d="M 0 40 H 160" stroke="black" fill="white" class="sc-gEvEer fkqzOi"></path></g></svg><svg x="995" y="455" width="160" height="100" class="Milestone" fill="#ffffff"><g><rect width="100%" height="40" stroke="none" fill="white" class="sc-fqkvVR eDtKfR"></rect><rect y="40" width="100%" height="60" stroke="none" fill="white" class="sc-fqkvVR eDtKfR"></rect><svg height="40"><text x="50%" y="50%" dominant-baseline="middle" text-anchor="middle" font-weight="bold" pointer-events="none">Milestone</text></svg><svg x="0" y="40.5" width="159" height="30" class="+ name: str" fill="#ffffff"><g><rect width="100%" height="100%" stroke="none" fill="white" class="sc-fqkvVR eDtKfR"></rect><text x="10" y="50%" dominant-baseline="middle" text-anchor="start" font-weight="normal" pointer-events="none">+ name: str</text></g></svg><svg x="0" y="70.5" width="159" height="30" class="+ open_issues: bool" fill="#ffffff"><g><rect width="100%" height="100%" stroke="none" fill="white" class="sc-fqkvVR eDtKfR"></rect><text x="10" y="50%" dominant-baseline="middle" text-anchor="start" font-weight="normal" pointer-events="none">+ open_issues: bool</text></g></svg><rect width="100%" height="100%" stroke="black" fill="none" class="sc-fqkvVR jAaomD"></rect><path d="M 0 40 H 160" stroke="black" fill="white" class="sc-gEvEer fkqzOi"></path></g></svg><svg x="1575" y="15" width="240" height="290" class="AssociationEnum" fill="#ffffff"><g><rect width="100%" height="50" stroke="none" fill="white" class="sc-fqkvVR eDtKfR"></rect><rect y="50" width="100%" height="240" stroke="none" fill="white" class="sc-fqkvVR eDtKfR"></rect><svg height="50"><text x="50%" y="50%" dominant-baseline="middle" text-anchor="middle" font-weight="bold" pointer-events="none"><tspan x="50%" dy="-8" text-anchor="middle" font-size="85%">«enumeration»</tspan><tspan x="50%" dy="18" text-anchor="middle">AssociationEnum</tspan></text></svg><svg x="0" y="50.5" width="239" height="30" class="COLLABORATOR" fill="#ffffff"><g><rect width="100%" height="100%" stroke="none" fill="white" class="sc-fqkvVR eDtKfR"></rect><text x="10" y="50%" dominant-baseline="middle" text-anchor="start" font-weight="normal" pointer-events="none">COLLABORATOR</text></g></svg><svg x="0" y="80.5" width="239" height="30" class="CONTRIBUTOR" fill="#ffffff"><g><rect width="100%" height="100%" stroke="none" fill="white" class="sc-fqkvVR eDtKfR"></rect><text x="10" y="50%" dominant-baseline="middle" text-anchor="start" font-weight="normal" pointer-events="none">CONTRIBUTOR</text></g></svg><svg x="0" y="110.5" width="239" height="30" class="FIRST_TIMER" fill="#ffffff"><g><rect width="100%" height="100%" stroke="none" fill="white" class="sc-fqkvVR eDtKfR"></rect><text x="10" y="50%" dominant-baseline="middle" text-anchor="start" font-weight="normal" pointer-events="none">FIRST_TIMER</text></g></svg><svg x="0" y="140.5" width="239" height="30" class="FIRST_TIME_CONTRIBUTOR" fill="#ffffff"><g><rect width="100%" height="100%" stroke="none" fill="white" class="sc-fqkvVR eDtKfR"></rect><text x="10" y="50%" dominant-baseline="middle" text-anchor="start" font-weight="normal" pointer-events="none">FIRST_TIME_CONTRIBUTOR</text></g></svg><svg x="0" y="170.5" width="239" height="30" class="MANNEQUIN" fill="#ffffff"><g><rect width="100%" height="100%" stroke="none" fill="white" class="sc-fqkvVR eDtKfR"></rect><text x="10" y="50%" dominant-baseline="middle" text-anchor="start" font-weight="normal" pointer-events="none">MANNEQUIN</text></g></svg><svg x="0" y="200.5" width="239" height="30" class="MEMBER" fill="#ffffff"><g><rect width="100%" height="100%" stroke="none" fill="white" class="sc-fqkvVR eDtKfR"></rect><text x="10" y="50%" dominant-baseline="middle" text-anchor="start" font-weight="normal" pointer-events="none">MEMBER</text></g></svg><svg x="0" y="230.5" width="239" height="30" class="NONE" fill="#ffffff"><g><rect width="100%" height="100%" stroke="none" fill="white" class="sc-fqkvVR eDtKfR"></rect><text x="10" y="50%" dominant-baseline="middle" text-anchor="start" font-weight="normal" pointer-events="none">NONE</text></g></svg><svg x="0" y="260.5" width="239" height="30" class="OWNER" fill="#ffffff"><g><rect width="100%" height="100%" stroke="none" fill="white" class="sc-fqkvVR eDtKfR"></rect><text x="10" y="50%" dominant-baseline="middle" text-anchor="start" font-weight="normal" pointer-events="none">OWNER</text></g></svg><rect width="100%" height="100%" stroke="black" fill="none" class="sc-fqkvVR jAaomD"></rect><path d="M 0 50 H 240" stroke="black" fill="white" class="sc-gEvEer fkqzOi"></path></g></svg><svg x="1565" y="385" width="300" height="100" class="PRReview" fill="#ffffff"><g><rect width="100%" height="40" stroke="none" fill="white" class="sc-fqkvVR eDtKfR"></rect><rect y="40" width="100%" height="60" stroke="none" fill="white" class="sc-fqkvVR eDtKfR"></rect><svg height="40"><text x="50%" y="50%" dominant-baseline="middle" text-anchor="middle" font-weight="bold" pointer-events="none">PRReview</text></svg><svg x="0" y="40.5" width="299" height="30" class="+ author_association: AssociationEnum" fill="#ffffff"><g><rect width="100%" height="100%" stroke="none" fill="white" class="sc-fqkvVR eDtKfR"></rect><text x="10" y="50%" dominant-baseline="middle" text-anchor="start" font-weight="normal" pointer-events="none">+ author_association: AssociationEnum</text></g></svg><svg x="0" y="70.5" width="299" height="30" class="+ review_state: ReviewStateEnum" fill="#ffffff"><g><rect width="100%" height="100%" stroke="none" fill="white" class="sc-fqkvVR eDtKfR"></rect><text x="10" y="50%" dominant-baseline="middle" text-anchor="start" font-weight="normal" pointer-events="none">+ review_state: ReviewStateEnum</text></g></svg><rect width="100%" height="100%" stroke="black" fill="none" class="sc-fqkvVR jAaomD"></rect><path d="M 0 40 H 300" stroke="black" fill="white" class="sc-gEvEer fkqzOi"></path></g></svg><svg x="1825" y="15" width="240" height="140" class="ReviewStateEnum" fill="#ffffff"><g><rect width="100%" height="50" stroke="none" fill="white" class="sc-fqkvVR eDtKfR"></rect><rect y="50" width="100%" height="90" stroke="none" fill="white" class="sc-fqkvVR eDtKfR"></rect><svg height="50"><text x="50%" y="50%" dominant-baseline="middle" text-anchor="middle" font-weight="bold" pointer-events="none"><tspan x="50%" dy="-8" text-anchor="middle" font-size="85%">«enumeration»</tspan><tspan x="50%" dy="18" text-anchor="middle">ReviewStateEnum</tspan></text></svg><svg x="0" y="50.5" width="239" height="30" class="DISMISSED" fill="#ffffff"><g><rect width="100%" height="100%" stroke="none" fill="white" class="sc-fqkvVR eDtKfR"></rect><text x="10" y="50%" dominant-baseline="middle" text-anchor="start" font-weight="normal" pointer-events="none">DISMISSED</text></g></svg><svg x="0" y="80.5" width="239" height="30" class="APPROVED" fill="#ffffff"><g><rect width="100%" height="100%" stroke="none" fill="white" class="sc-fqkvVR eDtKfR"></rect><text x="10" y="50%" dominant-baseline="middle" text-anchor="start" font-weight="normal" pointer-events="none">APPROVED</text></g></svg><svg x="0" y="110.5" width="239" height="30" class="CHANGES_REQUESTED" fill="#ffffff"><g><rect width="100%" height="100%" stroke="none" fill="white" class="sc-fqkvVR eDtKfR"></rect><text x="10" y="50%" dominant-baseline="middle" text-anchor="start" font-weight="normal" pointer-events="none">CHANGES_REQUESTED</text></g></svg><rect width="100%" height="100%" stroke="black" fill="none" class="sc-fqkvVR jAaomD"></rect><path d="M 0 50 H 240" stroke="black" fill="white" class="sc-gEvEer fkqzOi"></path></g></svg><svg x="890" y="965" width="160" height="120" class="" fill="#ffffff"><g><marker id="marker-5f8f3ec2-13d0-4c67-bd74-f9e5631a5145" viewBox="0 0 30 30" markerWidth="22" markerHeight="30" refX="30" refY="15" orient="auto" markerUnits="strokeWidth"><path d="M0,1 L0,29 L30,15 z" stroke="black" fill="white" class="sc-gEvEer fkqzOi"></path></marker><polyline points="5 120,5 60,155 60,155 0" stroke-width="1" marker-end="url(#marker-5f8f3ec2-13d0-4c67-bd74-f9e5631a5145)" stroke="black" fill="none" class="sc-aXZVg eMElBf"></polyline></g></svg><svg x="1040" y="965" width="140" height="120" class="" fill="#ffffff"><g><marker id="marker-286ed6bc-a137-4a3e-b55f-274267232487" viewBox="0 0 30 30" markerWidth="22" markerHeight="30" refX="30" refY="15" orient="auto" markerUnits="strokeWidth"><path d="M0,1 L0,29 L30,15 z" stroke="black" fill="white" class="sc-gEvEer fkqzOi"></path></marker><polyline points="135 120,135 60,5 60,5 0" stroke-width="1" marker-end="url(#marker-286ed6bc-a137-4a3e-b55f-274267232487)" stroke="black" fill="none" class="sc-aXZVg eMElBf"></polyline></g></svg><svg x="850" y="942.5" width="115" height="142.5" class="" fill="#ffffff"><g><marker id="marker-f27a7c9b-6cf6-4857-9d33-024f6b9594aa" viewBox="0 0 30 30" markerWidth="30" markerHeight="30" refX="30" refY="15" orient="auto" markerUnits="strokeWidth"><path d="M0,15 L15,22 L30,15 L15,8 z" stroke="white" fill="black" class="sc-eqUAAy dLsBSg"></path></marker><polyline points="115 10,5 10,5 142.5" stroke-width="1" marker-end="url(#marker-f27a7c9b-6cf6-4857-9d33-024f6b9594aa)" stroke="black" fill="none" class="sc-aXZVg eMElBf"></polyline><text x="107" y="10" dy="21" text-anchor="end" pointer-events="none">1..*</text><text x="5" y="111.5" dx="5" text-anchor="start" pointer-events="none"></text><text x="107" y="10" dy="-10" text-anchor="end" pointer-events="none">phases</text><text x="5" y="111.5" dx="-5" text-anchor="end" pointer-events="none"></text></g></svg><svg x="1004.2999992370605" y="805" width="87.4000015258789" height="119.60000038146973" class="" fill="#ffffff"><g><polyline points="55.70000076293945 110,55.70000076293945 0" stroke-width="1" marker-end="url(#marker-8ccff8a0-30eb-47dd-8190-a77f0452d246)" stroke="black" fill="none" class="sc-aXZVg eMElBf"></polyline><text x="55.70000076293945" y="102" dx="5" text-anchor="start" pointer-events="none">0..1</text><text x="55.70000076293945" y="8" dx="5" dy="10" text-anchor="start" pointer-events="none">1..*</text><text x="55.70000076293945" y="102" dx="-5" text-anchor="end" pointer-events="none"></text><text x="55.70000076293945" y="8" dx="-5" dy="10" text-anchor="end" pointer-events="none">scopes</text></g></svg><svg x="800" y="675" width="280" height="80" class="" fill="#ffffff"><g><marker id="marker-157eb903-0ba6-4f9c-89d4-20702143f6f6" viewBox="0 0 30 30" markerWidth="22" markerHeight="30" refX="30" refY="15" orient="auto" markerUnits="strokeWidth"><path d="M0,1 L0,29 L30,15 z" stroke="black" fill="white" class="sc-gEvEer fkqzOi"></path></marker><polyline points="5 0,5 40,275 40,275 80" stroke-width="1" marker-end="url(#marker-157eb903-0ba6-4f9c-89d4-20702143f6f6)" stroke="black" fill="none" class="sc-aXZVg eMElBf"></polyline></g></svg><svg x="1070" y="675" width="10" height="80" class="" fill="#ffffff"><g><marker id="marker-6dea2d97-3117-4a39-845d-f570a81e82dd" viewBox="0 0 30 30" markerWidth="22" markerHeight="30" refX="30" refY="15" orient="auto" markerUnits="strokeWidth"><path d="M0,1 L0,29 L30,15 z" stroke="black" fill="white" class="sc-gEvEer fkqzOi"></path></marker><polyline points="5 0,5 80" stroke-width="1" marker-end="url(#marker-6dea2d97-3117-4a39-845d-f570a81e82dd)" stroke="black" fill="none" class="sc-aXZVg eMElBf"></polyline></g></svg><svg x="1070" y="675" width="280" height="80" class="" fill="#ffffff"><g><marker id="marker-60753d61-dd1a-4e1f-a8a6-061f15243a35" viewBox="0 0 30 30" markerWidth="22" markerHeight="30" refX="30" refY="15" orient="auto" markerUnits="strokeWidth"><path d="M0,1 L0,29 L30,15 z" stroke="black" fill="white" class="sc-gEvEer fkqzOi"></path></marker><polyline points="275 0,275 40,5 40,5 80" stroke-width="1" marker-end="url(#marker-60753d61-dd1a-4e1f-a8a6-061f15243a35)" stroke="black" fill="none" class="sc-aXZVg eMElBf"></polyline></g></svg><svg x="885" y="645" width="110" height="48.60000038146973" class="" fill="#ffffff"><g><polyline points="0 10,110 10" stroke-width="1" marker-end="url(#marker-d2457474-2347-48f5-8a7c-9a4bb8335ed9)" stroke="black" fill="none" class="sc-aXZVg eMElBf"></polyline><text x="8" y="10" dy="21" text-anchor="start" pointer-events="none">0..1</text><text x="102" y="10" dy="21" text-anchor="end" pointer-events="none">0..*</text><text x="8" y="10" dy="-10" text-anchor="start" pointer-events="none"></text><text x="102" y="10" dy="-10" text-anchor="end" pointer-events="none"></text></g></svg><svg x="1155" y="645" width="110" height="48.60000038146973" class="" fill="#ffffff"><g><polyline points="0 10,110 10" stroke-width="1" marker-end="url(#marker-b6dac2b5-4561-4051-a59e-7a8cd37991a5)" stroke="black" fill="none" class="sc-aXZVg eMElBf"></polyline><text x="8" y="10" dy="21" text-anchor="start" pointer-events="none">0..1</text><text x="102" y="10" dy="21" text-anchor="end" pointer-events="none">0..*</text><text x="8" y="10" dy="-10" text-anchor="start" pointer-events="none"></text><text x="102" y="10" dy="-10" text-anchor="end" pointer-events="none"></text></g></svg><svg x="1015" y="1415" width="10" height="130" class="" fill="#ffffff"><g><marker id="marker-6504bcf7-d014-4d97-95e0-786dee6b1c23" viewBox="0 0 30 30" markerWidth="22" markerHeight="30" refX="30" refY="15" orient="auto" markerUnits="strokeWidth"><path d="M0,1 L0,29 L30,15 z" stroke="black" fill="white" class="sc-gEvEer fkqzOi"></path></marker><polyline points="5 130,5 0" stroke-width="1" marker-end="url(#marker-6504bcf7-d014-4d97-95e0-786dee6b1c23)" stroke="black" fill="none" class="sc-aXZVg eMElBf"></polyline></g></svg><svg x="1110" y="1315" width="10" height="60" class="" fill="#ffffff"><g><marker id="marker-cbd11c6d-5cab-4306-9fde-f95e05d8a579" viewBox="0 0 30 30" markerWidth="22" markerHeight="30" refX="30" refY="15" orient="auto" markerUnits="strokeWidth"><path d="M0,1 L0,29 L30,15 z" stroke="black" fill="white" class="sc-gEvEer fkqzOi"></path></marker><polyline points="5 60,5 0" stroke-width="1" marker-end="url(#marker-cbd11c6d-5cab-4306-9fde-f95e05d8a579)" stroke="black" fill="none" class="sc-aXZVg eMElBf"></polyline></g></svg><svg x="1205" y="1315" width="10" height="60" class="" fill="#ffffff"><g><marker id="marker-ea395d72-d280-4097-b791-593510068b11" viewBox="0 0 30 30" markerWidth="22" markerHeight="30" refX="30" refY="15" orient="auto" markerUnits="strokeWidth"><path d="M0,1 L0,29 L30,15 z" stroke="black" fill="white" class="sc-gEvEer fkqzOi"></path></marker><polyline points="5 60,5 0" stroke-width="1" marker-end="url(#marker-ea395d72-d280-4097-b791-593510068b11)" stroke="black" fill="none" class="sc-aXZVg eMElBf"></polyline></g></svg><svg x="1245" y="1292.5" width="79.03333282470703" height="92.10000038146973" class="" fill="#ffffff"><g><polyline points="50 82.5,50 10,0 10" stroke-width="1" marker-end="url(#marker-871d0cd8-ac46-47ab-b775-1e8a8e906721)" stroke="black" fill="none" class="sc-aXZVg eMElBf"></polyline><text x="50" y="74.5" dx="5" text-anchor="start" pointer-events="none">0..*</text><text x="8" y="10" dy="21" text-anchor="start" pointer-events="none">1..1</text><text x="50" y="74.5" dx="-5" text-anchor="end" pointer-events="none"></text><text x="8" y="10" dy="-10" text-anchor="start" pointer-events="none">default</text></g></svg><svg x="1560" y="1335" width="155" height="130" class="" fill="#ffffff"><g><marker id="marker-f0084298-91f0-45c1-aaf0-7f040fdf8dc0" viewBox="0 0 30 30" markerWidth="22" markerHeight="30" refX="30" refY="15" orient="auto" markerUnits="strokeWidth"><path d="M0,1 L0,29 L30,15 z" stroke="black" fill="white" class="sc-gEvEer fkqzOi"></path></marker><polyline points="150 130,150 65,5 65,5 0" stroke-width="1" marker-end="url(#marker-f0084298-91f0-45c1-aaf0-7f040fdf8dc0)" stroke="black" fill="none" class="sc-aXZVg eMElBf"></polyline></g></svg><svg x="1200" y="1225" width="354.03333282470703" height="69.60000038146973" class="" fill="#ffffff"><g><polyline points="325 60,325 0,5 0,5 40" stroke-width="1" marker-end="url(#marker-e0af3939-eaa5-4271-be8a-42a95d470267)" stroke="black" fill="none" class="sc-aXZVg eMElBf"></polyline><text x="325" y="52" dx="5" text-anchor="start" pointer-events="none">0..*</text><text x="5" y="32" dx="5" text-anchor="start" pointer-events="none">1..1</text><text x="325" y="52" dx="-5" text-anchor="end" pointer-events="none">conditions</text><text x="5" y="32" dx="-5" text-anchor="end" pointer-events="none"></text></g></svg><svg x="1130.316665649414" y="1125" width="68.71666717529297" height="149.60000038146973" class="" fill="#ffffff"><g><polyline points="39.68333435058594 140,39.68333435058594 0" stroke-width="1" marker-end="url(#marker-11799a9d-fb91-423e-9dbd-33f9a499a046)" stroke="black" fill="none" class="sc-aXZVg eMElBf"></polyline><text x="39.68333435058594" y="132" dx="5" text-anchor="start" pointer-events="none">1..*</text><text x="39.68333435058594" y="8" dx="5" dy="10" text-anchor="start" pointer-events="none">0..*</text><text x="39.68333435058594" y="132" dx="-5" text-anchor="end" pointer-events="none">rules</text><text x="39.68333435058594" y="8" dx="-5" dy="10" text-anchor="end" pointer-events="none"></text></g></svg><svg x="530" y="1325" width="150" height="100" class="" fill="#ffffff"><g><marker id="marker-2c74f263-9364-4207-94c2-c4db4cbc6f4b" viewBox="0 0 30 30" markerWidth="22" markerHeight="30" refX="30" refY="15" orient="auto" markerUnits="strokeWidth"><path d="M0,1 L0,29 L30,15 z" stroke="black" fill="white" class="sc-gEvEer fkqzOi"></path></marker><polyline points="5 100,5 50,145 50,145 0" stroke-width="1" marker-end="url(#marker-2c74f263-9364-4207-94c2-c4db4cbc6f4b)" stroke="black" fill="none" class="sc-aXZVg eMElBf"></polyline></g></svg><svg x="670" y="1325" width="150" height="100" class="" fill="#ffffff"><g><marker id="marker-e03a790b-1233-4948-bfe6-246829d7368b" viewBox="0 0 30 30" markerWidth="22" markerHeight="30" refX="30" refY="15" orient="auto" markerUnits="strokeWidth"><path d="M0,1 L0,29 L30,15 z" stroke="black" fill="white" class="sc-gEvEer fkqzOi"></path></marker><polyline points="145 100,145 50,5 50,5 0" stroke-width="1" marker-end="url(#marker-e03a790b-1233-4948-bfe6-246829d7368b)" stroke="black" fill="none" class="sc-aXZVg eMElBf"></polyline></g></svg><svg x="755" y="1285" width="330" height="48.60000038146973" class="" fill="#ffffff"><g><polyline points="0 10,330 10" stroke-width="1" marker-end="url(#marker-e6ccbc69-8b82-4397-80e0-7582b982b0ae)" stroke="black" fill="none" class="sc-aXZVg eMElBf"></polyline><text x="8" y="10" dy="21" text-anchor="start" pointer-events="none">1..*</text><text x="322" y="10" dy="21" text-anchor="end" pointer-events="none">0..*</text><text x="8" y="10" dy="-10" text-anchor="start" pointer-events="none">participants</text><text x="322" y="10" dy="-10" text-anchor="end" pointer-events="none"></text></g></svg><svg x="1415" y="1335" width="155" height="130" class="" fill="#ffffff"><g><marker id="marker-d49aa1e8-f0cf-4f7b-909b-03b7c9b33939" viewBox="0 0 30 30" markerWidth="22" markerHeight="30" refX="30" refY="15" orient="auto" markerUnits="strokeWidth"><path d="M0,1 L0,29 L30,15 z" stroke="black" fill="white" class="sc-gEvEer fkqzOi"></path></marker><polyline points="5 130,5 65,150 65,150 0" stroke-width="1" marker-end="url(#marker-d49aa1e8-f0cf-4f7b-909b-03b7c9b33939)" stroke="black" fill="none" class="sc-aXZVg eMElBf"></polyline></g></svg><svg x="1100" y="1415" width="10" height="130" class="" fill="#ffffff"><g><marker id="marker-2945c7e7-0e19-4536-8531-1cacc0493f7a" viewBox="0 0 30 30" markerWidth="22" markerHeight="30" refX="30" refY="15" orient="auto" markerUnits="strokeWidth"><path d="M0,1 L0,29 L30,15 z" stroke="black" fill="white" class="sc-gEvEer fkqzOi"></path></marker><polyline points="5 130,5 0" stroke-width="1" marker-end="url(#marker-2945c7e7-0e19-4536-8531-1cacc0493f7a)" stroke="black" fill="none" class="sc-aXZVg eMElBf"></polyline></g></svg><svg x="1340" y="525" width="10" height="110" class="" fill="#ffffff"><g><marker id="marker-23a1a6b4-5e98-4c2b-be73-b9677352a47b" viewBox="0 0 30 30" markerWidth="22" markerHeight="30" refX="30" refY="15" orient="auto" markerUnits="strokeWidth"><path d="M0,1 L0,29 L30,15 z" stroke="black" fill="white" class="sc-gEvEer fkqzOi"></path></marker><polyline points="5 0,5 110" stroke-width="1" marker-end="url(#marker-23a1a6b4-5e98-4c2b-be73-b9677352a47b)" stroke="black" fill="none" class="sc-aXZVg eMElBf"></polyline></g></svg><svg x="380" y="1095" width="75" height="388.6000003814697" class="" fill="#ffffff"><g><polyline points="75 350,5 350,5 0" stroke-width="1" marker-end="url(#marker-0dfd8378-975e-45b6-9857-34f73c5c8c0f)" stroke="black" fill="none" class="sc-aXZVg eMElBf"></polyline><text x="67" y="350" dy="21" text-anchor="end" pointer-events="none">1..1</text><text x="5" y="8" dx="5" dy="10" text-anchor="start" pointer-events="none">1..1</text><text x="67" y="350" dy="-10" text-anchor="end" pointer-events="none">individual</text><text x="5" y="8" dx="-5" dy="10" text-anchor="end" pointer-events="none"></text></g></svg><svg x="300" y="1095" width="506.70000076293945" height="410" class="" fill="#ffffff"><g><polyline points="475 370,475 410,5 410,5 0" stroke-width="1" marker-end="url(#marker-217eff10-8e66-4389-9fcc-aca59ec6352d)" stroke="black" fill="none" class="sc-aXZVg eMElBf"></polyline><text x="475" y="378" dx="5" dy="10" text-anchor="start" pointer-events="none">1..1</text><text x="5" y="8" dx="5" dy="10" text-anchor="start" pointer-events="none">0..*</text><text x="475" y="378" dx="-5" dy="10" text-anchor="end" pointer-events="none">role</text><text x="5" y="8" dx="-5" dy="10" text-anchor="end" pointer-events="none"></text></g></svg><svg x="340" y="770" width="655" height="264.6000003814697" class="" fill="#ffffff"><g><polyline points="655 10,5 10,5 255" stroke-width="1" marker-end="url(#marker-92dd73f7-eadf-4691-ab4e-ac8a4b6ebd45)" stroke="black" fill="none" class="sc-aXZVg eMElBf"></polyline><text x="647" y="10" dy="21" text-anchor="end" pointer-events="none">1..1</text><text x="5" y="247" dx="5" text-anchor="start" pointer-events="none">0..*</text><text x="647" y="10" dy="-10" text-anchor="end" pointer-events="none">scope</text><text x="5" y="247" dx="-5" text-anchor="end" pointer-events="none"></text></g></svg><svg x="1795" y="1495" width="40" height="31" class="" fill="#ffffff"><g><polyline points="40 10,0 10" stroke-width="1" marker-end="url(#marker-fa473861-5842-4eeb-bd91-30de4adc179c)" stroke-dasharray="5,5" stroke="black" fill="none" class="sc-aXZVg eMElBf"></polyline><text x="32" y="10" dy="21" text-anchor="end" pointer-events="none"></text><text x="8" y="10" dy="21" text-anchor="start" pointer-events="none"></text><text x="32" y="10" dy="-10" text-anchor="end" pointer-events="none"></text><text x="8" y="10" dy="-10" text-anchor="start" pointer-events="none"></text></g></svg><svg x="1457.5" y="1565" width="115" height="110" class="" fill="#ffffff"><g><polyline points="110 110,110 55,5 55,5 0" stroke-width="1" marker-end="url(#marker-46f87f64-1ca1-449b-843b-4cf11acf6aec)" stroke-dasharray="5,5" stroke="black" fill="none" class="sc-aXZVg eMElBf"></polyline><text x="110" y="102" dx="5" text-anchor="start" pointer-events="none"></text><text x="5" y="8" dx="5" dy="10" text-anchor="start" pointer-events="none"></text><text x="110" y="102" dx="-5" text-anchor="end" pointer-events="none"></text><text x="5" y="8" dx="-5" dy="10" text-anchor="end" pointer-events="none"></text></g></svg><svg x="1410" y="1565" width="10" height="110" class="" fill="#ffffff"><g><polyline points="5 110,5 0" stroke-width="1" marker-end="url(#marker-8f3b3d23-fbf3-4aa7-8daf-1d2cdc1d2dad)" stroke-dasharray="5,5" stroke="black" fill="none" class="sc-aXZVg eMElBf"></polyline><text x="5" y="102" dx="5" text-anchor="start" pointer-events="none"></text><text x="5" y="8" dx="5" dy="10" text-anchor="start" pointer-events="none"></text><text x="5" y="102" dx="-5" text-anchor="end" pointer-events="none"></text><text x="5" y="8" dx="-5" dy="10" text-anchor="end" pointer-events="none"></text></g></svg><svg x="720" y="1065" width="95" height="61" class="" fill="#ffffff"><g><polyline points="5 0,5 40,95 40" stroke-width="1" marker-end="url(#marker-14828723-8e6a-45e7-b7a8-186a150e1746)" stroke-dasharray="5,5" stroke="black" fill="none" class="sc-aXZVg eMElBf"></polyline><text x="5" y="8" dx="5" dy="10" text-anchor="start" pointer-events="none"></text><text x="87" y="40" dy="21" text-anchor="end" pointer-events="none"></text><text x="5" y="8" dx="-5" dy="10" text-anchor="end" pointer-events="none"></text><text x="87" y="40" dy="-10" text-anchor="end" pointer-events="none"></text></g></svg><svg x="1098.2000007629395" y="255" width="250.83333206176758" height="89.60000038146973" class="" fill="#ffffff"><g><polyline points="221.79999923706055 80,221.79999923706055 40,46.79999923706055 40,46.79999923706055 0" stroke-width="1" marker-end="url(#marker-8b890385-548f-4899-aac1-075b4433d8c0)" stroke="black" fill="none" class="sc-aXZVg eMElBf"></polyline><text x="221.79999923706055" y="72" dx="5" text-anchor="start" pointer-events="none">0..*</text><text x="46.79999923706055" y="8" dx="5" dy="10" text-anchor="start" pointer-events="none">0..*</text><text x="221.79999923706055" y="72" dx="-5" text-anchor="end" pointer-events="none"></text><text x="46.79999923706055" y="8" dx="-5" dy="10" text-anchor="end" pointer-events="none">labels</text></g></svg><svg x="1070" y="555" width="10" height="80" class="" fill="#ffffff"><g><marker id="marker-81dc9c2e-27e2-44f3-b1c7-e20b6212b95f" viewBox="0 0 30 30" markerWidth="22" markerHeight="30" refX="30" refY="15" orient="auto" markerUnits="strokeWidth"><path d="M0,1 L0,29 L30,15 z" stroke="black" fill="white" class="sc-gEvEer fkqzOi"></path></marker><polyline points="5 0,5 80" stroke-width="1" marker-end="url(#marker-81dc9c2e-27e2-44f3-b1c7-e20b6212b95f)" stroke="black" fill="none" class="sc-aXZVg eMElBf"></polyline></g></svg><svg x="1340" y="485" width="380" height="150" class="" fill="#ffffff"><g><marker id="marker-27e8aebb-8d86-48e9-b3c9-d6b453d872e4" viewBox="0 0 30 30" markerWidth="22" markerHeight="30" refX="30" refY="15" orient="auto" markerUnits="strokeWidth"><path d="M0,1 L0,29 L30,15 z" stroke="black" fill="white" class="sc-gEvEer fkqzOi"></path></marker><polyline points="375 0,375 75,5 75,5 150" stroke-width="1" marker-end="url(#marker-27e8aebb-8d86-48e9-b3c9-d6b453d872e4)" stroke="black" fill="none" class="sc-aXZVg eMElBf"></polyline></g></svg></svg>