<svg width="1051" height="411.5" xmlns="http://www.w3.org/2000/svg" xmlns:xlink="http://www.w3.org/1999/xlink" fill="#ffffff"><defs><style>
  text {
    fill: #212529;
    font-family: Helvetica Neue, Helvetica, Arial, sans-serif;
    font-size: 16px;
  }

  marker, text {
    fill-opacity: 1;
  }

  * {
    overflow: visible;
  }
</style></defs><svg x="25" y="225" width="240" height="40" class="from GovernanceProject" fill="#ffffff"><g><rect width="100%" height="40" stroke="none" fill="white" class="sc-fqkvVR eDtKfR"></rect><rect y="40" width="100%" height="0" stroke="none" fill="white" class="sc-fqkvVR eDtKfR"></rect><svg height="40"><text x="50%" y="50%" dominant-baseline="middle" text-anchor="middle" font-weight="bold" pointer-events="none">&lt;&lt;from Governance&gt;&gt;Project</text></svg><rect width="100%" height="100%" stroke="black" fill="none" class="sc-fqkvVR jAaomD"></rect></g></svg><svg x="285" y="225" width="230" height="40" class="from GovernanceTask" fill="#ffffff"><g><rect width="100%" height="40" stroke="none" fill="white" class="sc-fqkvVR eDtKfR"></rect><rect y="40" width="100%" height="0" stroke="none" fill="white" class="sc-fqkvVR eDtKfR"></rect><svg height="40"><text x="50%" y="50%" dominant-baseline="middle" text-anchor="middle" font-weight="bold" pointer-events="none">&lt;&lt;from Governance&gt;&gt;Task</text></svg><rect width="100%" height="100%" stroke="black" fill="none" class="sc-fqkvVR jAaomD"></rect></g></svg><svg x="235" y="45" width="240" height="80" class="from GovernanceScope" fill="#ffffff"><g><rect width="100%" height="50" stroke="none" fill="white" class="sc-fqkvVR eDtKfR"></rect><rect y="50" width="100%" height="30" stroke="none" fill="white" class="sc-fqkvVR eDtKfR"></rect><svg height="50"><text x="50%" y="50%" dominant-baseline="middle" text-anchor="middle" font-weight="bold" pointer-events="none"><tspan x="50%" dy="-8" text-anchor="middle" font-size="85%">«abstract»</tspan><tspan x="50%" dy="18" text-anchor="middle" font-style="italic">&lt;&lt;from Governance&gt;&gt;Scope</tspan></text></svg><svg x="0" y="50.5" width="239" height="30" class="+ status: StatusEnum" fill="#ffffff"><g><rect width="100%" height="100%" stroke="none" fill="white" class="sc-fqkvVR eDtKfR"></rect><text x="10" y="50%" dominant-baseline="middle" text-anchor="start" font-weight="normal" pointer-events="none">+ status: StatusEnum</text></g></svg><rect width="100%" height="100%" stroke="black" fill="none" class="sc-fqkvVR jAaomD"></rect><path d="M 0 50 H 240" stroke="black" fill="white" class="sc-gEvEer fkqzOi"></path></g></svg><svg x="565" y="45" width="260" height="80" class="from GovernanceCondition" fill="#ffffff"><g><rect width="100%" height="50" stroke="none" fill="white" class="sc-fqkvVR eDtKfR"></rect><rect y="50" width="100%" height="30" stroke="none" fill="white" class="sc-fqkvVR eDtKfR"></rect><svg height="50"><text x="50%" y="50%" dominant-baseline="middle" text-anchor="middle" font-weight="bold" pointer-events="none"><tspan x="50%" dy="-8" text-anchor="middle" font-size="85%">«abstract»</tspan><tspan x="50%" dy="18" text-anchor="middle" font-style="italic">&lt;&lt;from Governance&gt;&gt;Condition</tspan></text></svg><svg x="0" y="50.5" width="259" height="30" class="+ evaluation: EvaluationMode" fill="#ffffff"><g><rect width="100%" height="100%" stroke="none" fill="white" class="sc-fqkvVR eDtKfR"></rect><text x="10" y="50%" dominant-baseline="middle" text-anchor="start" font-weight="normal" pointer-events="none">+ evaluation: EvaluationMode</text></g></svg><rect width="100%" height="100%" stroke="black" fill="none" class="sc-fqkvVR jAaomD"></rect><path d="M 0 50 H 260" stroke="black" fill="white" class="sc-gEvEer fkqzOi"></path></g></svg><svg x="55" y="325" width="190" height="70" class="githubRepository" fill="#ffffff"><g><rect width="100%" height="40" stroke="none" fill="white" class="sc-fqkvVR eDtKfR"></rect><rect y="40" width="100%" height="30" stroke="none" fill="white" class="sc-fqkvVR eDtKfR"></rect><svg height="40"><text x="50%" y="50%" dominant-baseline="middle" text-anchor="middle" font-weight="bold" pointer-events="none">&lt;&lt;github&gt;&gt;Repository</text></svg><svg x="0" y="40.5" width="189" height="30" class="+ id: str" fill="#ffffff"><g><rect width="100%" height="100%" stroke="none" fill="white" class="sc-fqkvVR eDtKfR"></rect><text x="10" y="50%" dominant-baseline="middle" text-anchor="start" font-weight="normal" pointer-events="none">+ id: str</text></g></svg><rect width="100%" height="100%" stroke="black" fill="none" class="sc-fqkvVR jAaomD"></rect><path d="M 0 40 H 190" stroke="black" fill="white" class="sc-gEvEer fkqzOi"></path></g></svg><svg x="295" y="325" width="200" height="40" class="githubPatch" fill="#ffffff"><g><rect width="100%" height="40" stroke="none" fill="white" class="sc-fqkvVR eDtKfR"></rect><rect y="40" width="100%" height="0" stroke="none" fill="white" class="sc-fqkvVR eDtKfR"></rect><svg height="40"><text x="50%" y="50%" dominant-baseline="middle" text-anchor="middle" font-weight="bold" pointer-events="none">&lt;&lt;github&gt;&gt;Patch</text></svg><rect width="100%" height="100%" stroke="black" fill="none" class="sc-fqkvVR jAaomD"></rect></g></svg><svg x="875" y="295" width="160" height="70" class="githubLabel" fill="#ffffff"><g><rect width="100%" height="40" stroke="none" fill="white" class="sc-fqkvVR eDtKfR"></rect><rect y="40" width="100%" height="30" stroke="none" fill="white" class="sc-fqkvVR eDtKfR"></rect><svg height="40"><text x="50%" y="50%" dominant-baseline="middle" text-anchor="middle" font-weight="bold" pointer-events="none">&lt;&lt;github&gt;&gt;Label</text></svg><svg x="0" y="40.5" width="159" height="30" class="+ name: str" fill="#ffffff"><g><rect width="100%" height="100%" stroke="none" fill="white" class="sc-fqkvVR eDtKfR"></rect><text x="10" y="50%" dominant-baseline="middle" text-anchor="start" font-weight="normal" pointer-events="none">+ name: str</text></g></svg><rect width="100%" height="100%" stroke="black" fill="none" class="sc-fqkvVR jAaomD"></rect><path d="M 0 40 H 160" stroke="black" fill="white" class="sc-gEvEer fkqzOi"></path></g></svg><svg x="585" y="305" width="200" height="70" class="githubPullRequest" fill="#ffffff"><g><rect width="100%" height="40" stroke="none" fill="white" class="sc-fqkvVR eDtKfR"></rect><rect y="40" width="100%" height="30" stroke="none" fill="white" class="sc-fqkvVR eDtKfR"></rect><svg height="40"><text x="50%" y="50%" dominant-baseline="middle" text-anchor="middle" font-weight="bold" pointer-events="none">&lt;&lt;github&gt;&gt;PullRequest</text></svg><svg x="0" y="40.5" width="199" height="30" class="+ has_open_issues: bool" fill="#ffffff"><g><rect width="100%" height="100%" stroke="none" fill="white" class="sc-fqkvVR eDtKfR"></rect><text x="10" y="50%" dominant-baseline="middle" text-anchor="start" font-weight="normal" pointer-events="none">+ has_open_issues: bool</text></g></svg><rect width="100%" height="100%" stroke="black" fill="none" class="sc-fqkvVR jAaomD"></rect><path d="M 0 40 H 200" stroke="black" fill="white" class="sc-gEvEer fkqzOi"></path></g></svg><svg x="535" y="175" width="200" height="40" class="githubPassedTests" fill="#ffffff"><g><rect width="100%" height="40" stroke="none" fill="white" class="sc-fqkvVR eDtKfR"></rect><rect y="40" width="100%" height="0" stroke="none" fill="white" class="sc-fqkvVR eDtKfR"></rect><svg height="40"><text x="50%" y="50%" dominant-baseline="middle" text-anchor="middle" font-weight="bold" pointer-events="none">&lt;&lt;github&gt;&gt;PassedTests</text></svg><rect width="100%" height="100%" stroke="black" fill="none" class="sc-fqkvVR jAaomD"></rect></g></svg><svg x="865" y="25" width="160" height="140" class="EvaluationMode" fill="#ffffff"><g><rect width="100%" height="50" stroke="none" fill="white" class="sc-fqkvVR eDtKfR"></rect><rect y="50" width="100%" height="90" stroke="none" fill="white" class="sc-fqkvVR eDtKfR"></rect><svg height="50"><text x="50%" y="50%" dominant-baseline="middle" text-anchor="middle" font-weight="bold" pointer-events="none"><tspan x="50%" dy="-8" text-anchor="middle" font-size="85%">«enumeration»</tspan><tspan x="50%" dy="18" text-anchor="middle">EvaluationMode</tspan></text></svg><svg x="0" y="50.5" width="159" height="30" class="PRE" fill="#ffffff"><g><rect width="100%" height="100%" stroke="none" fill="white" class="sc-fqkvVR eDtKfR"></rect><text x="10" y="50%" dominant-baseline="middle" text-anchor="start" font-weight="normal" pointer-events="none">PRE</text></g></svg><svg x="0" y="80.5" width="159" height="30" class="POST" fill="#ffffff"><g><rect width="100%" height="100%" stroke="none" fill="white" class="sc-fqkvVR eDtKfR"></rect><text x="10" y="50%" dominant-baseline="middle" text-anchor="start" font-weight="normal" pointer-events="none">POST</text></g></svg><svg x="0" y="110.5" width="159" height="30" class="CONCURRENT" fill="#ffffff"><g><rect width="100%" height="100%" stroke="none" fill="white" class="sc-fqkvVR eDtKfR"></rect><text x="10" y="50%" dominant-baseline="middle" text-anchor="start" font-weight="normal" pointer-events="none">CONCURRENT</text></g></svg><rect width="100%" height="100%" stroke="black" fill="none" class="sc-fqkvVR jAaomD"></rect><path d="M 0 50 H 160" stroke="black" fill="white" class="sc-gEvEer fkqzOi"></path></g></svg><svg x="755" y="175" width="220" height="40" class="githubLabelCondition" fill="#ffffff"><g><rect width="100%" height="40" stroke="none" fill="white" class="sc-fqkvVR eDtKfR"></rect><rect y="40" width="100%" height="0" stroke="none" fill="white" class="sc-fqkvVR eDtKfR"></rect><svg height="40"><text x="50%" y="50%" dominant-baseline="middle" text-anchor="middle" font-weight="bold" pointer-events="none">&lt;&lt;github&gt;&gt;LabelCondition</text></svg><rect width="100%" height="100%" stroke="black" fill="none" class="sc-fqkvVR jAaomD"></rect></g></svg><svg x="15" y="15" width="160" height="140" class="StatusEnum" fill="#ffffff"><g><rect width="100%" height="50" stroke="none" fill="white" class="sc-fqkvVR eDtKfR"></rect><rect y="50" width="100%" height="90" stroke="none" fill="white" class="sc-fqkvVR eDtKfR"></rect><svg height="50"><text x="50%" y="50%" dominant-baseline="middle" text-anchor="middle" font-weight="bold" pointer-events="none"><tspan x="50%" dy="-8" text-anchor="middle" font-size="85%">«enumeration»</tspan><tspan x="50%" dy="18" text-anchor="middle">StatusEnum</tspan></text></svg><svg x="0" y="50.5" width="159" height="30" class="ACCEPTED" fill="#ffffff"><g><rect width="100%" height="100%" stroke="none" fill="white" class="sc-fqkvVR eDtKfR"></rect><text x="10" y="50%" dominant-baseline="middle" text-anchor="start" font-weight="normal" pointer-events="none">ACCEPTED</text></g></svg><svg x="0" y="80.5" width="159" height="30" class="PARTIAL" fill="#ffffff"><g><rect width="100%" height="100%" stroke="none" fill="white" class="sc-fqkvVR eDtKfR"></rect><text x="10" y="50%" dominant-baseline="middle" text-anchor="start" font-weight="normal" pointer-events="none">PARTIAL</text></g></svg><svg x="0" y="110.5" width="159" height="30" class="COMPLETED" fill="#ffffff"><g><rect width="100%" height="100%" stroke="none" fill="white" class="sc-fqkvVR eDtKfR"></rect><text x="10" y="50%" dominant-baseline="middle" text-anchor="start" font-weight="normal" pointer-events="none">COMPLETED</text></g></svg><rect width="100%" height="100%" stroke="black" fill="none" class="sc-fqkvVR jAaomD"></rect><path d="M 0 50 H 160" stroke="black" fill="white" class="sc-gEvEer fkqzOi"></path></g></svg><svg x="140" y="125" width="220" height="100" class="" fill="#ffffff"><g><marker id="marker-2ed4af3d-e1c7-4cc9-aca8-7a8701e4efdc" viewBox="0 0 30 30" markerWidth="22" markerHeight="30" refX="30" refY="15" orient="auto" markerUnits="strokeWidth"><path d="M0,1 L0,29 L30,15 z" stroke="black" fill="white" class="sc-gEvEer fkqzOi"></path></marker><polyline points="5 100,5 50,215 50,215 0" stroke-width="1" marker-end="url(#marker-2ed4af3d-e1c7-4cc9-aca8-7a8701e4efdc)" stroke="black" fill="none" class="sc-aXZVg eMElBf"></polyline></g></svg><svg x="375" y="125" width="10" height="100" class="" fill="#ffffff"><g><marker id="marker-2ee3f214-d42d-4153-830c-d6f18224a251" viewBox="0 0 30 30" markerWidth="22" markerHeight="30" refX="30" refY="15" orient="auto" markerUnits="strokeWidth"><path d="M0,1 L0,29 L30,15 z" stroke="black" fill="white" class="sc-gEvEer fkqzOi"></path></marker><polyline points="5 100,5 0" stroke-width="1" marker-end="url(#marker-2ee3f214-d42d-4153-830c-d6f18224a251)" stroke="black" fill="none" class="sc-aXZVg eMElBf"></polyline></g></svg><svg x="390" y="265" width="10" height="60" class="" fill="#ffffff"><g><marker id="marker-a018ece7-dec6-49e6-982b-8d070624358b" viewBox="0 0 30 30" markerWidth="22" markerHeight="30" refX="30" refY="15" orient="auto" markerUnits="strokeWidth"><path d="M0,1 L0,29 L30,15 z" stroke="black" fill="white" class="sc-gEvEer fkqzOi"></path></marker><polyline points="5 60,5 0" stroke-width="1" marker-end="url(#marker-a018ece7-dec6-49e6-982b-8d070624358b)" stroke="black" fill="none" class="sc-aXZVg eMElBf"></polyline></g></svg><svg x="785" y="325" width="90" height="48.60000038146973" class="" fill="#ffffff"><g><polyline points="0 10,90 10" stroke-width="1" marker-end="url(#marker-99e2fcff-8150-47c0-8f42-8f5a03adf380)" stroke="black" fill="none" class="sc-aXZVg eMElBf"></polyline><text x="8" y="10" dy="21" text-anchor="start" pointer-events="none">0..*</text><text x="82" y="10" dy="21" text-anchor="end" pointer-events="none">0..*</text><text x="8" y="10" dy="-10" text-anchor="start" pointer-events="none"></text><text x="82" y="10" dy="-10" text-anchor="end" pointer-events="none">labels</text></g></svg><svg x="145" y="265" width="10" height="60" class="" fill="#ffffff"><g><marker id="marker-8aa24619-9aac-41bf-ac8a-df0db023b77e" viewBox="0 0 30 30" markerWidth="22" markerHeight="30" refX="30" refY="15" orient="auto" markerUnits="strokeWidth"><path d="M0,1 L0,29 L30,15 z" stroke="black" fill="white" class="sc-gEvEer fkqzOi"></path></marker><polyline points="5 60,5 0" stroke-width="1" marker-end="url(#marker-8aa24619-9aac-41bf-ac8a-df0db023b77e)" stroke="black" fill="none" class="sc-aXZVg eMElBf"></polyline></g></svg><svg x="495" y="335" width="90" height="48.60000038146973" class="" fill="#ffffff"><g><polyline points="0 10,90 10" stroke-width="1" marker-end="url(#marker-82bf5b1d-e1f2-4645-b2a1-7bbd2180ab1c)" stroke="black" fill="none" class="sc-aXZVg eMElBf"></polyline><text x="8" y="10" dy="21" text-anchor="start" pointer-events="none">0..*</text><text x="82" y="10" dy="21" text-anchor="end" pointer-events="none">0..1</text><text x="8" y="10" dy="-10" text-anchor="start" pointer-events="none"></text><text x="82" y="10" dy="-10" text-anchor="end" pointer-events="none">pr</text></g></svg><svg x="645" y="125" width="10" height="50" class="" fill="#ffffff"><g><marker id="marker-6703a9b5-8bae-47ee-adfd-16fa320a2474" viewBox="0 0 30 30" markerWidth="22" markerHeight="30" refX="30" refY="15" orient="auto" markerUnits="strokeWidth"><path d="M0,1 L0,29 L30,15 z" stroke="black" fill="white" class="sc-gEvEer fkqzOi"></path></marker><polyline points="5 50,5 0" stroke-width="1" marker-end="url(#marker-6703a9b5-8bae-47ee-adfd-16fa320a2474)" stroke="black" fill="none" class="sc-aXZVg eMElBf"></polyline></g></svg><svg x="785" y="125" width="10" height="50" class="" fill="#ffffff"><g><marker id="marker-fa2f8109-e771-48cb-b5c2-57c4931c24e1" viewBox="0 0 30 30" markerWidth="22" markerHeight="30" refX="30" refY="15" orient="auto" markerUnits="strokeWidth"><path d="M0,1 L0,29 L30,15 z" stroke="black" fill="white" class="sc-gEvEer fkqzOi"></path></marker><polyline points="5 50,5 0" stroke-width="1" marker-end="url(#marker-fa2f8109-e771-48cb-b5c2-57c4931c24e1)" stroke="black" fill="none" class="sc-aXZVg eMElBf"></polyline></g></svg><svg x="878.2000007629395" y="215" width="75.83333206176758" height="89.60000038146973" class="" fill="#ffffff"><g><polyline points="46.79999923706055 0,46.79999923706055 80" stroke-width="1" marker-end="url(#marker-e4fe7e07-64d8-4282-a55a-cb1997a9572d)" stroke="black" fill="none" class="sc-aXZVg eMElBf"></polyline><text x="46.79999923706055" y="8" dx="5" dy="10" text-anchor="start" pointer-events="none">0..*</text><text x="46.79999923706055" y="72" dx="5" text-anchor="start" pointer-events="none">1..*</text><text x="46.79999923706055" y="8" dx="-5" dy="10" text-anchor="end" pointer-events="none"></text><text x="46.79999923706055" y="72" dx="-5" text-anchor="end" pointer-events="none">labels</text></g></svg></svg>