<svg width="1561" height="1031.5" xmlns="http://www.w3.org/2000/svg" xmlns:xlink="http://www.w3.org/1999/xlink" fill="#ffffff"><defs><style>
  text {
    fill: #212529;
    font-family: Helvetica Neue, Helvetica, Arial, sans-serif;
    font-size: 16px;
  }

  marker, text {
    fill-opacity: 1;
  }

  * {
    overflow: visible;
  }
</style></defs><svg x="475" y="15" width="140" height="40" class="Project" fill="#ffffff"><g><rect width="100%" height="40" stroke="none" fill="white" class="sc-fqkvVR eDtKfR"></rect><rect y="40" width="100%" height="0" stroke="none" fill="white" class="sc-fqkvVR eDtKfR"></rect><svg height="40"><text x="50%" y="50%" dominant-baseline="middle" text-anchor="middle" font-weight="bold" pointer-events="none">Project</text></svg><rect width="100%" height="100%" stroke="black" fill="none" class="sc-fqkvVR jAaomD"></rect></g></svg><svg x="835" y="15" width="160" height="40" class="Activity" fill="#ffffff"><g><rect width="100%" height="40" stroke="none" fill="white" class="sc-fqkvVR eDtKfR"></rect><rect y="40" width="100%" height="0" stroke="none" fill="white" class="sc-fqkvVR eDtKfR"></rect><svg height="40"><text x="50%" y="50%" dominant-baseline="middle" text-anchor="middle" font-weight="bold" pointer-events="none">Activity</text></svg><rect width="100%" height="100%" stroke="black" fill="none" class="sc-fqkvVR jAaomD"></rect></g></svg><svg x="1135" y="15" width="160" height="40" class="Task" fill="#ffffff"><g><rect width="100%" height="40" stroke="none" fill="white" class="sc-fqkvVR eDtKfR"></rect><rect y="40" width="100%" height="0" stroke="none" fill="white" class="sc-fqkvVR eDtKfR"></rect><svg height="40"><text x="50%" y="50%" dominant-baseline="middle" text-anchor="middle" font-weight="bold" pointer-events="none">Task</text></svg><rect width="100%" height="100%" stroke="black" fill="none" class="sc-fqkvVR jAaomD"></rect></g></svg><svg x="825" y="135" width="180" height="80" class="Scope" fill="#ffffff"><g><rect width="100%" height="50" stroke="none" fill="white" class="sc-fqkvVR eDtKfR"></rect><rect y="50" width="100%" height="30" stroke="none" fill="white" class="sc-fqkvVR eDtKfR"></rect><svg height="50"><text x="50%" y="50%" dominant-baseline="middle" text-anchor="middle" font-weight="bold" pointer-events="none"><tspan x="50%" dy="-8" text-anchor="middle" font-size="85%">«abstract»</tspan><tspan x="50%" dy="18" text-anchor="middle" font-style="italic">Scope</tspan></text></svg><svg x="0" y="50.5" width="179" height="30" class="+ status: StatusEnum" fill="#ffffff"><g><rect width="100%" height="100%" stroke="none" fill="white" class="sc-fqkvVR eDtKfR"></rect><text x="10" y="50%" dominant-baseline="middle" text-anchor="start" font-weight="normal" pointer-events="none">+ status: StatusEnum</text></g></svg><rect width="100%" height="100%" stroke="black" fill="none" class="sc-fqkvVR jAaomD"></rect><path d="M 0 50 H 180" stroke="black" fill="white" class="sc-gEvEer fkqzOi"></path></g></svg><svg x="835" y="265" width="160" height="50" class="Policy" fill="#ffffff"><g><rect width="100%" height="50" stroke="none" fill="white" class="sc-fqkvVR eDtKfR"></rect><rect y="50" width="100%" height="0" stroke="none" fill="white" class="sc-fqkvVR eDtKfR"></rect><svg height="50"><text x="50%" y="50%" dominant-baseline="middle" text-anchor="middle" font-weight="bold" pointer-events="none"><tspan x="50%" dy="-8" text-anchor="middle" font-size="85%">«abstract»</tspan><tspan x="50%" dy="18" text-anchor="middle" font-style="italic">Policy</tspan></text></svg><rect width="100%" height="100%" stroke="black" fill="none" class="sc-fqkvVR jAaomD"></rect></g></svg><svg x="465" y="265" width="200" height="130" class="ComposedPolicy" fill="#ffffff"><g><rect width="100%" height="40" stroke="none" fill="white" class="sc-fqkvVR eDtKfR"></rect><rect y="40" width="100%" height="90" stroke="none" fill="white" class="sc-fqkvVR eDtKfR"></rect><svg height="40"><text x="50%" y="50%" dominant-baseline="middle" text-anchor="middle" font-weight="bold" pointer-events="none">ComposedPolicy</text></svg><svg x="0" y="40.5" width="199" height="30" class="+ sequential: bool" fill="#ffffff"><g><rect width="100%" height="100%" stroke="none" fill="white" class="sc-fqkvVR eDtKfR"></rect><text x="10" y="50%" dominant-baseline="middle" text-anchor="start" font-weight="normal" pointer-events="none">+ sequential: bool</text></g></svg><svg x="0" y="70.5" width="199" height="30" class="+ require_all: bool" fill="#ffffff"><g><rect width="100%" height="100%" stroke="none" fill="white" class="sc-fqkvVR eDtKfR"></rect><text x="10" y="50%" dominant-baseline="middle" text-anchor="start" font-weight="normal" pointer-events="none">+ require_all: bool</text></g></svg><svg x="0" y="100.5" width="199" height="30" class="+ carry_over: bool" fill="#ffffff"><g><rect width="100%" height="100%" stroke="none" fill="white" class="sc-fqkvVR eDtKfR"></rect><text x="10" y="50%" dominant-baseline="middle" text-anchor="start" font-weight="normal" pointer-events="none">+ carry_over: bool</text></g></svg><rect width="100%" height="100%" stroke="black" fill="none" class="sc-fqkvVR jAaomD"></rect><path d="M 0 40 H 200" stroke="black" fill="white" class="sc-gEvEer fkqzOi"></path></g></svg><svg x="1005" y="525" width="160" height="50" class="SinglePolicy" fill="#ffffff"><g><rect width="100%" height="50" stroke="none" fill="white" class="sc-fqkvVR eDtKfR"></rect><rect y="50" width="100%" height="0" stroke="none" fill="white" class="sc-fqkvVR eDtKfR"></rect><svg height="50"><text x="50%" y="50%" dominant-baseline="middle" text-anchor="middle" font-weight="bold" pointer-events="none"><tspan x="50%" dy="-8" text-anchor="middle" font-size="85%">«abstract»</tspan><tspan x="50%" dy="18" text-anchor="middle" font-style="italic">SinglePolicy</tspan></text></svg><rect width="100%" height="100%" stroke="black" fill="none" class="sc-fqkvVR jAaomD"></rect></g></svg><svg x="1205" y="695" width="170" height="40" class="LeaderDrivenPolicy" fill="#ffffff"><g><rect width="100%" height="40" stroke="none" fill="white" class="sc-fqkvVR eDtKfR"></rect><rect y="40" width="100%" height="0" stroke="none" fill="white" class="sc-fqkvVR eDtKfR"></rect><svg height="40"><text x="50%" y="50%" dominant-baseline="middle" text-anchor="middle" font-weight="bold" pointer-events="none">LeaderDrivenPolicy</text></svg><rect width="100%" height="100%" stroke="black" fill="none" class="sc-fqkvVR jAaomD"></rect></g></svg><svg x="1005" y="695" width="160" height="70" class="VotingPolicy" fill="#ffffff"><g><rect width="100%" height="40" stroke="none" fill="white" class="sc-fqkvVR eDtKfR"></rect><rect y="40" width="100%" height="30" stroke="none" fill="white" class="sc-fqkvVR eDtKfR"></rect><svg height="40"><text x="50%" y="50%" dominant-baseline="middle" text-anchor="middle" font-weight="bold" pointer-events="none">VotingPolicy</text></svg><svg x="0" y="40.5" width="159" height="30" class="+ ratio: float" fill="#ffffff"><g><rect width="100%" height="100%" stroke="none" fill="white" class="sc-fqkvVR eDtKfR"></rect><text x="10" y="50%" dominant-baseline="middle" text-anchor="start" font-weight="normal" pointer-events="none">+ ratio: float</text></g></svg><rect width="100%" height="100%" stroke="black" fill="none" class="sc-fqkvVR jAaomD"></rect><path d="M 0 40 H 160" stroke="black" fill="white" class="sc-gEvEer fkqzOi"></path></g></svg><svg x="1005" y="295" width="230" height="80" class="Condition" fill="#ffffff"><g><rect width="100%" height="50" stroke="none" fill="white" class="sc-fqkvVR eDtKfR"></rect><rect y="50" width="100%" height="30" stroke="none" fill="white" class="sc-fqkvVR eDtKfR"></rect><svg height="50"><text x="50%" y="50%" dominant-baseline="middle" text-anchor="middle" font-weight="bold" pointer-events="none"><tspan x="50%" dy="-8" text-anchor="middle" font-size="85%">«abstract»</tspan><tspan x="50%" dy="18" text-anchor="middle" font-style="italic">Condition</tspan></text></svg><svg x="0" y="50.5" width="229" height="30" class="+ evaluation: EvaluationMode" fill="#ffffff"><g><rect width="100%" height="100%" stroke="none" fill="white" class="sc-fqkvVR eDtKfR"></rect><text x="10" y="50%" dominant-baseline="middle" text-anchor="start" font-weight="normal" pointer-events="none">+ evaluation: EvaluationMode</text></g></svg><rect width="100%" height="100%" stroke="black" fill="none" class="sc-fqkvVR jAaomD"></rect><path d="M 0 50 H 230" stroke="black" fill="white" class="sc-gEvEer fkqzOi"></path></g></svg><svg x="1355" y="275" width="160" height="100" class="Deadline" fill="#ffffff"><g><rect width="100%" height="40" stroke="none" fill="white" class="sc-fqkvVR eDtKfR"></rect><rect y="40" width="100%" height="60" stroke="none" fill="white" class="sc-fqkvVR eDtKfR"></rect><svg height="40"><text x="50%" y="50%" dominant-baseline="middle" text-anchor="middle" font-weight="bold" pointer-events="none">Deadline</text></svg><svg x="0" y="40.5" width="159" height="30" class="+ offset: timedelta" fill="#ffffff"><g><rect width="100%" height="100%" stroke="none" fill="white" class="sc-fqkvVR eDtKfR"></rect><text x="10" y="50%" dominant-baseline="middle" text-anchor="start" font-weight="normal" pointer-events="none">+ offset: timedelta</text></g></svg><svg x="0" y="70.5" width="159" height="30" class="+ date: datetime" fill="#ffffff"><g><rect width="100%" height="100%" stroke="none" fill="white" class="sc-fqkvVR eDtKfR"></rect><text x="10" y="50%" dominant-baseline="middle" text-anchor="start" font-weight="normal" pointer-events="none">+ date: datetime</text></g></svg><rect width="100%" height="100%" stroke="black" fill="none" class="sc-fqkvVR jAaomD"></rect><path d="M 0 40 H 160" stroke="black" fill="white" class="sc-gEvEer fkqzOi"></path></g></svg><svg x="175" y="515" width="160" height="50" class="Participant" fill="#ffffff"><g><rect width="100%" height="50" stroke="none" fill="white" class="sc-fqkvVR eDtKfR"></rect><rect y="50" width="100%" height="0" stroke="none" fill="white" class="sc-fqkvVR eDtKfR"></rect><svg height="50"><text x="50%" y="50%" dominant-baseline="middle" text-anchor="middle" font-weight="bold" pointer-events="none"><tspan x="50%" dy="-8" text-anchor="middle" font-size="85%">«abstract»</tspan><tspan x="50%" dy="18" text-anchor="middle" font-style="italic">Participant</tspan></text></svg><rect width="100%" height="100%" stroke="black" fill="none" class="sc-fqkvVR jAaomD"></rect></g></svg><svg x="365" y="655" width="160" height="70" class="Individual" fill="#ffffff"><g><rect width="100%" height="40" stroke="none" fill="white" class="sc-fqkvVR eDtKfR"></rect><rect y="40" width="100%" height="30" stroke="none" fill="white" class="sc-fqkvVR eDtKfR"></rect><svg height="40"><text x="50%" y="50%" dominant-baseline="middle" text-anchor="middle" font-weight="bold" pointer-events="none">Individual</text></svg><svg x="0" y="40.5" width="159" height="30" class="+ vote_value: float" fill="#ffffff"><g><rect width="100%" height="100%" stroke="none" fill="white" class="sc-fqkvVR eDtKfR"></rect><text x="10" y="50%" dominant-baseline="middle" text-anchor="start" font-weight="normal" pointer-events="none">+ vote_value: float</text></g></svg><rect width="100%" height="100%" stroke="black" fill="none" class="sc-fqkvVR jAaomD"></rect><path d="M 0 40 H 160" stroke="black" fill="white" class="sc-gEvEer fkqzOi"></path></g></svg><svg x="95" y="655" width="160" height="40" class="Role" fill="#ffffff"><g><rect width="100%" height="40" stroke="none" fill="white" class="sc-fqkvVR eDtKfR"></rect><rect y="40" width="100%" height="0" stroke="none" fill="white" class="sc-fqkvVR eDtKfR"></rect><svg height="40"><text x="50%" y="50%" dominant-baseline="middle" text-anchor="middle" font-weight="bold" pointer-events="none">Role</text></svg><rect width="100%" height="100%" stroke="black" fill="none" class="sc-fqkvVR jAaomD"></rect></g></svg><svg x="15" y="345" width="160" height="40" class="hasRole" fill="#ffffff"><g><rect width="100%" height="40" stroke="none" fill="white" class="sc-fqkvVR eDtKfR"></rect><rect y="40" width="100%" height="0" stroke="none" fill="white" class="sc-fqkvVR eDtKfR"></rect><svg height="40"><text x="50%" y="50%" dominant-baseline="middle" text-anchor="middle" font-weight="bold" pointer-events="none">hasRole</text></svg><rect width="100%" height="100%" stroke="black" fill="none" class="sc-fqkvVR jAaomD"></rect></g></svg><svg x="955" y="855" width="160" height="40" class="MajorityPolicy" fill="#ffffff"><g><rect width="100%" height="40" stroke="none" fill="white" class="sc-fqkvVR eDtKfR"></rect><rect y="40" width="100%" height="0" stroke="none" fill="white" class="sc-fqkvVR eDtKfR"></rect><svg height="40"><text x="50%" y="50%" dominant-baseline="middle" text-anchor="middle" font-weight="bold" pointer-events="none">MajorityPolicy</text></svg><rect width="100%" height="100%" stroke="black" fill="none" class="sc-fqkvVR jAaomD"></rect></g></svg><svg x="1125" y="855" width="200" height="40" class="AbsoluteMajorityPolicy" fill="#ffffff"><g><rect width="100%" height="40" stroke="none" fill="white" class="sc-fqkvVR eDtKfR"></rect><rect y="40" width="100%" height="0" stroke="none" fill="white" class="sc-fqkvVR eDtKfR"></rect><svg height="40"><text x="50%" y="50%" dominant-baseline="middle" text-anchor="middle" font-weight="bold" pointer-events="none">AbsoluteMajorityPolicy</text></svg><rect width="100%" height="100%" stroke="black" fill="none" class="sc-fqkvVR jAaomD"></rect></g></svg><svg x="25" y="25" width="160" height="140" class="StatusEnum" fill="#ffffff"><g><rect width="100%" height="50" stroke="none" fill="white" class="sc-fqkvVR eDtKfR"></rect><rect y="50" width="100%" height="90" stroke="none" fill="white" class="sc-fqkvVR eDtKfR"></rect><svg height="50"><text x="50%" y="50%" dominant-baseline="middle" text-anchor="middle" font-weight="bold" pointer-events="none"><tspan x="50%" dy="-8" text-anchor="middle" font-size="85%">«enumeration»</tspan><tspan x="50%" dy="18" text-anchor="middle">StatusEnum</tspan></text></svg><svg x="0" y="50.5" width="159" height="30" class="ACCEPTED" fill="#ffffff"><g><rect width="100%" height="100%" stroke="none" fill="white" class="sc-fqkvVR eDtKfR"></rect><text x="10" y="50%" dominant-baseline="middle" text-anchor="start" font-weight="normal" pointer-events="none">ACCEPTED</text></g></svg><svg x="0" y="80.5" width="159" height="30" class="PARTIAL" fill="#ffffff"><g><rect width="100%" height="100%" stroke="none" fill="white" class="sc-fqkvVR eDtKfR"></rect><text x="10" y="50%" dominant-baseline="middle" text-anchor="start" font-weight="normal" pointer-events="none">PARTIAL</text></g></svg><svg x="0" y="110.5" width="159" height="30" class="COMPLETED" fill="#ffffff"><g><rect width="100%" height="100%" stroke="none" fill="white" class="sc-fqkvVR eDtKfR"></rect><text x="10" y="50%" dominant-baseline="middle" text-anchor="start" font-weight="normal" pointer-events="none">COMPLETED</text></g></svg><rect width="100%" height="100%" stroke="black" fill="none" class="sc-fqkvVR jAaomD"></rect><path d="M 0 50 H 160" stroke="black" fill="white" class="sc-gEvEer fkqzOi"></path></g></svg><svg x="1125" y="455" width="180" height="40" class="ParticipantExclusion" fill="#ffffff"><g><rect width="100%" height="40" stroke="none" fill="white" class="sc-fqkvVR eDtKfR"></rect><rect y="40" width="100%" height="0" stroke="none" fill="white" class="sc-fqkvVR eDtKfR"></rect><svg height="40"><text x="50%" y="50%" dominant-baseline="middle" text-anchor="middle" font-weight="bold" pointer-events="none">ParticipantExclusion</text></svg><rect width="100%" height="100%" stroke="black" fill="none" class="sc-fqkvVR jAaomD"></rect></g></svg><svg x="825" y="695" width="160" height="40" class="ConsensusPolicy" fill="#ffffff"><g><rect width="100%" height="40" stroke="none" fill="white" class="sc-fqkvVR eDtKfR"></rect><rect y="40" width="100%" height="0" stroke="none" fill="white" class="sc-fqkvVR eDtKfR"></rect><svg height="40"><text x="50%" y="50%" dominant-baseline="middle" text-anchor="middle" font-weight="bold" pointer-events="none">ConsensusPolicy</text></svg><rect width="100%" height="100%" stroke="black" fill="none" class="sc-fqkvVR jAaomD"></rect></g></svg><svg x="755" y="855" width="190" height="40" class="LazyConsensusPolicy" fill="#ffffff"><g><rect width="100%" height="40" stroke="none" fill="white" class="sc-fqkvVR eDtKfR"></rect><rect y="40" width="100%" height="0" stroke="none" fill="white" class="sc-fqkvVR eDtKfR"></rect><svg height="40"><text x="50%" y="50%" dominant-baseline="middle" text-anchor="middle" font-weight="bold" pointer-events="none">LazyConsensusPolicy</text></svg><rect width="100%" height="100%" stroke="black" fill="none" class="sc-fqkvVR jAaomD"></rect></g></svg><svg x="1325" y="165" width="220" height="70" class="MinimumParticipant" fill="#ffffff"><g><rect width="100%" height="40" stroke="none" fill="white" class="sc-fqkvVR eDtKfR"></rect><rect y="40" width="100%" height="30" stroke="none" fill="white" class="sc-fqkvVR eDtKfR"></rect><svg height="40"><text x="50%" y="50%" dominant-baseline="middle" text-anchor="middle" font-weight="bold" pointer-events="none">MinimumParticipant</text></svg><svg x="0" y="40.5" width="219" height="30" class="+ min_participants: int" fill="#ffffff"><g><rect width="100%" height="100%" stroke="none" fill="white" class="sc-fqkvVR eDtKfR"></rect><text x="10" y="50%" dominant-baseline="middle" text-anchor="start" font-weight="normal" pointer-events="none">+ min_participants: int</text></g></svg><rect width="100%" height="100%" stroke="black" fill="none" class="sc-fqkvVR jAaomD"></rect><path d="M 0 40 H 220" stroke="black" fill="white" class="sc-gEvEer fkqzOi"></path></g></svg><svg x="1285" y="405" width="160" height="40" class="VetoRight" fill="#ffffff"><g><rect width="100%" height="40" stroke="none" fill="white" class="sc-fqkvVR eDtKfR"></rect><rect y="40" width="100%" height="0" stroke="none" fill="white" class="sc-fqkvVR eDtKfR"></rect><svg height="40"><text x="50%" y="50%" dominant-baseline="middle" text-anchor="middle" font-weight="bold" pointer-events="none">VetoRight</text></svg><rect width="100%" height="100%" stroke="black" fill="none" class="sc-fqkvVR jAaomD"></rect></g></svg><svg x="235" y="855" width="210" height="160" class="Agent" fill="#ffffff"><g><rect width="100%" height="40" stroke="none" fill="white" class="sc-fqkvVR eDtKfR"></rect><rect y="40" width="100%" height="120" stroke="none" fill="white" class="sc-fqkvVR eDtKfR"></rect><svg height="40"><text x="50%" y="50%" dominant-baseline="middle" text-anchor="middle" font-weight="bold" pointer-events="none">Agent</text></svg><svg x="0" y="40.5" width="209" height="30" class="+ confidence: float" fill="#ffffff"><g><rect width="100%" height="100%" stroke="none" fill="white" class="sc-fqkvVR eDtKfR"></rect><text x="10" y="50%" dominant-baseline="middle" text-anchor="start" font-weight="normal" pointer-events="none">+ confidence: float</text></g></svg><svg x="0" y="70.5" width="209" height="30" class="+ autonomy_level: float" fill="#ffffff"><g><rect width="100%" height="100%" stroke="none" fill="white" class="sc-fqkvVR eDtKfR"></rect><text x="10" y="50%" dominant-baseline="middle" text-anchor="start" font-weight="normal" pointer-events="none">+ autonomy_level: float</text></g></svg><svg x="0" y="100.5" width="209" height="30" class="+ explainability: float" fill="#ffffff"><g><rect width="100%" height="100%" stroke="none" fill="white" class="sc-fqkvVR eDtKfR"></rect><text x="10" y="50%" dominant-baseline="middle" text-anchor="start" font-weight="normal" pointer-events="none">+ explainability: float</text></g></svg><svg x="0" y="130.5" width="209" height="30" class="+ human_supervision: bool" fill="#ffffff"><g><rect width="100%" height="100%" stroke="none" fill="white" class="sc-fqkvVR eDtKfR"></rect><text x="10" y="50%" dominant-baseline="middle" text-anchor="start" font-weight="normal" pointer-events="none">+ human_supervision: bool</text></g></svg><rect width="100%" height="100%" stroke="black" fill="none" class="sc-fqkvVR jAaomD"></rect><path d="M 0 40 H 210" stroke="black" fill="white" class="sc-gEvEer fkqzOi"></path></g></svg><svg x="595" y="565" width="160" height="50" class="DecisionType" fill="#ffffff"><g><rect width="100%" height="50" stroke="none" fill="white" class="sc-fqkvVR eDtKfR"></rect><rect y="50" width="100%" height="0" stroke="none" fill="white" class="sc-fqkvVR eDtKfR"></rect><svg height="50"><text x="50%" y="50%" dominant-baseline="middle" text-anchor="middle" font-weight="bold" pointer-events="none"><tspan x="50%" dy="-8" text-anchor="middle" font-size="85%">«abstract»</tspan><tspan x="50%" dy="18" text-anchor="middle" font-style="italic">DecisionType</tspan></text></svg><rect width="100%" height="100%" stroke="black" fill="none" class="sc-fqkvVR jAaomD"></rect></g></svg><svg x="695" y="755" width="160" height="40" class="BooleanDecision" fill="#ffffff"><g><rect width="100%" height="40" stroke="none" fill="white" class="sc-fqkvVR eDtKfR"></rect><rect y="40" width="100%" height="0" stroke="none" fill="white" class="sc-fqkvVR eDtKfR"></rect><svg height="40"><text x="50%" y="50%" dominant-baseline="middle" text-anchor="middle" font-weight="bold" pointer-events="none">BooleanDecision</text></svg><rect width="100%" height="100%" stroke="black" fill="none" class="sc-fqkvVR jAaomD"></rect></g></svg><svg x="525" y="765" width="160" height="40" class="CandidateChoice" fill="#ffffff"><g><rect width="100%" height="40" stroke="none" fill="white" class="sc-fqkvVR eDtKfR"></rect><rect y="40" width="100%" height="0" stroke="none" fill="white" class="sc-fqkvVR eDtKfR"></rect><svg height="40"><text x="50%" y="50%" dominant-baseline="middle" text-anchor="middle" font-weight="bold" pointer-events="none">CandidateChoice</text></svg><rect width="100%" height="100%" stroke="black" fill="none" class="sc-fqkvVR jAaomD"></rect></g></svg><svg x="635" y="925" width="160" height="70" class="StringList" fill="#ffffff"><g><rect width="100%" height="40" stroke="none" fill="white" class="sc-fqkvVR eDtKfR"></rect><rect y="40" width="100%" height="30" stroke="none" fill="white" class="sc-fqkvVR eDtKfR"></rect><svg height="40"><text x="50%" y="50%" dominant-baseline="middle" text-anchor="middle" font-weight="bold" pointer-events="none">StringList</text></svg><svg x="0" y="40.5" width="159" height="30" class="+ options: str[ ]" fill="#ffffff"><g><rect width="100%" height="100%" stroke="none" fill="white" class="sc-fqkvVR eDtKfR"></rect><text x="10" y="50%" dominant-baseline="middle" text-anchor="start" font-weight="normal" pointer-events="none">+ options: str[ ]</text></g></svg><rect width="100%" height="100%" stroke="black" fill="none" class="sc-fqkvVR jAaomD"></rect><path d="M 0 40 H 160" stroke="black" fill="white" class="sc-gEvEer fkqzOi"></path></g></svg><svg x="465" y="925" width="160" height="40" class="ElementList" fill="#ffffff"><g><rect width="100%" height="40" stroke="none" fill="white" class="sc-fqkvVR eDtKfR"></rect><rect y="40" width="100%" height="0" stroke="none" fill="white" class="sc-fqkvVR eDtKfR"></rect><svg height="40"><text x="50%" y="50%" dominant-baseline="middle" text-anchor="middle" font-weight="bold" pointer-events="none">ElementList</text></svg><rect width="100%" height="100%" stroke="black" fill="none" class="sc-fqkvVR jAaomD"></rect></g></svg><svg x="195" y="25" width="160" height="140" class="EvaluationMode" fill="#ffffff"><g><rect width="100%" height="50" stroke="none" fill="white" class="sc-fqkvVR eDtKfR"></rect><rect y="50" width="100%" height="90" stroke="none" fill="white" class="sc-fqkvVR eDtKfR"></rect><svg height="50"><text x="50%" y="50%" dominant-baseline="middle" text-anchor="middle" font-weight="bold" pointer-events="none"><tspan x="50%" dy="-8" text-anchor="middle" font-size="85%">«enumeration»</tspan><tspan x="50%" dy="18" text-anchor="middle">EvaluationMode</tspan></text></svg><svg x="0" y="50.5" width="159" height="30" class="PRE" fill="#ffffff"><g><rect width="100%" height="100%" stroke="none" fill="white" class="sc-fqkvVR eDtKfR"></rect><text x="10" y="50%" dominant-baseline="middle" text-anchor="start" font-weight="normal" pointer-events="none">PRE</text></g></svg><svg x="0" y="80.5" width="159" height="30" class="POST" fill="#ffffff"><g><rect width="100%" height="100%" stroke="none" fill="white" class="sc-fqkvVR eDtKfR"></rect><text x="10" y="50%" dominant-baseline="middle" text-anchor="start" font-weight="normal" pointer-events="none">POST</text></g></svg><svg x="0" y="110.5" width="159" height="30" class="CONCURRENT" fill="#ffffff"><g><rect width="100%" height="100%" stroke="none" fill="white" class="sc-fqkvVR eDtKfR"></rect><text x="10" y="50%" dominant-baseline="middle" text-anchor="start" font-weight="normal" pointer-events="none">CONCURRENT</text></g></svg><rect width="100%" height="100%" stroke="black" fill="none" class="sc-fqkvVR jAaomD"></rect><path d="M 0 50 H 160" stroke="black" fill="white" class="sc-gEvEer fkqzOi"></path></g></svg><svg x="55" y="735" width="160" height="130" class="Profile" fill="#ffffff"><g><rect width="100%" height="40" stroke="none" fill="white" class="sc-fqkvVR eDtKfR"></rect><rect y="40" width="100%" height="90" stroke="none" fill="white" class="sc-fqkvVR eDtKfR"></rect><svg height="40"><text x="50%" y="50%" dominant-baseline="middle" text-anchor="middle" font-weight="bold" pointer-events="none">Profile</text></svg><svg x="0" y="40.5" width="159" height="30" class="+ name: str" fill="#ffffff"><g><rect width="100%" height="100%" stroke="none" fill="white" class="sc-fqkvVR eDtKfR"></rect><text x="10" y="50%" dominant-baseline="middle" text-anchor="start" font-weight="normal" pointer-events="none">+ name: str</text></g></svg><svg x="0" y="70.5" width="159" height="30" class="+ gender: str" fill="#ffffff"><g><rect width="100%" height="100%" stroke="none" fill="white" class="sc-fqkvVR eDtKfR"></rect><text x="10" y="50%" dominant-baseline="middle" text-anchor="start" font-weight="normal" pointer-events="none">+ gender: str</text></g></svg><svg x="0" y="100.5" width="159" height="30" class="+ disability: str" fill="#ffffff"><g><rect width="100%" height="100%" stroke="none" fill="white" class="sc-fqkvVR eDtKfR"></rect><text x="10" y="50%" dominant-baseline="middle" text-anchor="start" font-weight="normal" pointer-events="none">+ disability: str</text></g></svg><rect width="100%" height="100%" stroke="black" fill="none" class="sc-fqkvVR jAaomD"></rect><path d="M 0 40 H 160" stroke="black" fill="white" class="sc-gEvEer fkqzOi"></path></g></svg><svg x="910" y="55" width="10" height="80" class="" fill="#ffffff"><g><marker id="marker-3574c67e-f9af-4e3f-b632-b6ae1c0b0afd" viewBox="0 0 30 30" markerWidth="22" markerHeight="30" refX="30" refY="15" orient="auto" markerUnits="strokeWidth"><path d="M0,1 L0,29 L30,15 z" stroke="black" fill="white" class="sc-gEvEer fkqzOi"></path></marker><polyline points="5 0,5 80" stroke-width="1" marker-end="url(#marker-3574c67e-f9af-4e3f-b632-b6ae1c0b0afd)" stroke="black" fill="none" class="sc-aXZVg eMElBf"></polyline></g></svg><svg x="540" y="55" width="335" height="80" class="" fill="#ffffff"><g><marker id="marker-2ed4af3d-e1c7-4cc9-aca8-7a8701e4efdc" viewBox="0 0 30 30" markerWidth="22" markerHeight="30" refX="30" refY="15" orient="auto" markerUnits="strokeWidth"><path d="M0,1 L0,29 L30,15 z" stroke="black" fill="white" class="sc-gEvEer fkqzOi"></path></marker><polyline points="5 0,5 40,330 40,330 80" stroke-width="1" marker-end="url(#marker-2ed4af3d-e1c7-4cc9-aca8-7a8701e4efdc)" stroke="black" fill="none" class="sc-aXZVg eMElBf"></polyline></g></svg><svg x="955" y="55" width="265" height="80" class="" fill="#ffffff"><g><marker id="marker-2ee3f214-d42d-4153-830c-d6f18224a251" viewBox="0 0 30 30" markerWidth="22" markerHeight="30" refX="30" refY="15" orient="auto" markerUnits="strokeWidth"><path d="M0,1 L0,29 L30,15 z" stroke="black" fill="white" class="sc-gEvEer fkqzOi"></path></marker><polyline points="260 0,260 40,5 40,5 80" stroke-width="1" marker-end="url(#marker-2ee3f214-d42d-4153-830c-d6f18224a251)" stroke="black" fill="none" class="sc-aXZVg eMElBf"></polyline></g></svg><svg x="665" y="315" width="255" height="68.5" class="" fill="#ffffff"><g><marker id="marker-e78bf675-7fa7-41c2-a816-e450f59c2ce6" viewBox="0 0 30 30" markerWidth="22" markerHeight="30" refX="30" refY="15" orient="auto" markerUnits="strokeWidth"><path d="M0,1 L0,29 L30,15 z" stroke="black" fill="white" class="sc-gEvEer fkqzOi"></path></marker><polyline points="0 47.5,250 47.5,250 0" stroke-width="1" marker-end="url(#marker-e78bf675-7fa7-41c2-a816-e450f59c2ce6)" stroke="black" fill="none" class="sc-aXZVg eMElBf"></polyline></g></svg><svg x="665" y="280" width="170" height="48.60000038146973" class="" fill="#ffffff"><g><marker id="marker-7d7b7ada-ca73-49ba-8877-c0ea76900957" viewBox="0 0 30 30" markerWidth="30" markerHeight="30" refX="30" refY="15" orient="auto" markerUnits="strokeWidth"><path d="M0,15 L15,22 L30,15 L15,8 z" stroke="white" fill="black" class="sc-eqUAAy dLsBSg"></path></marker><polyline points="170 10,0 10" stroke-width="1" marker-end="url(#marker-7d7b7ada-ca73-49ba-8877-c0ea76900957)" stroke="black" fill="none" class="sc-aXZVg eMElBf"></polyline><text x="162" y="10" dy="21" text-anchor="end" pointer-events="none">1..*</text><text x="31" y="10" dy="21" text-anchor="start" pointer-events="none"></text><text x="162" y="10" dy="-10" text-anchor="end" pointer-events="none">phases</text><text x="31" y="10" dy="-10" text-anchor="start" pointer-events="none">parent</text></g></svg><svg x="210" y="565" width="10" height="90" class="" fill="#ffffff"><g><marker id="marker-6a7fee48-165e-4d7d-b274-090bf244d5a1" viewBox="0 0 30 30" markerWidth="22" markerHeight="30" refX="30" refY="15" orient="auto" markerUnits="strokeWidth"><path d="M0,1 L0,29 L30,15 z" stroke="black" fill="white" class="sc-gEvEer fkqzOi"></path></marker><polyline points="5 90,5 0" stroke-width="1" marker-end="url(#marker-6a7fee48-165e-4d7d-b274-090bf244d5a1)" stroke="black" fill="none" class="sc-aXZVg eMElBf"></polyline></g></svg><svg x="250" y="565" width="200" height="90" class="" fill="#ffffff"><g><marker id="marker-2c4217cd-b986-4e4a-9422-8dc4c0f77230" viewBox="0 0 30 30" markerWidth="22" markerHeight="30" refX="30" refY="15" orient="auto" markerUnits="strokeWidth"><path d="M0,1 L0,29 L30,15 z" stroke="black" fill="white" class="sc-gEvEer fkqzOi"></path></marker><polyline points="195 90,195 45,5 45,5 0" stroke-width="1" marker-end="url(#marker-2c4217cd-b986-4e4a-9422-8dc4c0f77230)" stroke="black" fill="none" class="sc-aXZVg eMElBf"></polyline></g></svg><svg x="1080" y="575" width="10" height="120" class="" fill="#ffffff"><g><marker id="marker-342005b1-72f4-4aa6-845e-108d36f1c0ab" viewBox="0 0 30 30" markerWidth="22" markerHeight="30" refX="30" refY="15" orient="auto" markerUnits="strokeWidth"><path d="M0,1 L0,29 L30,15 z" stroke="black" fill="white" class="sc-gEvEer fkqzOi"></path></marker><polyline points="5 120,5 0" stroke-width="1" marker-end="url(#marker-342005b1-72f4-4aa6-845e-108d36f1c0ab)" stroke="black" fill="none" class="sc-aXZVg eMElBf"></polyline></g></svg><svg x="1080" y="575" width="215" height="120" class="" fill="#ffffff"><g><marker id="marker-ac0d8a9f-b0a1-4bd7-8d66-756003bc788d" viewBox="0 0 30 30" markerWidth="22" markerHeight="30" refX="30" refY="15" orient="auto" markerUnits="strokeWidth"><path d="M0,1 L0,29 L30,15 z" stroke="black" fill="white" class="sc-gEvEer fkqzOi"></path></marker><polyline points="210 120,210 60,5 60,5 0" stroke-width="1" marker-end="url(#marker-ac0d8a9f-b0a1-4bd7-8d66-756003bc788d)" stroke="black" fill="none" class="sc-aXZVg eMElBf"></polyline></g></svg><svg x="1235" y="325" width="120" height="31" class="" fill="#ffffff"><g><marker id="marker-bf04db43-2d3b-4972-b248-ad3b585a503e" viewBox="0 0 30 30" markerWidth="22" markerHeight="30" refX="30" refY="15" orient="auto" markerUnits="strokeWidth"><path d="M0,1 L0,29 L30,15 z" stroke="black" fill="white" class="sc-gEvEer fkqzOi"></path></marker><polyline points="120 10,0 10" stroke-width="1" marker-end="url(#marker-bf04db43-2d3b-4972-b248-ad3b585a503e)" stroke="black" fill="none" class="sc-aXZVg eMElBf"></polyline></g></svg><svg x="103.3166675567627" y="385" width="63.38333320617676" height="279.6000003814697" class="" fill="#ffffff"><g><polyline points="31.683332443237305 270,31.683332443237305 0" stroke-width="1" marker-end="url(#marker-5c127a2a-3474-44b6-b4f3-da4891a6ceb9)" stroke="black" fill="none" class="sc-aXZVg eMElBf"></polyline><text x="31.683332443237305" y="262" dx="5" text-anchor="start" pointer-events="none">1..1</text><text x="31.683332443237305" y="8" dx="5" dy="10" text-anchor="start" pointer-events="none">0..*</text><text x="31.683332443237305" y="262" dx="-5" text-anchor="end" pointer-events="none">role</text><text x="31.683332443237305" y="8" dx="-5" dy="10" text-anchor="end" pointer-events="none"></text></g></svg><svg x="50" y="385" width="315" height="361.1000003814697" class="" fill="#ffffff"><g><polyline points="315 322.5,5 322.5,5 0" stroke-width="1" marker-end="url(#marker-10d9160b-aeb0-419e-b011-76a6fc430c86)" stroke="black" fill="none" class="sc-aXZVg eMElBf"></polyline><text x="307" y="322.5" dy="21" text-anchor="end" pointer-events="none">1..1</text><text x="5" y="8" dx="5" dy="10" text-anchor="start" pointer-events="none">1..1</text><text x="307" y="322.5" dy="-10" text-anchor="end" pointer-events="none"></text><text x="5" y="8" dx="-5" dy="10" text-anchor="end" pointer-events="none"></text></g></svg><svg x="90" y="185" width="735" height="169.60000038146973" class="" fill="#ffffff"><g><polyline points="5 160,5 10,735 10" stroke-width="1" marker-end="url(#marker-4d403fcc-04cb-4706-8475-f5e7fa90a068)" stroke="black" fill="none" class="sc-aXZVg eMElBf"></polyline><text x="5" y="152" dx="5" text-anchor="start" pointer-events="none">0..*</text><text x="727" y="10" dy="21" text-anchor="end" pointer-events="none">1..1</text><text x="5" y="152" dx="-5" text-anchor="end" pointer-events="none"></text><text x="727" y="10" dy="-10" text-anchor="end" pointer-events="none">scope</text></g></svg><svg x="335" y="535" width="670" height="48.60000038146973" class="" fill="#ffffff"><g><polyline points="0 10,670 10" stroke-width="1" marker-end="url(#marker-ddd6cd89-0f65-4e19-ae0f-750318864352)" stroke="black" fill="none" class="sc-aXZVg eMElBf"></polyline><text x="8" y="10" dy="21" text-anchor="start" pointer-events="none">1..*</text><text x="662" y="10" dy="21" text-anchor="end" pointer-events="none">0..*</text><text x="8" y="10" dy="-10" text-anchor="start" pointer-events="none">participants</text><text x="662" y="10" dy="-10" text-anchor="end" pointer-events="none"></text></g></svg><svg x="1165" y="552.5" width="196.53333282470703" height="152.10000038146973" class="" fill="#ffffff"><g><polyline points="0 10,167.5 10,167.5 142.5" stroke-width="1" marker-end="url(#marker-4f49dc52-9023-4ca8-8338-14476210182a)" stroke="black" fill="none" class="sc-aXZVg eMElBf"></polyline><text x="8" y="10" dy="21" text-anchor="start" pointer-events="none">0..1</text><text x="167.5" y="134.5" dx="5" text-anchor="start" pointer-events="none">0..*</text><text x="8" y="10" dy="-10" text-anchor="start" pointer-events="none">default</text><text x="167.5" y="134.5" dx="-5" text-anchor="end" pointer-events="none"></text></g></svg><svg x="1007.9499969482422" y="375" width="108.75000381469727" height="159.60000038146973" class="" fill="#ffffff"><g><polyline points="77.05000305175781 150,77.05000305175781 0" stroke-width="1" marker-end="url(#marker-8351bd30-427c-4f52-b266-52c85130179b)" stroke="black" fill="none" class="sc-aXZVg eMElBf"></polyline><text x="77.05000305175781" y="142" dx="5" text-anchor="start" pointer-events="none">1..1</text><text x="77.05000305175781" y="8" dx="5" dy="10" text-anchor="start" pointer-events="none">0..*</text><text x="77.05000305175781" y="142" dx="-5" text-anchor="end" pointer-events="none"></text><text x="77.05000305175781" y="8" dx="-5" dy="10" text-anchor="end" pointer-events="none">conditions</text></g></svg><svg x="859.2999992370605" y="215" width="87.4000015258789" height="59.60000038146973" class="" fill="#ffffff"><g><polyline points="55.70000076293945 0,55.70000076293945 50" stroke-width="1" marker-end="url(#marker-8815b4ba-281e-44c6-a318-06108c96f300)" stroke="black" fill="none" class="sc-aXZVg eMElBf"></polyline><text x="55.70000076293945" y="8" dx="5" dy="10" text-anchor="start" pointer-events="none">1..1</text><text x="55.70000076293945" y="42" dx="5" text-anchor="start" pointer-events="none">0..1</text><text x="55.70000076293945" y="8" dx="-5" dy="10" text-anchor="end" pointer-events="none">scopes</text><text x="55.70000076293945" y="42" dx="-5" text-anchor="end" pointer-events="none"></text></g></svg><svg x="615" y="25" width="220" height="48.60000038146973" class="" fill="#ffffff"><g><polyline points="0 10,220 10" stroke-width="1" marker-end="url(#marker-f0a56593-286e-4518-9b19-01bdd3e3aee4)" stroke="black" fill="none" class="sc-aXZVg eMElBf"></polyline><text x="8" y="10" dy="21" text-anchor="start" pointer-events="none">0..1</text><text x="212" y="10" dy="21" text-anchor="end" pointer-events="none">0..*</text><text x="8" y="10" dy="-10" text-anchor="start" pointer-events="none">project</text><text x="212" y="10" dy="-10" text-anchor="end" pointer-events="none">activities</text></g></svg><svg x="995" y="25" width="140" height="48.60000038146973" class="" fill="#ffffff"><g><polyline points="0 10,140 10" stroke-width="1" marker-end="url(#marker-404b06ba-19b3-42e0-be21-12b25d5a9030)" stroke="black" fill="none" class="sc-aXZVg eMElBf"></polyline><text x="8" y="10" dy="21" text-anchor="start" pointer-events="none">0..1</text><text x="132" y="10" dy="21" text-anchor="end" pointer-events="none">0..*</text><text x="8" y="10" dy="-10" text-anchor="start" pointer-events="none">activity</text><text x="132" y="10" dy="-10" text-anchor="end" pointer-events="none">tasks</text></g></svg><svg x="950" y="315" width="100" height="210" class="" fill="#ffffff"><g><marker id="marker-f8484bc2-0e5a-4e9a-af0a-4282036d57e6" viewBox="0 0 30 30" markerWidth="22" markerHeight="30" refX="30" refY="15" orient="auto" markerUnits="strokeWidth"><path d="M0,1 L0,29 L30,15 z" stroke="black" fill="white" class="sc-gEvEer fkqzOi"></path></marker><polyline points="95 210,95 105,5 105,5 0" stroke-width="1" marker-end="url(#marker-f8484bc2-0e5a-4e9a-af0a-4282036d57e6)" stroke="black" fill="none" class="sc-aXZVg eMElBf"></polyline></g></svg><svg x="1055" y="765" width="10" height="90" class="" fill="#ffffff"><g><marker id="marker-ed9a91c9-ea14-46de-afce-e133e55bd083" viewBox="0 0 30 30" markerWidth="22" markerHeight="30" refX="30" refY="15" orient="auto" markerUnits="strokeWidth"><path d="M0,1 L0,29 L30,15 z" stroke="black" fill="white" class="sc-gEvEer fkqzOi"></path></marker><polyline points="5 90,5 0" stroke-width="1" marker-end="url(#marker-ed9a91c9-ea14-46de-afce-e133e55bd083)" stroke="black" fill="none" class="sc-aXZVg eMElBf"></polyline></g></svg><svg x="1140" y="765" width="10" height="90" class="" fill="#ffffff"><g><marker id="marker-b17238b6-9d7b-41ef-8fbf-ae12b61c0e35" viewBox="0 0 30 30" markerWidth="22" markerHeight="30" refX="30" refY="15" orient="auto" markerUnits="strokeWidth"><path d="M0,1 L0,29 L30,15 z" stroke="black" fill="white" class="sc-gEvEer fkqzOi"></path></marker><polyline points="5 90,5 0" stroke-width="1" marker-end="url(#marker-b17238b6-9d7b-41ef-8fbf-ae12b61c0e35)" stroke="black" fill="none" class="sc-aXZVg eMElBf"></polyline></g></svg><svg x="1175" y="375" width="10" height="80" class="" fill="#ffffff"><g><marker id="marker-2932f801-ce3d-4c3e-abd2-a2491fbffe10" viewBox="0 0 30 30" markerWidth="22" markerHeight="30" refX="30" refY="15" orient="auto" markerUnits="strokeWidth"><path d="M0,1 L0,29 L30,15 z" stroke="black" fill="white" class="sc-gEvEer fkqzOi"></path></marker><polyline points="5 80,5 0" stroke-width="1" marker-end="url(#marker-2932f801-ce3d-4c3e-abd2-a2491fbffe10)" stroke="black" fill="none" class="sc-aXZVg eMElBf"></polyline></g></svg><svg x="525" y="495" width="719.033332824707" height="216.10000038146973" class="" fill="#ffffff"><g><polyline points="690 0,690 177.5,0 177.5" stroke-width="1" marker-end="url(#marker-2104551a-efe9-4d9c-8556-0bef6ae910ad)" stroke="black" fill="none" class="sc-aXZVg eMElBf"></polyline><text x="690" y="8" dx="5" dy="10" text-anchor="start" pointer-events="none">0..*</text><text x="8" y="177.5" dy="21" text-anchor="start" pointer-events="none">1..*</text><text x="690" y="8" dx="-5" dy="10" text-anchor="end" pointer-events="none"></text><text x="8" y="177.5" dy="-10" text-anchor="start" pointer-events="none">excluded</text></g></svg><svg x="940" y="575" width="150" height="120" class="" fill="#ffffff"><g><marker id="marker-fe969c01-839c-46c9-bdd8-ae7faae0d193" viewBox="0 0 30 30" markerWidth="22" markerHeight="30" refX="30" refY="15" orient="auto" markerUnits="strokeWidth"><path d="M0,1 L0,29 L30,15 z" stroke="black" fill="white" class="sc-gEvEer fkqzOi"></path></marker><polyline points="5 120,5 60,145 60,145 0" stroke-width="1" marker-end="url(#marker-fe969c01-839c-46c9-bdd8-ae7faae0d193)" stroke="black" fill="none" class="sc-aXZVg eMElBf"></polyline></g></svg><svg x="880" y="735" width="10" height="120" class="" fill="#ffffff"><g><marker id="marker-0dc0459e-6961-4d26-9abe-6dab20f5daac" viewBox="0 0 30 30" markerWidth="22" markerHeight="30" refX="30" refY="15" orient="auto" markerUnits="strokeWidth"><path d="M0,1 L0,29 L30,15 z" stroke="black" fill="white" class="sc-gEvEer fkqzOi"></path></marker><polyline points="5 120,5 0" stroke-width="1" marker-end="url(#marker-0dc0459e-6961-4d26-9abe-6dab20f5daac)" stroke="black" fill="none" class="sc-aXZVg eMElBf"></polyline></g></svg><svg x="1235" y="207.5" width="90" height="148.5" class="" fill="#ffffff"><g><marker id="marker-fdbeb5f6-23cd-4424-a538-2131ef619364" viewBox="0 0 30 30" markerWidth="22" markerHeight="30" refX="30" refY="15" orient="auto" markerUnits="strokeWidth"><path d="M0,1 L0,29 L30,15 z" stroke="black" fill="white" class="sc-gEvEer fkqzOi"></path></marker><polyline points="90 10,45 10,45 127.5,0 127.5" stroke-width="1" marker-end="url(#marker-fdbeb5f6-23cd-4424-a538-2131ef619364)" stroke="black" fill="none" class="sc-aXZVg eMElBf"></polyline></g></svg><svg x="237.51666641235352" y="415" width="1047.4833335876465" height="109.60000038146973" class="" fill="#ffffff"><g><polyline points="1047.4833335876465 10,57.483333587646484 10,57.483333587646484 100" stroke-width="1" marker-end="url(#marker-e714b3f1-a5dd-4aca-a3ad-13607ab43a16)" stroke="black" fill="none" class="sc-aXZVg eMElBf"></polyline><text x="1039.4833335876465" y="10" dy="21" text-anchor="end" pointer-events="none">0..*</text><text x="57.483333587646484" y="92" dx="5" text-anchor="start" pointer-events="none">0..*</text><text x="1039.4833335876465" y="10" dy="-10" text-anchor="end" pointer-events="none"></text><text x="57.483333587646484" y="92" dx="-5" text-anchor="end" pointer-events="none">vetoers</text></g></svg><svg x="1235" y="325" width="95" height="80" class="" fill="#ffffff"><g><marker id="marker-34b0eea9-9f84-4aa5-89ae-85aa0bb870f1" viewBox="0 0 30 30" markerWidth="22" markerHeight="30" refX="30" refY="15" orient="auto" markerUnits="strokeWidth"><path d="M0,1 L0,29 L30,15 z" stroke="black" fill="white" class="sc-gEvEer fkqzOi"></path></marker><polyline points="90 80,90 10,0 10" stroke-width="1" marker-end="url(#marker-34b0eea9-9f84-4aa5-89ae-85aa0bb870f1)" stroke="black" fill="none" class="sc-aXZVg eMElBf"></polyline></g></svg><svg x="400" y="725" width="10" height="130" class="" fill="#ffffff"><g><marker id="marker-6cca1530-71f5-4c73-9350-6b36317b47ad" viewBox="0 0 30 30" markerWidth="22" markerHeight="30" refX="30" refY="15" orient="auto" markerUnits="strokeWidth"><path d="M0,1 L0,29 L30,15 z" stroke="black" fill="white" class="sc-gEvEer fkqzOi"></path></marker><polyline points="5 130,5 0" stroke-width="1" marker-end="url(#marker-6cca1530-71f5-4c73-9350-6b36317b47ad)" stroke="black" fill="none" class="sc-aXZVg eMElBf"></polyline></g></svg><svg x="755" y="552.5" width="250" height="76.10000038146973" class="" fill="#ffffff"><g><polyline points="250 10,125 10,125 37.5,0 37.5" stroke-width="1" marker-end="url(#marker-ec84a38b-de50-4529-aabf-928b08491b37)" stroke="black" fill="none" class="sc-aXZVg eMElBf"></polyline><text x="242" y="10" dy="21" text-anchor="end" pointer-events="none">0..*</text><text x="8" y="37.5" dy="21" text-anchor="start" pointer-events="none">1..1</text><text x="242" y="10" dy="-10" text-anchor="end" pointer-events="none"></text><text x="8" y="37.5" dy="-10" text-anchor="start" pointer-events="none"></text></g></svg><svg x="720" y="615" width="10" height="140" class="" fill="#ffffff"><g><marker id="marker-53dcfbda-8831-429d-9545-f5d31d2df88c" viewBox="0 0 30 30" markerWidth="22" markerHeight="30" refX="30" refY="15" orient="auto" markerUnits="strokeWidth"><path d="M0,1 L0,29 L30,15 z" stroke="black" fill="white" class="sc-gEvEer fkqzOi"></path></marker><polyline points="5 140,5 0" stroke-width="1" marker-end="url(#marker-53dcfbda-8831-429d-9545-f5d31d2df88c)" stroke="black" fill="none" class="sc-aXZVg eMElBf"></polyline></g></svg><svg x="655" y="805" width="10" height="120" class="" fill="#ffffff"><g><marker id="marker-b9dce5a2-4218-49c6-83b2-1800812d82e5" viewBox="0 0 30 30" markerWidth="22" markerHeight="30" refX="30" refY="15" orient="auto" markerUnits="strokeWidth"><path d="M0,1 L0,29 L30,15 z" stroke="black" fill="white" class="sc-gEvEer fkqzOi"></path></marker><polyline points="5 120,5 0" stroke-width="1" marker-end="url(#marker-b9dce5a2-4218-49c6-83b2-1800812d82e5)" stroke="black" fill="none" class="sc-aXZVg eMElBf"></polyline></g></svg><svg x="570" y="805" width="10" height="120" class="" fill="#ffffff"><g><marker id="marker-e6fcd7e2-0cb5-4d0b-9162-d19b51dc0f0a" viewBox="0 0 30 30" markerWidth="22" markerHeight="30" refX="30" refY="15" orient="auto" markerUnits="strokeWidth"><path d="M0,1 L0,29 L30,15 z" stroke="black" fill="white" class="sc-gEvEer fkqzOi"></path></marker><polyline points="5 120,5 0" stroke-width="1" marker-end="url(#marker-e6fcd7e2-0cb5-4d0b-9162-d19b51dc0f0a)" stroke="black" fill="none" class="sc-aXZVg eMElBf"></polyline></g></svg><svg x="490" y="725" width="34.03333282470703" height="209.60000038146973" class="" fill="#ffffff"><g><polyline points="5 200,5 0" stroke-width="1" marker-end="url(#marker-1393b1d6-0dba-4ad1-805b-1b2d68faa794)" stroke="black" fill="none" class="sc-aXZVg eMElBf"></polyline><text x="5" y="192" dx="5" text-anchor="start" pointer-events="none">0..*</text><text x="5" y="8" dx="5" dy="10" text-anchor="start" pointer-events="none">1..*</text><text x="5" y="192" dx="-5" text-anchor="end" pointer-events="none"></text><text x="5" y="8" dx="-5" dy="10" text-anchor="end" pointer-events="none"></text></g></svg><svg x="635" y="615" width="10" height="150" class="" fill="#ffffff"><g><marker id="marker-5f6f0e08-b674-40b9-8052-9d97a0bf5cd0" viewBox="0 0 30 30" markerWidth="22" markerHeight="30" refX="30" refY="15" orient="auto" markerUnits="strokeWidth"><path d="M0,1 L0,29 L30,15 z" stroke="black" fill="white" class="sc-gEvEer fkqzOi"></path></marker><polyline points="5 150,5 0" stroke-width="1" marker-end="url(#marker-5f6f0e08-b674-40b9-8052-9d97a0bf5cd0)" stroke="black" fill="none" class="sc-aXZVg eMElBf"></polyline></g></svg><svg x="255" y="665" width="110" height="48.60000038146973" class="" fill="#ffffff"><g><polyline points="0 10,110 10" stroke-width="1" marker-end="url(#marker-244291fe-c24f-4728-99a0-b613abf01c0e)" stroke="black" fill="none" class="sc-aXZVg eMElBf"></polyline><text x="8" y="10" dy="21" text-anchor="start" pointer-events="none">0..*</text><text x="102" y="10" dy="21" text-anchor="end" pointer-events="none">0..*</text><text x="8" y="10" dy="-10" text-anchor="start" pointer-events="none"></text><text x="102" y="10" dy="-10" text-anchor="end" pointer-events="none">individuals</text></g></svg><svg x="215" y="725" width="235" height="113.60000038146973" class="" fill="#ffffff"><g><marker id="marker-30f7652e-b701-4980-9621-6d1e730118a3" viewBox="0 0 30 30" markerWidth="30" markerHeight="30" refX="30" refY="15" orient="auto" markerUnits="strokeWidth"><path d="M0,15 L15,22 L30,15 L15,8 z" stroke="white" fill="black" class="sc-eqUAAy dLsBSg"></path></marker><polyline points="0 75,230 75,230 0" stroke-width="1" marker-end="url(#marker-30f7652e-b701-4980-9621-6d1e730118a3)" stroke="black" fill="none" class="sc-aXZVg eMElBf"></polyline><text x="8" y="75" dy="21" text-anchor="start" pointer-events="none">0..1</text><text x="230" y="31" dx="5" dy="10" text-anchor="start" pointer-events="none"></text><text x="8" y="75" dy="-10" text-anchor="start" pointer-events="none"></text><text x="230" y="31" dx="-5" dy="10" text-anchor="end" pointer-events="none"></text></g></svg></svg>